%TF.GenerationSoftware,KiCad,Pcbnew,(7.0.0)*%
%TF.CreationDate,2023-04-20T18:50:50-06:00*%
%TF.ProjectId,Phase_B_ATMEGA_v3,50686173-655f-4425-9f41-544d4547415f,rev?*%
%TF.SameCoordinates,Original*%
%TF.FileFunction,Soldermask,Top*%
%TF.FilePolarity,Negative*%
%FSLAX46Y46*%
G04 Gerber Fmt 4.6, Leading zero omitted, Abs format (unit mm)*
G04 Created by KiCad (PCBNEW (7.0.0)) date 2023-04-20 18:50:50*
%MOMM*%
%LPD*%
G01*
G04 APERTURE LIST*
G04 Aperture macros list*
%AMRoundRect*
0 Rectangle with rounded corners*
0 $1 Rounding radius*
0 $2 $3 $4 $5 $6 $7 $8 $9 X,Y pos of 4 corners*
0 Add a 4 corners polygon primitive as box body*
4,1,4,$2,$3,$4,$5,$6,$7,$8,$9,$2,$3,0*
0 Add four circle primitives for the rounded corners*
1,1,$1+$1,$2,$3*
1,1,$1+$1,$4,$5*
1,1,$1+$1,$6,$7*
1,1,$1+$1,$8,$9*
0 Add four rect primitives between the rounded corners*
20,1,$1+$1,$2,$3,$4,$5,0*
20,1,$1+$1,$4,$5,$6,$7,0*
20,1,$1+$1,$6,$7,$8,$9,0*
20,1,$1+$1,$8,$9,$2,$3,0*%
G04 Aperture macros list end*
%ADD10C,3.400000*%
%ADD11C,6.000000*%
%ADD12R,1.700000X1.700000*%
%ADD13O,1.700000X1.700000*%
%ADD14RoundRect,0.200000X0.200000X0.275000X-0.200000X0.275000X-0.200000X-0.275000X0.200000X-0.275000X0*%
%ADD15RoundRect,0.200000X-0.200000X-0.275000X0.200000X-0.275000X0.200000X0.275000X-0.200000X0.275000X0*%
%ADD16RoundRect,0.225000X0.250000X-0.225000X0.250000X0.225000X-0.250000X0.225000X-0.250000X-0.225000X0*%
%ADD17RoundRect,0.250000X-0.450000X0.262500X-0.450000X-0.262500X0.450000X-0.262500X0.450000X0.262500X0*%
%ADD18RoundRect,0.243750X-0.243750X-0.456250X0.243750X-0.456250X0.243750X0.456250X-0.243750X0.456250X0*%
%ADD19RoundRect,0.225000X-0.250000X0.225000X-0.250000X-0.225000X0.250000X-0.225000X0.250000X0.225000X0*%
%ADD20R,2.000000X2.000000*%
%ADD21C,2.000000*%
%ADD22RoundRect,0.250000X0.450000X-0.262500X0.450000X0.262500X-0.450000X0.262500X-0.450000X-0.262500X0*%
%ADD23C,1.000000*%
%ADD24R,2.000000X0.500000*%
%ADD25R,1.700000X2.000000*%
%ADD26RoundRect,0.225000X0.225000X0.250000X-0.225000X0.250000X-0.225000X-0.250000X0.225000X-0.250000X0*%
%ADD27R,1.200000X1.400000*%
%ADD28RoundRect,0.250000X-0.312500X-1.450000X0.312500X-1.450000X0.312500X1.450000X-0.312500X1.450000X0*%
%ADD29RoundRect,0.225000X-0.225000X-0.250000X0.225000X-0.250000X0.225000X0.250000X-0.225000X0.250000X0*%
%ADD30RoundRect,0.250000X0.475000X-0.250000X0.475000X0.250000X-0.475000X0.250000X-0.475000X-0.250000X0*%
%ADD31RoundRect,0.250000X-0.262500X-0.450000X0.262500X-0.450000X0.262500X0.450000X-0.262500X0.450000X0*%
%ADD32R,2.000000X1.500000*%
%ADD33RoundRect,0.150000X-0.150000X0.512500X-0.150000X-0.512500X0.150000X-0.512500X0.150000X0.512500X0*%
%ADD34R,1.500000X0.550000*%
%ADD35R,0.550000X1.500000*%
%ADD36RoundRect,0.100000X-0.637500X-0.100000X0.637500X-0.100000X0.637500X0.100000X-0.637500X0.100000X0*%
%ADD37RoundRect,0.243750X0.243750X0.456250X-0.243750X0.456250X-0.243750X-0.456250X0.243750X-0.456250X0*%
%ADD38RoundRect,0.150000X-0.512500X-0.150000X0.512500X-0.150000X0.512500X0.150000X-0.512500X0.150000X0*%
%ADD39R,1.500000X1.500000*%
%ADD40C,1.500000*%
%ADD41R,1.000000X0.700000*%
G04 APERTURE END LIST*
D10*
%TO.C,REF\u002A\u002A*%
X144780000Y-147320000D03*
D11*
X144780000Y-147320000D03*
%TD*%
D10*
%TO.C,REF\u002A\u002A*%
X99060000Y-111760000D03*
D11*
X99060000Y-111760000D03*
%TD*%
D10*
%TO.C,REF\u002A\u002A*%
X170180000Y-83820000D03*
D11*
X170180000Y-83820000D03*
%TD*%
D12*
%TO.C,J1*%
X124243999Y-137373999D03*
D13*
X124243999Y-134833999D03*
X121703999Y-137373999D03*
X121703999Y-134833999D03*
X119163999Y-137373999D03*
X119163999Y-134833999D03*
%TD*%
D14*
%TO.C,R17*%
X102679000Y-137668000D03*
X101029000Y-137668000D03*
%TD*%
D15*
%TO.C,R15*%
X106247000Y-123698000D03*
X107897000Y-123698000D03*
%TD*%
D14*
%TO.C,R13*%
X124116000Y-141184000D03*
X122466000Y-141184000D03*
%TD*%
D16*
%TO.C,C12*%
X134658000Y-118832000D03*
X134658000Y-117282000D03*
%TD*%
D17*
%TO.C,R2*%
X151130000Y-143510000D03*
X151130000Y-145335000D03*
%TD*%
D18*
%TO.C,D2*%
X150914000Y-108418000D03*
X152789000Y-108418000D03*
%TD*%
D19*
%TO.C,C3*%
X132296000Y-142267000D03*
X132296000Y-143817000D03*
%TD*%
D20*
%TO.C,LS1*%
X162089999Y-111455999D03*
D21*
X162090000Y-103856000D03*
%TD*%
D22*
%TO.C,R6*%
X122212000Y-105878000D03*
X122212000Y-104053000D03*
%TD*%
D23*
%TO.C,J2*%
X100016000Y-122382000D03*
X100016000Y-126782000D03*
D24*
X102715999Y-122981999D03*
X102715999Y-123781999D03*
X102715999Y-124581999D03*
X102715999Y-125381999D03*
X102715999Y-126181999D03*
D25*
X102615999Y-120131999D03*
X97165999Y-120131999D03*
X102615999Y-129031999D03*
X97165999Y-129031999D03*
%TD*%
D16*
%TO.C,C13*%
X112107500Y-133764500D03*
X112107500Y-132214500D03*
%TD*%
D26*
%TO.C,C6*%
X129337000Y-123150000D03*
X127787000Y-123150000D03*
%TD*%
D27*
%TO.C,Y1*%
X135855999Y-144307999D03*
X135855999Y-142107999D03*
X134155999Y-142107999D03*
X134155999Y-144307999D03*
%TD*%
D22*
%TO.C,R8*%
X119672000Y-105925000D03*
X119672000Y-104100000D03*
%TD*%
%TO.C,R11*%
X127292000Y-105878000D03*
X127292000Y-104053000D03*
%TD*%
%TO.C,R9*%
X116878000Y-106028500D03*
X116878000Y-104203500D03*
%TD*%
D28*
%TO.C,F1*%
X106818000Y-120142000D03*
X111093000Y-120142000D03*
%TD*%
D22*
%TO.C,R12*%
X130086000Y-105878000D03*
X130086000Y-104053000D03*
%TD*%
D19*
%TO.C,C5*%
X144818000Y-129728000D03*
X144818000Y-131278000D03*
%TD*%
D29*
%TO.C,C4*%
X141516000Y-118578000D03*
X143066000Y-118578000D03*
%TD*%
D19*
%TO.C,C2*%
X137884000Y-142534000D03*
X137884000Y-144084000D03*
%TD*%
D30*
%TO.C,C8*%
X129070000Y-121560000D03*
X129070000Y-119660000D03*
%TD*%
D22*
%TO.C,R5*%
X132880000Y-105878000D03*
X132880000Y-104053000D03*
%TD*%
D19*
%TO.C,C7*%
X134658000Y-134072000D03*
X134658000Y-135622000D03*
%TD*%
D31*
%TO.C,R4*%
X150914000Y-112228000D03*
X152739000Y-112228000D03*
%TD*%
D12*
%TO.C,J3*%
X97319999Y-140675999D03*
D13*
X97319999Y-143215999D03*
X99859999Y-140675999D03*
X99859999Y-143215999D03*
X102399999Y-140675999D03*
X102399999Y-143215999D03*
X104939999Y-140675999D03*
X104939999Y-143215999D03*
%TD*%
D29*
%TO.C,C1*%
X131102000Y-112228000D03*
X132652000Y-112228000D03*
%TD*%
D22*
%TO.C,R7*%
X124752000Y-105878000D03*
X124752000Y-104053000D03*
%TD*%
D17*
%TO.C,R1*%
X150876000Y-127254000D03*
X150876000Y-129079000D03*
%TD*%
D32*
%TO.C,S2*%
X169709999Y-143469999D03*
X155409999Y-143469999D03*
X169709999Y-138469999D03*
X155409999Y-138469999D03*
%TD*%
D18*
%TO.C,D1*%
X145834000Y-108164000D03*
X147709000Y-108164000D03*
%TD*%
D33*
%TO.C,U5*%
X110396000Y-134834000D03*
X109446000Y-134834000D03*
X108496000Y-134834000D03*
X108496000Y-137109000D03*
X110396000Y-137109000D03*
%TD*%
D26*
%TO.C,C9*%
X129298000Y-126198000D03*
X127748000Y-126198000D03*
%TD*%
D34*
%TO.C,U3*%
X131357999Y-122339999D03*
X131357999Y-123139999D03*
X131357999Y-123939999D03*
X131357999Y-124739999D03*
X131357999Y-125539999D03*
X131357999Y-126339999D03*
X131357999Y-127139999D03*
X131357999Y-127939999D03*
X131357999Y-128739999D03*
X131357999Y-129539999D03*
X131357999Y-130339999D03*
D35*
X133057999Y-132039999D03*
X133857999Y-132039999D03*
X134657999Y-132039999D03*
X135457999Y-132039999D03*
X136257999Y-132039999D03*
X137057999Y-132039999D03*
X137857999Y-132039999D03*
X138657999Y-132039999D03*
X139457999Y-132039999D03*
X140257999Y-132039999D03*
X141057999Y-132039999D03*
D34*
X142757999Y-130339999D03*
X142757999Y-129539999D03*
X142757999Y-128739999D03*
X142757999Y-127939999D03*
X142757999Y-127139999D03*
X142757999Y-126339999D03*
X142757999Y-125539999D03*
X142757999Y-124739999D03*
X142757999Y-123939999D03*
X142757999Y-123139999D03*
X142757999Y-122339999D03*
D35*
X141057999Y-120639999D03*
X140257999Y-120639999D03*
X139457999Y-120639999D03*
X138657999Y-120639999D03*
X137857999Y-120639999D03*
X137057999Y-120639999D03*
X136257999Y-120639999D03*
X135457999Y-120639999D03*
X134657999Y-120639999D03*
X133857999Y-120639999D03*
X133057999Y-120639999D03*
%TD*%
D36*
%TO.C,U2*%
X123482000Y-112594000D03*
X123482000Y-113244000D03*
X123482000Y-113894000D03*
X123482000Y-114544000D03*
X123482000Y-115194000D03*
X123482000Y-115844000D03*
X123482000Y-116494000D03*
X123482000Y-117144000D03*
X129207000Y-117144000D03*
X129207000Y-116494000D03*
X129207000Y-115844000D03*
X129207000Y-115194000D03*
X129207000Y-114544000D03*
X129207000Y-113894000D03*
X129207000Y-113244000D03*
X129207000Y-112594000D03*
%TD*%
D37*
%TO.C,D3*%
X112073500Y-113030000D03*
X110198500Y-113030000D03*
%TD*%
D26*
%TO.C,C11*%
X132626000Y-118832000D03*
X131076000Y-118832000D03*
%TD*%
D19*
%TO.C,C14*%
X112107500Y-137802500D03*
X112107500Y-139352500D03*
%TD*%
D38*
%TO.C,U4*%
X112406000Y-123952000D03*
X112406000Y-124902000D03*
X112406000Y-125852000D03*
X114681000Y-125852000D03*
X114681000Y-124902000D03*
X114681000Y-123952000D03*
%TD*%
D14*
%TO.C,R16*%
X112024000Y-116078000D03*
X110374000Y-116078000D03*
%TD*%
D26*
%TO.C,C10*%
X129324000Y-127722000D03*
X127774000Y-127722000D03*
%TD*%
D31*
%TO.C,R3*%
X145834000Y-112228000D03*
X147659000Y-112228000D03*
%TD*%
D15*
%TO.C,R14*%
X106244648Y-125237120D03*
X107894648Y-125237120D03*
%TD*%
D16*
%TO.C,C15*%
X106718000Y-137133000D03*
X106718000Y-135583000D03*
%TD*%
D39*
%TO.C,U1*%
X118401999Y-99527999D03*
D40*
X120942000Y-99528000D03*
X123482000Y-99528000D03*
X126022000Y-99528000D03*
X128562000Y-99528000D03*
X131102000Y-99528000D03*
X131102000Y-84288000D03*
X128562000Y-84288000D03*
X126022000Y-84288000D03*
X123482000Y-84288000D03*
X120942000Y-84288000D03*
X118402000Y-84288000D03*
%TD*%
D22*
%TO.C,R10*%
X114084000Y-106028500D03*
X114084000Y-104203500D03*
%TD*%
D32*
%TO.C,S1*%
X169455999Y-126705999D03*
X155155999Y-126705999D03*
X169455999Y-121705999D03*
X155155999Y-121705999D03*
%TD*%
D41*
%TO.C,S3*%
X115703999Y-143469999D03*
X121703999Y-143469999D03*
X115703999Y-147169999D03*
X121703999Y-147169999D03*
%TD*%
M02*
