%TF.GenerationSoftware,KiCad,Pcbnew,(7.0.0)*%
%TF.CreationDate,2023-06-01T08:47:22-06:00*%
%TF.ProjectId,ENCE 3231 final project,454e4345-2033-4323-9331-2066696e616c,rev?*%
%TF.SameCoordinates,Original*%
%TF.FileFunction,Soldermask,Bot*%
%TF.FilePolarity,Negative*%
%FSLAX46Y46*%
G04 Gerber Fmt 4.6, Leading zero omitted, Abs format (unit mm)*
G04 Created by KiCad (PCBNEW (7.0.0)) date 2023-06-01 08:47:22*
%MOMM*%
%LPD*%
G01*
G04 APERTURE LIST*
G04 Aperture macros list*
%AMRoundRect*
0 Rectangle with rounded corners*
0 $1 Rounding radius*
0 $2 $3 $4 $5 $6 $7 $8 $9 X,Y pos of 4 corners*
0 Add a 4 corners polygon primitive as box body*
4,1,4,$2,$3,$4,$5,$6,$7,$8,$9,$2,$3,0*
0 Add four circle primitives for the rounded corners*
1,1,$1+$1,$2,$3*
1,1,$1+$1,$4,$5*
1,1,$1+$1,$6,$7*
1,1,$1+$1,$8,$9*
0 Add four rect primitives between the rounded corners*
20,1,$1+$1,$2,$3,$4,$5,0*
20,1,$1+$1,$4,$5,$6,$7,0*
20,1,$1+$1,$6,$7,$8,$9,0*
20,1,$1+$1,$8,$9,$2,$3,0*%
G04 Aperture macros list end*
%ADD10C,4.000000*%
%ADD11R,2.600000X1.800000*%
%ADD12O,2.600000X1.800000*%
%ADD13R,2.600000X2.600000*%
%ADD14O,2.600000X2.600000*%
%ADD15R,1.700000X1.700000*%
%ADD16O,1.700000X1.700000*%
%ADD17R,1.100000X1.800000*%
%ADD18RoundRect,0.275000X-0.275000X-0.625000X0.275000X-0.625000X0.275000X0.625000X-0.275000X0.625000X0*%
%ADD19C,2.400000*%
%ADD20O,2.400000X2.400000*%
G04 APERTURE END LIST*
D10*
%TO.C,DS1*%
X191076740Y-36479580D03*
X154076560Y-36479580D03*
X191076740Y-151480620D03*
X154076560Y-151480620D03*
D11*
X192077499Y-105879999D03*
D12*
X192077499Y-108419999D03*
X192077499Y-110959999D03*
X192077499Y-113499999D03*
X192077499Y-116039999D03*
X192077499Y-118579999D03*
X192077499Y-121119999D03*
X192077499Y-123659999D03*
X192077499Y-126199999D03*
X192077499Y-128739999D03*
X192077499Y-131279999D03*
X192077499Y-133819999D03*
X192077499Y-136359999D03*
X192077499Y-138899999D03*
X192077499Y-141439999D03*
X192077499Y-143979999D03*
%TD*%
D13*
%TO.C,D1*%
X27939999Y-170179999D03*
D14*
X27939999Y-154939999D03*
%TD*%
D15*
%TO.C,J2*%
X81279999Y-157479999D03*
D16*
X83819999Y-157479999D03*
X81279999Y-154939999D03*
X83819999Y-154939999D03*
X81279999Y-152399999D03*
X83819999Y-152399999D03*
X81279999Y-149859999D03*
X83819999Y-149859999D03*
X81279999Y-147319999D03*
X83819999Y-147319999D03*
X81279999Y-144779999D03*
X83819999Y-144779999D03*
X81279999Y-142239999D03*
X83819999Y-142239999D03*
X81279999Y-139699999D03*
X83819999Y-139699999D03*
X81279999Y-137159999D03*
X83819999Y-137159999D03*
X81279999Y-134619999D03*
X83819999Y-134619999D03*
X81279999Y-132079999D03*
X83819999Y-132079999D03*
X81279999Y-129539999D03*
X83819999Y-129539999D03*
X81279999Y-126999999D03*
X83819999Y-126999999D03*
X81279999Y-124459999D03*
X83819999Y-124459999D03*
X81279999Y-121919999D03*
X83819999Y-121919999D03*
X81279999Y-119379999D03*
X83819999Y-119379999D03*
X81279999Y-116839999D03*
X83819999Y-116839999D03*
X81279999Y-114299999D03*
X83819999Y-114299999D03*
X81279999Y-111759999D03*
X83819999Y-111759999D03*
X81279999Y-109219999D03*
X83819999Y-109219999D03*
X81279999Y-106679999D03*
X83819999Y-106679999D03*
X81279999Y-104139999D03*
X83819999Y-104139999D03*
X81279999Y-101599999D03*
X83819999Y-101599999D03*
X81279999Y-99059999D03*
X83819999Y-99059999D03*
X81279999Y-96519999D03*
X83819999Y-96519999D03*
%TD*%
D17*
%TO.C,Q1*%
X31749999Y-129939999D03*
D18*
X33020000Y-127870000D03*
X34290000Y-129940000D03*
%TD*%
D19*
%TO.C,R1*%
X71120000Y-124460000D03*
D20*
X45719999Y-124459999D03*
%TD*%
D15*
%TO.C,J1*%
X132079999Y-157479999D03*
D16*
X134619999Y-157479999D03*
X132079999Y-154939999D03*
X134619999Y-154939999D03*
X132079999Y-152399999D03*
X134619999Y-152399999D03*
X132079999Y-149859999D03*
X134619999Y-149859999D03*
X132079999Y-147319999D03*
X134619999Y-147319999D03*
X132079999Y-144779999D03*
X134619999Y-144779999D03*
X132079999Y-142239999D03*
X134619999Y-142239999D03*
X132079999Y-139699999D03*
X134619999Y-139699999D03*
X132079999Y-137159999D03*
X134619999Y-137159999D03*
X132079999Y-134619999D03*
X134619999Y-134619999D03*
X132079999Y-132079999D03*
X134619999Y-132079999D03*
X132079999Y-129539999D03*
X134619999Y-129539999D03*
X132079999Y-126999999D03*
X134619999Y-126999999D03*
X132079999Y-124459999D03*
X134619999Y-124459999D03*
X132079999Y-121919999D03*
X134619999Y-121919999D03*
X132079999Y-119379999D03*
X134619999Y-119379999D03*
X132079999Y-116839999D03*
X134619999Y-116839999D03*
X132079999Y-114299999D03*
X134619999Y-114299999D03*
X132079999Y-111759999D03*
X134619999Y-111759999D03*
X132079999Y-109219999D03*
X134619999Y-109219999D03*
X132079999Y-106679999D03*
X134619999Y-106679999D03*
X132079999Y-104139999D03*
X134619999Y-104139999D03*
X132079999Y-101599999D03*
X134619999Y-101599999D03*
X132079999Y-99059999D03*
X134619999Y-99059999D03*
X132079999Y-96519999D03*
X134619999Y-96519999D03*
%TD*%
M02*
