%TF.GenerationSoftware,KiCad,Pcbnew,(7.0.0)*%
%TF.CreationDate,2023-06-01T08:47:22-06:00*%
%TF.ProjectId,ENCE 3231 final project,454e4345-2033-4323-9331-2066696e616c,rev?*%
%TF.SameCoordinates,Original*%
%TF.FileFunction,Legend,Top*%
%TF.FilePolarity,Positive*%
%FSLAX46Y46*%
G04 Gerber Fmt 4.6, Leading zero omitted, Abs format (unit mm)*
G04 Created by KiCad (PCBNEW (7.0.0)) date 2023-06-01 08:47:22*
%MOMM*%
%LPD*%
G01*
G04 APERTURE LIST*
%ADD10C,0.150000*%
%ADD11C,0.120000*%
G04 APERTURE END LIST*
D10*
%TO.C,DS1*%
X195924880Y-35974285D02*
X194924880Y-35974285D01*
X194924880Y-35974285D02*
X194924880Y-35736190D01*
X194924880Y-35736190D02*
X194972500Y-35593333D01*
X194972500Y-35593333D02*
X195067738Y-35498095D01*
X195067738Y-35498095D02*
X195162976Y-35450476D01*
X195162976Y-35450476D02*
X195353452Y-35402857D01*
X195353452Y-35402857D02*
X195496309Y-35402857D01*
X195496309Y-35402857D02*
X195686785Y-35450476D01*
X195686785Y-35450476D02*
X195782023Y-35498095D01*
X195782023Y-35498095D02*
X195877261Y-35593333D01*
X195877261Y-35593333D02*
X195924880Y-35736190D01*
X195924880Y-35736190D02*
X195924880Y-35974285D01*
X195877261Y-35021904D02*
X195924880Y-34879047D01*
X195924880Y-34879047D02*
X195924880Y-34640952D01*
X195924880Y-34640952D02*
X195877261Y-34545714D01*
X195877261Y-34545714D02*
X195829642Y-34498095D01*
X195829642Y-34498095D02*
X195734404Y-34450476D01*
X195734404Y-34450476D02*
X195639166Y-34450476D01*
X195639166Y-34450476D02*
X195543928Y-34498095D01*
X195543928Y-34498095D02*
X195496309Y-34545714D01*
X195496309Y-34545714D02*
X195448690Y-34640952D01*
X195448690Y-34640952D02*
X195401071Y-34831428D01*
X195401071Y-34831428D02*
X195353452Y-34926666D01*
X195353452Y-34926666D02*
X195305833Y-34974285D01*
X195305833Y-34974285D02*
X195210595Y-35021904D01*
X195210595Y-35021904D02*
X195115357Y-35021904D01*
X195115357Y-35021904D02*
X195020119Y-34974285D01*
X195020119Y-34974285D02*
X194972500Y-34926666D01*
X194972500Y-34926666D02*
X194924880Y-34831428D01*
X194924880Y-34831428D02*
X194924880Y-34593333D01*
X194924880Y-34593333D02*
X194972500Y-34450476D01*
X195924880Y-33498095D02*
X195924880Y-34069523D01*
X195924880Y-33783809D02*
X194924880Y-33783809D01*
X194924880Y-33783809D02*
X195067738Y-33879047D01*
X195067738Y-33879047D02*
X195162976Y-33974285D01*
X195162976Y-33974285D02*
X195210595Y-34069523D01*
%TO.C,RV2*%
X222552380Y-112355238D02*
X222076190Y-112688571D01*
X222552380Y-112926666D02*
X221552380Y-112926666D01*
X221552380Y-112926666D02*
X221552380Y-112545714D01*
X221552380Y-112545714D02*
X221600000Y-112450476D01*
X221600000Y-112450476D02*
X221647619Y-112402857D01*
X221647619Y-112402857D02*
X221742857Y-112355238D01*
X221742857Y-112355238D02*
X221885714Y-112355238D01*
X221885714Y-112355238D02*
X221980952Y-112402857D01*
X221980952Y-112402857D02*
X222028571Y-112450476D01*
X222028571Y-112450476D02*
X222076190Y-112545714D01*
X222076190Y-112545714D02*
X222076190Y-112926666D01*
X221552380Y-112069523D02*
X222552380Y-111736190D01*
X222552380Y-111736190D02*
X221552380Y-111402857D01*
X221647619Y-111117142D02*
X221600000Y-111069523D01*
X221600000Y-111069523D02*
X221552380Y-110974285D01*
X221552380Y-110974285D02*
X221552380Y-110736190D01*
X221552380Y-110736190D02*
X221600000Y-110640952D01*
X221600000Y-110640952D02*
X221647619Y-110593333D01*
X221647619Y-110593333D02*
X221742857Y-110545714D01*
X221742857Y-110545714D02*
X221838095Y-110545714D01*
X221838095Y-110545714D02*
X221980952Y-110593333D01*
X221980952Y-110593333D02*
X222552380Y-111164761D01*
X222552380Y-111164761D02*
X222552380Y-110545714D01*
%TO.C,M1*%
X35522380Y-165109523D02*
X34522380Y-165109523D01*
X34522380Y-165109523D02*
X35236666Y-164776190D01*
X35236666Y-164776190D02*
X34522380Y-164442857D01*
X34522380Y-164442857D02*
X35522380Y-164442857D01*
X35522380Y-163442857D02*
X35522380Y-164014285D01*
X35522380Y-163728571D02*
X34522380Y-163728571D01*
X34522380Y-163728571D02*
X34665238Y-163823809D01*
X34665238Y-163823809D02*
X34760476Y-163919047D01*
X34760476Y-163919047D02*
X34808095Y-164014285D01*
%TO.C,D1*%
X24537380Y-163298094D02*
X23537380Y-163298094D01*
X23537380Y-163298094D02*
X23537380Y-163059999D01*
X23537380Y-163059999D02*
X23585000Y-162917142D01*
X23585000Y-162917142D02*
X23680238Y-162821904D01*
X23680238Y-162821904D02*
X23775476Y-162774285D01*
X23775476Y-162774285D02*
X23965952Y-162726666D01*
X23965952Y-162726666D02*
X24108809Y-162726666D01*
X24108809Y-162726666D02*
X24299285Y-162774285D01*
X24299285Y-162774285D02*
X24394523Y-162821904D01*
X24394523Y-162821904D02*
X24489761Y-162917142D01*
X24489761Y-162917142D02*
X24537380Y-163059999D01*
X24537380Y-163059999D02*
X24537380Y-163298094D01*
X24537380Y-161774285D02*
X24537380Y-162345713D01*
X24537380Y-162059999D02*
X23537380Y-162059999D01*
X23537380Y-162059999D02*
X23680238Y-162155237D01*
X23680238Y-162155237D02*
X23775476Y-162250475D01*
X23775476Y-162250475D02*
X23823095Y-162345713D01*
X26007380Y-170441904D02*
X25007380Y-170441904D01*
X26007380Y-169870476D02*
X25435952Y-170299047D01*
X25007380Y-169870476D02*
X25578809Y-170441904D01*
%TO.C,J2*%
X82216666Y-159617380D02*
X82216666Y-160331666D01*
X82216666Y-160331666D02*
X82169047Y-160474523D01*
X82169047Y-160474523D02*
X82073809Y-160569761D01*
X82073809Y-160569761D02*
X81930952Y-160617380D01*
X81930952Y-160617380D02*
X81835714Y-160617380D01*
X82645238Y-159712619D02*
X82692857Y-159665000D01*
X82692857Y-159665000D02*
X82788095Y-159617380D01*
X82788095Y-159617380D02*
X83026190Y-159617380D01*
X83026190Y-159617380D02*
X83121428Y-159665000D01*
X83121428Y-159665000D02*
X83169047Y-159712619D01*
X83169047Y-159712619D02*
X83216666Y-159807857D01*
X83216666Y-159807857D02*
X83216666Y-159903095D01*
X83216666Y-159903095D02*
X83169047Y-160045952D01*
X83169047Y-160045952D02*
X82597619Y-160617380D01*
X82597619Y-160617380D02*
X83216666Y-160617380D01*
%TO.C,Q1*%
X32924761Y-126202619D02*
X32829523Y-126155000D01*
X32829523Y-126155000D02*
X32734285Y-126059761D01*
X32734285Y-126059761D02*
X32591428Y-125916904D01*
X32591428Y-125916904D02*
X32496190Y-125869285D01*
X32496190Y-125869285D02*
X32400952Y-125869285D01*
X32448571Y-126107380D02*
X32353333Y-126059761D01*
X32353333Y-126059761D02*
X32258095Y-125964523D01*
X32258095Y-125964523D02*
X32210476Y-125774047D01*
X32210476Y-125774047D02*
X32210476Y-125440714D01*
X32210476Y-125440714D02*
X32258095Y-125250238D01*
X32258095Y-125250238D02*
X32353333Y-125155000D01*
X32353333Y-125155000D02*
X32448571Y-125107380D01*
X32448571Y-125107380D02*
X32639047Y-125107380D01*
X32639047Y-125107380D02*
X32734285Y-125155000D01*
X32734285Y-125155000D02*
X32829523Y-125250238D01*
X32829523Y-125250238D02*
X32877142Y-125440714D01*
X32877142Y-125440714D02*
X32877142Y-125774047D01*
X32877142Y-125774047D02*
X32829523Y-125964523D01*
X32829523Y-125964523D02*
X32734285Y-126059761D01*
X32734285Y-126059761D02*
X32639047Y-126107380D01*
X32639047Y-126107380D02*
X32448571Y-126107380D01*
X33829523Y-126107380D02*
X33258095Y-126107380D01*
X33543809Y-126107380D02*
X33543809Y-125107380D01*
X33543809Y-125107380D02*
X33448571Y-125250238D01*
X33448571Y-125250238D02*
X33353333Y-125345476D01*
X33353333Y-125345476D02*
X33258095Y-125393095D01*
%TO.C,R1*%
X58253333Y-128197380D02*
X57920000Y-127721190D01*
X57681905Y-128197380D02*
X57681905Y-127197380D01*
X57681905Y-127197380D02*
X58062857Y-127197380D01*
X58062857Y-127197380D02*
X58158095Y-127245000D01*
X58158095Y-127245000D02*
X58205714Y-127292619D01*
X58205714Y-127292619D02*
X58253333Y-127387857D01*
X58253333Y-127387857D02*
X58253333Y-127530714D01*
X58253333Y-127530714D02*
X58205714Y-127625952D01*
X58205714Y-127625952D02*
X58158095Y-127673571D01*
X58158095Y-127673571D02*
X58062857Y-127721190D01*
X58062857Y-127721190D02*
X57681905Y-127721190D01*
X59205714Y-128197380D02*
X58634286Y-128197380D01*
X58920000Y-128197380D02*
X58920000Y-127197380D01*
X58920000Y-127197380D02*
X58824762Y-127340238D01*
X58824762Y-127340238D02*
X58729524Y-127435476D01*
X58729524Y-127435476D02*
X58634286Y-127483095D01*
%TO.C,J1*%
X133016666Y-159617380D02*
X133016666Y-160331666D01*
X133016666Y-160331666D02*
X132969047Y-160474523D01*
X132969047Y-160474523D02*
X132873809Y-160569761D01*
X132873809Y-160569761D02*
X132730952Y-160617380D01*
X132730952Y-160617380D02*
X132635714Y-160617380D01*
X134016666Y-160617380D02*
X133445238Y-160617380D01*
X133730952Y-160617380D02*
X133730952Y-159617380D01*
X133730952Y-159617380D02*
X133635714Y-159760238D01*
X133635714Y-159760238D02*
X133540476Y-159855476D01*
X133540476Y-159855476D02*
X133445238Y-159903095D01*
%TO.C,RV1*%
X111919761Y-185597380D02*
X111586428Y-185121190D01*
X111348333Y-185597380D02*
X111348333Y-184597380D01*
X111348333Y-184597380D02*
X111729285Y-184597380D01*
X111729285Y-184597380D02*
X111824523Y-184645000D01*
X111824523Y-184645000D02*
X111872142Y-184692619D01*
X111872142Y-184692619D02*
X111919761Y-184787857D01*
X111919761Y-184787857D02*
X111919761Y-184930714D01*
X111919761Y-184930714D02*
X111872142Y-185025952D01*
X111872142Y-185025952D02*
X111824523Y-185073571D01*
X111824523Y-185073571D02*
X111729285Y-185121190D01*
X111729285Y-185121190D02*
X111348333Y-185121190D01*
X112205476Y-184597380D02*
X112538809Y-185597380D01*
X112538809Y-185597380D02*
X112872142Y-184597380D01*
X113729285Y-185597380D02*
X113157857Y-185597380D01*
X113443571Y-185597380D02*
X113443571Y-184597380D01*
X113443571Y-184597380D02*
X113348333Y-184740238D01*
X113348333Y-184740238D02*
X113253095Y-184835476D01*
X113253095Y-184835476D02*
X113157857Y-184883095D01*
D11*
%TO.C,DS1*%
X194717500Y-32840000D02*
X150437500Y-32840000D01*
X194717500Y-32840000D02*
X194717500Y-155120000D01*
X177577500Y-34480000D02*
X177577500Y-41580000D01*
X167577500Y-34480000D02*
X177577500Y-34480000D01*
X179777500Y-35480000D02*
X177577500Y-35480000D01*
X165377500Y-35480000D02*
X167577500Y-35480000D01*
X179777500Y-37480000D02*
X179777500Y-35480000D01*
X177577500Y-37480000D02*
X179777500Y-37480000D01*
X167577500Y-37480000D02*
X165377500Y-37480000D01*
X165377500Y-37480000D02*
X165377500Y-35480000D01*
X188277500Y-41580000D02*
X188277500Y-145980000D01*
X167577500Y-41580000D02*
X167577500Y-34480000D01*
X152877500Y-41580000D02*
X188277500Y-41580000D01*
X159077500Y-43980000D02*
X182077500Y-43980000D01*
X183077500Y-44980000D02*
X183077500Y-142480000D01*
X195077500Y-103880000D02*
X195077500Y-107880000D01*
X158077500Y-142480000D02*
X158077500Y-44980000D01*
X182077500Y-143480000D02*
X159077500Y-143480000D01*
X188277500Y-145980000D02*
X152877500Y-145980000D01*
X152877500Y-145980000D02*
X152877500Y-41580000D01*
X194717500Y-155120000D02*
X150437500Y-155120000D01*
X150437500Y-155120000D02*
X150437500Y-32840000D01*
X183077500Y-44980000D02*
G75*
G03*
X182077500Y-43980000I-999999J1D01*
G01*
X159077500Y-43980000D02*
G75*
G03*
X158077500Y-44980000I-1J-999999D01*
G01*
X182077500Y-143480000D02*
G75*
G03*
X183077500Y-142480000I0J1000000D01*
G01*
X158077500Y-142480000D02*
G75*
G03*
X159077500Y-143480000I1000000J0D01*
G01*
%TO.C,RV2*%
X218594000Y-108390000D02*
X216775000Y-108390000D01*
X221056000Y-108926000D02*
X221056000Y-115130000D01*
X214315000Y-108926000D02*
X214315000Y-115130000D01*
X221056000Y-115130000D02*
X218925000Y-115130000D01*
X216445000Y-115130000D02*
X214315000Y-115130000D01*
%TO.C,M1*%
X36105000Y-166700000D02*
X36105000Y-165350000D01*
X36455000Y-166700000D02*
X36105000Y-166700000D01*
X43355000Y-166700000D02*
X36455000Y-166700000D01*
X43955000Y-166700000D02*
X43955000Y-165700000D01*
X47255000Y-166700000D02*
X43955000Y-166700000D01*
X43355000Y-165700000D02*
X43355000Y-166700000D01*
X43955000Y-165700000D02*
X43355000Y-165700000D01*
X36055000Y-165350000D02*
X36055000Y-163250000D01*
X36105000Y-165350000D02*
X36055000Y-165350000D01*
X36055000Y-163250000D02*
X36105000Y-163250000D01*
X36105000Y-163250000D02*
X36105000Y-161900000D01*
X43355000Y-162900000D02*
X43955000Y-162900000D01*
X43955000Y-162900000D02*
X43955000Y-161900000D01*
X36105000Y-161900000D02*
X36455000Y-161900000D01*
X36455000Y-161900000D02*
X43355000Y-161900000D01*
X43355000Y-161900000D02*
X43355000Y-162900000D01*
X43955000Y-161900000D02*
X47255000Y-161900000D01*
X47255000Y-161900000D02*
X47255000Y-166700000D01*
%TO.C,D1*%
X27940000Y-168640000D02*
X27940000Y-167180000D01*
X25170000Y-167180000D02*
X30710000Y-167180000D01*
X30710000Y-167180000D02*
X30710000Y-157940000D01*
X25170000Y-165830000D02*
X30710000Y-165830000D01*
X25170000Y-165710000D02*
X30710000Y-165710000D01*
X25170000Y-165590000D02*
X30710000Y-165590000D01*
X25170000Y-157940000D02*
X25170000Y-167180000D01*
X30710000Y-157940000D02*
X25170000Y-157940000D01*
X27940000Y-156480000D02*
X27940000Y-157940000D01*
%TO.C,J2*%
X85150000Y-158810000D02*
X85150000Y-95190000D01*
X85150000Y-158810000D02*
X82550000Y-158810000D01*
X85150000Y-95190000D02*
X79950000Y-95190000D01*
X82550000Y-158810000D02*
X82550000Y-156210000D01*
X82550000Y-156210000D02*
X79950000Y-156210000D01*
X81280000Y-158810000D02*
X79950000Y-158810000D01*
X79950000Y-158810000D02*
X79950000Y-157480000D01*
X79950000Y-156210000D02*
X79950000Y-95190000D01*
%TO.C,Q1*%
X31220000Y-131390000D02*
X34820000Y-131390000D01*
X32200000Y-127090001D02*
G75*
G03*
X31208548Y-131382155I820000J-2449999D01*
G01*
X34828445Y-131367684D02*
G75*
G03*
X33800000Y-127090000I-1808445J1827684D01*
G01*
%TO.C,R1*%
X69680000Y-124460000D02*
X64490000Y-124460000D01*
X64490000Y-126830000D02*
X64490000Y-122090000D01*
X64490000Y-122090000D02*
X52350000Y-122090000D01*
X52350000Y-126830000D02*
X64490000Y-126830000D01*
X52350000Y-122090000D02*
X52350000Y-126830000D01*
X47160000Y-124460000D02*
X52350000Y-124460000D01*
%TO.C,J1*%
X135950000Y-158810000D02*
X135950000Y-95190000D01*
X135950000Y-158810000D02*
X133350000Y-158810000D01*
X135950000Y-95190000D02*
X130750000Y-95190000D01*
X133350000Y-158810000D02*
X133350000Y-156210000D01*
X133350000Y-156210000D02*
X130750000Y-156210000D01*
X132080000Y-158810000D02*
X130750000Y-158810000D01*
X130750000Y-158810000D02*
X130750000Y-157480000D01*
X130750000Y-156210000D02*
X130750000Y-95190000D01*
%TO.C,RV1*%
X115885000Y-181639000D02*
X115885000Y-179820000D01*
X115349000Y-184101000D02*
X109145000Y-184101000D01*
X115349000Y-177360000D02*
X109145000Y-177360000D01*
X109145000Y-184101000D02*
X109145000Y-181970000D01*
X109145000Y-179490000D02*
X109145000Y-177360000D01*
%TD*%
M02*
