%TF.GenerationSoftware,KiCad,Pcbnew,(7.0.0)*%
%TF.CreationDate,2023-06-01T08:47:21-06:00*%
%TF.ProjectId,ENCE 3231 final project,454e4345-2033-4323-9331-2066696e616c,rev?*%
%TF.SameCoordinates,Original*%
%TF.FileFunction,Copper,L2,Bot*%
%TF.FilePolarity,Positive*%
%FSLAX46Y46*%
G04 Gerber Fmt 4.6, Leading zero omitted, Abs format (unit mm)*
G04 Created by KiCad (PCBNEW (7.0.0)) date 2023-06-01 08:47:21*
%MOMM*%
%LPD*%
G01*
G04 APERTURE LIST*
G04 Aperture macros list*
%AMRoundRect*
0 Rectangle with rounded corners*
0 $1 Rounding radius*
0 $2 $3 $4 $5 $6 $7 $8 $9 X,Y pos of 4 corners*
0 Add a 4 corners polygon primitive as box body*
4,1,4,$2,$3,$4,$5,$6,$7,$8,$9,$2,$3,0*
0 Add four circle primitives for the rounded corners*
1,1,$1+$1,$2,$3*
1,1,$1+$1,$4,$5*
1,1,$1+$1,$6,$7*
1,1,$1+$1,$8,$9*
0 Add four rect primitives between the rounded corners*
20,1,$1+$1,$2,$3,$4,$5,0*
20,1,$1+$1,$4,$5,$6,$7,0*
20,1,$1+$1,$6,$7,$8,$9,0*
20,1,$1+$1,$8,$9,$2,$3,0*%
G04 Aperture macros list end*
%TA.AperFunction,ComponentPad*%
%ADD10C,4.000000*%
%TD*%
%TA.AperFunction,ComponentPad*%
%ADD11R,2.600000X1.800000*%
%TD*%
%TA.AperFunction,ComponentPad*%
%ADD12O,2.600000X1.800000*%
%TD*%
%TA.AperFunction,ComponentPad*%
%ADD13R,2.600000X2.600000*%
%TD*%
%TA.AperFunction,ComponentPad*%
%ADD14O,2.600000X2.600000*%
%TD*%
%TA.AperFunction,ComponentPad*%
%ADD15R,1.700000X1.700000*%
%TD*%
%TA.AperFunction,ComponentPad*%
%ADD16O,1.700000X1.700000*%
%TD*%
%TA.AperFunction,ComponentPad*%
%ADD17R,1.100000X1.800000*%
%TD*%
%TA.AperFunction,ComponentPad*%
%ADD18RoundRect,0.275000X-0.275000X-0.625000X0.275000X-0.625000X0.275000X0.625000X-0.275000X0.625000X0*%
%TD*%
%TA.AperFunction,ComponentPad*%
%ADD19C,2.400000*%
%TD*%
%TA.AperFunction,ComponentPad*%
%ADD20O,2.400000X2.400000*%
%TD*%
%TA.AperFunction,ViaPad*%
%ADD21C,0.800000*%
%TD*%
%TA.AperFunction,Conductor*%
%ADD22C,0.250000*%
%TD*%
G04 APERTURE END LIST*
D10*
%TO.P,DS1,*%
%TO.N,*%
X191076740Y-36479580D03*
X154076560Y-36479580D03*
X191076740Y-151480620D03*
X154076560Y-151480620D03*
D11*
%TO.P,DS1,1,LEDK*%
%TO.N,GND*%
X192077499Y-105879999D03*
D12*
%TO.P,DS1,2,LEDA*%
%TO.N,3.3V*%
X192077499Y-108419999D03*
%TO.P,DS1,3,VSS*%
%TO.N,GND*%
X192077499Y-110959999D03*
%TO.P,DS1,4,VDD*%
%TO.N,5V*%
X192077499Y-113499999D03*
%TO.P,DS1,5,Vo*%
%TO.N,Net-(DS1-Vo)*%
X192077499Y-116039999D03*
%TO.P,DS1,6,RS*%
%TO.N,Rs*%
X192077499Y-118579999D03*
%TO.P,DS1,7,R/~{W}*%
%TO.N,GND*%
X192077499Y-121119999D03*
%TO.P,DS1,8,E*%
%TO.N,E*%
X192077499Y-123659999D03*
%TO.P,DS1,9,DB0*%
%TO.N,unconnected-(DS1-DB0-Pad9)*%
X192077499Y-126199999D03*
%TO.P,DS1,10,DB1*%
%TO.N,unconnected-(DS1-DB1-Pad10)*%
X192077499Y-128739999D03*
%TO.P,DS1,11,DB2*%
%TO.N,unconnected-(DS1-DB2-Pad11)*%
X192077499Y-131279999D03*
%TO.P,DS1,12,DB3*%
%TO.N,unconnected-(DS1-DB3-Pad12)*%
X192077499Y-133819999D03*
%TO.P,DS1,13,DB4*%
%TO.N,D4*%
X192077499Y-136359999D03*
%TO.P,DS1,14,DB5*%
%TO.N,D5*%
X192077499Y-138899999D03*
%TO.P,DS1,15,DB6*%
%TO.N,D6*%
X192077499Y-141439999D03*
%TO.P,DS1,16,DB7*%
%TO.N,D7*%
X192077499Y-143979999D03*
%TD*%
D13*
%TO.P,D1,1,A1*%
%TO.N,5V*%
X27939999Y-170179999D03*
D14*
%TO.P,D1,2,A2*%
%TO.N,Net-(D1-A2)*%
X27939999Y-154939999D03*
%TD*%
D15*
%TO.P,J2,1,Pin_1*%
%TO.N,GND*%
X81279999Y-157479999D03*
D16*
%TO.P,J2,2,Pin_2*%
X83819999Y-157479999D03*
%TO.P,J2,3,Pin_3*%
%TO.N,unconnected-(J2-Pin_3-Pad3)*%
X81279999Y-154939999D03*
%TO.P,J2,4,Pin_4*%
%TO.N,unconnected-(J2-Pin_4-Pad4)*%
X83819999Y-154939999D03*
%TO.P,J2,5,Pin_5*%
%TO.N,unconnected-(J2-Pin_5-Pad5)*%
X81279999Y-152399999D03*
%TO.P,J2,6,Pin_6*%
%TO.N,unconnected-(J2-Pin_6-Pad6)*%
X83819999Y-152399999D03*
%TO.P,J2,7,Pin_7*%
%TO.N,unconnected-(J2-Pin_7-Pad7)*%
X81279999Y-149859999D03*
%TO.P,J2,8,Pin_8*%
%TO.N,unconnected-(J2-Pin_8-Pad8)*%
X83819999Y-149859999D03*
%TO.P,J2,9,Pin_9*%
%TO.N,unconnected-(J2-Pin_9-Pad9)*%
X81279999Y-147319999D03*
%TO.P,J2,10,Pin_10*%
%TO.N,unconnected-(J2-Pin_10-Pad10)*%
X83819999Y-147319999D03*
%TO.P,J2,11,Pin_11*%
%TO.N,unconnected-(J2-Pin_11-Pad11)*%
X81279999Y-144779999D03*
%TO.P,J2,12,Pin_12*%
%TO.N,unconnected-(J2-Pin_12-Pad12)*%
X83819999Y-144779999D03*
%TO.P,J2,13,Pin_13*%
%TO.N,unconnected-(J2-Pin_13-Pad13)*%
X81279999Y-142239999D03*
%TO.P,J2,14,Pin_14*%
%TO.N,unconnected-(J2-Pin_14-Pad14)*%
X83819999Y-142239999D03*
%TO.P,J2,15,Pin_15*%
%TO.N,unconnected-(J2-Pin_15-Pad15)*%
X81279999Y-139699999D03*
%TO.P,J2,16,Pin_16*%
%TO.N,unconnected-(J2-Pin_16-Pad16)*%
X83819999Y-139699999D03*
%TO.P,J2,17,Pin_17*%
%TO.N,unconnected-(J2-Pin_17-Pad17)*%
X81279999Y-137159999D03*
%TO.P,J2,18,Pin_18*%
%TO.N,unconnected-(J2-Pin_18-Pad18)*%
X83819999Y-137159999D03*
%TO.P,J2,19,Pin_19*%
%TO.N,unconnected-(J2-Pin_19-Pad19)*%
X81279999Y-134619999D03*
%TO.P,J2,20,Pin_20*%
%TO.N,unconnected-(J2-Pin_20-Pad20)*%
X83819999Y-134619999D03*
%TO.P,J2,21,Pin_21*%
%TO.N,unconnected-(J2-Pin_21-Pad21)*%
X81279999Y-132079999D03*
%TO.P,J2,22,Pin_22*%
%TO.N,unconnected-(J2-Pin_22-Pad22)*%
X83819999Y-132079999D03*
%TO.P,J2,23,Pin_23*%
%TO.N,unconnected-(J2-Pin_23-Pad23)*%
X81279999Y-129539999D03*
%TO.P,J2,24,Pin_24*%
%TO.N,unconnected-(J2-Pin_24-Pad24)*%
X83819999Y-129539999D03*
%TO.P,J2,25,Pin_25*%
%TO.N,unconnected-(J2-Pin_25-Pad25)*%
X81279999Y-126999999D03*
%TO.P,J2,26,Pin_26*%
%TO.N,unconnected-(J2-Pin_26-Pad26)*%
X83819999Y-126999999D03*
%TO.P,J2,27,Pin_27*%
%TO.N,unconnected-(J2-Pin_27-Pad27)*%
X81279999Y-124459999D03*
%TO.P,J2,28,Pin_28*%
%TO.N,Motor_PWM*%
X83819999Y-124459999D03*
%TO.P,J2,29,Pin_29*%
%TO.N,unconnected-(J2-Pin_29-Pad29)*%
X81279999Y-121919999D03*
%TO.P,J2,30,Pin_30*%
%TO.N,unconnected-(J2-Pin_30-Pad30)*%
X83819999Y-121919999D03*
%TO.P,J2,31,Pin_31*%
%TO.N,unconnected-(J2-Pin_31-Pad31)*%
X81279999Y-119379999D03*
%TO.P,J2,32,Pin_32*%
%TO.N,unconnected-(J2-Pin_32-Pad32)*%
X83819999Y-119379999D03*
%TO.P,J2,33,Pin_33*%
%TO.N,unconnected-(J2-Pin_33-Pad33)*%
X81279999Y-116839999D03*
%TO.P,J2,34,Pin_34*%
%TO.N,unconnected-(J2-Pin_34-Pad34)*%
X83819999Y-116839999D03*
%TO.P,J2,35,Pin_35*%
%TO.N,unconnected-(J2-Pin_35-Pad35)*%
X81279999Y-114299999D03*
%TO.P,J2,36,Pin_36*%
%TO.N,unconnected-(J2-Pin_36-Pad36)*%
X83819999Y-114299999D03*
%TO.P,J2,37,Pin_37*%
%TO.N,unconnected-(J2-Pin_37-Pad37)*%
X81279999Y-111759999D03*
%TO.P,J2,38,Pin_38*%
%TO.N,unconnected-(J2-Pin_38-Pad38)*%
X83819999Y-111759999D03*
%TO.P,J2,39,Pin_39*%
%TO.N,unconnected-(J2-Pin_39-Pad39)*%
X81279999Y-109219999D03*
%TO.P,J2,40,Pin_40*%
%TO.N,unconnected-(J2-Pin_40-Pad40)*%
X83819999Y-109219999D03*
%TO.P,J2,41,Pin_41*%
%TO.N,unconnected-(J2-Pin_41-Pad41)*%
X81279999Y-106679999D03*
%TO.P,J2,42,Pin_42*%
%TO.N,unconnected-(J2-Pin_42-Pad42)*%
X83819999Y-106679999D03*
%TO.P,J2,43,Pin_43*%
%TO.N,unconnected-(J2-Pin_43-Pad43)*%
X81279999Y-104139999D03*
%TO.P,J2,44,Pin_44*%
%TO.N,unconnected-(J2-Pin_44-Pad44)*%
X83819999Y-104139999D03*
%TO.P,J2,45,Pin_45*%
%TO.N,unconnected-(J2-Pin_45-Pad45)*%
X81279999Y-101599999D03*
%TO.P,J2,46,Pin_46*%
%TO.N,unconnected-(J2-Pin_46-Pad46)*%
X83819999Y-101599999D03*
%TO.P,J2,47,Pin_47*%
%TO.N,unconnected-(J2-Pin_47-Pad47)*%
X81279999Y-99059999D03*
%TO.P,J2,48,Pin_48*%
%TO.N,unconnected-(J2-Pin_48-Pad48)*%
X83819999Y-99059999D03*
%TO.P,J2,49,Pin_49*%
%TO.N,GND*%
X81279999Y-96519999D03*
%TO.P,J2,50,Pin_50*%
X83819999Y-96519999D03*
%TD*%
D17*
%TO.P,Q1,1,C*%
%TO.N,Net-(D1-A2)*%
X31749999Y-129939999D03*
D18*
%TO.P,Q1,2,B*%
%TO.N,Net-(Q1-B)*%
X33020000Y-127870000D03*
%TO.P,Q1,3,E*%
%TO.N,GND*%
X34290000Y-129940000D03*
%TD*%
D19*
%TO.P,R1,1*%
%TO.N,Motor_PWM*%
X71120000Y-124460000D03*
D20*
%TO.P,R1,2*%
%TO.N,Net-(Q1-B)*%
X45719999Y-124459999D03*
%TD*%
D15*
%TO.P,J1,1,Pin_1*%
%TO.N,GND*%
X132079999Y-157479999D03*
D16*
%TO.P,J1,2,Pin_2*%
X134619999Y-157479999D03*
%TO.P,J1,3,Pin_3*%
%TO.N,5V*%
X132079999Y-154939999D03*
%TO.P,J1,4,Pin_4*%
X134619999Y-154939999D03*
%TO.P,J1,5,Pin_5*%
%TO.N,3.3V*%
X132079999Y-152399999D03*
%TO.P,J1,6,Pin_6*%
%TO.N,unconnected-(J1-Pin_6-Pad6)*%
X134619999Y-152399999D03*
%TO.P,J1,7,Pin_7*%
%TO.N,unconnected-(J1-Pin_7-Pad7)*%
X132079999Y-149859999D03*
%TO.P,J1,8,Pin_8*%
%TO.N,unconnected-(J1-Pin_8-Pad8)*%
X134619999Y-149859999D03*
%TO.P,J1,9,Pin_9*%
%TO.N,unconnected-(J1-Pin_9-Pad9)*%
X132079999Y-147319999D03*
%TO.P,J1,10,Pin_10*%
%TO.N,unconnected-(J1-Pin_10-Pad10)*%
X134619999Y-147319999D03*
%TO.P,J1,11,Pin_11*%
%TO.N,unconnected-(J1-Pin_11-Pad11)*%
X132079999Y-144779999D03*
%TO.P,J1,12,Pin_12*%
%TO.N,unconnected-(J1-Pin_12-Pad12)*%
X134619999Y-144779999D03*
%TO.P,J1,13,Pin_13*%
%TO.N,unconnected-(J1-Pin_13-Pad13)*%
X132079999Y-142239999D03*
%TO.P,J1,14,Pin_14*%
%TO.N,unconnected-(J1-Pin_14-Pad14)*%
X134619999Y-142239999D03*
%TO.P,J1,15,Pin_15*%
%TO.N,unconnected-(J1-Pin_15-Pad15)*%
X132079999Y-139699999D03*
%TO.P,J1,16,Pin_16*%
%TO.N,unconnected-(J1-Pin_16-Pad16)*%
X134619999Y-139699999D03*
%TO.P,J1,17,Pin_17*%
%TO.N,unconnected-(J1-Pin_17-Pad17)*%
X132079999Y-137159999D03*
%TO.P,J1,18,Pin_18*%
%TO.N,unconnected-(J1-Pin_18-Pad18)*%
X134619999Y-137159999D03*
%TO.P,J1,19,Pin_19*%
%TO.N,unconnected-(J1-Pin_19-Pad19)*%
X132079999Y-134619999D03*
%TO.P,J1,20,Pin_20*%
%TO.N,unconnected-(J1-Pin_20-Pad20)*%
X134619999Y-134619999D03*
%TO.P,J1,21,Pin_21*%
%TO.N,unconnected-(J1-Pin_21-Pad21)*%
X132079999Y-132079999D03*
%TO.P,J1,22,Pin_22*%
%TO.N,unconnected-(J1-Pin_22-Pad22)*%
X134619999Y-132079999D03*
%TO.P,J1,23,Pin_23*%
%TO.N,unconnected-(J1-Pin_23-Pad23)*%
X132079999Y-129539999D03*
%TO.P,J1,24,Pin_24*%
%TO.N,unconnected-(J1-Pin_24-Pad24)*%
X134619999Y-129539999D03*
%TO.P,J1,25,Pin_25*%
%TO.N,unconnected-(J1-Pin_25-Pad25)*%
X132079999Y-126999999D03*
%TO.P,J1,26,Pin_26*%
%TO.N,unconnected-(J1-Pin_26-Pad26)*%
X134619999Y-126999999D03*
%TO.P,J1,27,Pin_27*%
%TO.N,unconnected-(J1-Pin_27-Pad27)*%
X132079999Y-124459999D03*
%TO.P,J1,28,Pin_28*%
%TO.N,Input_Signal*%
X134619999Y-124459999D03*
%TO.P,J1,29,Pin_29*%
%TO.N,unconnected-(J1-Pin_29-Pad29)*%
X132079999Y-121919999D03*
%TO.P,J1,30,Pin_30*%
%TO.N,unconnected-(J1-Pin_30-Pad30)*%
X134619999Y-121919999D03*
%TO.P,J1,31,Pin_31*%
%TO.N,unconnected-(J1-Pin_31-Pad31)*%
X132079999Y-119379999D03*
%TO.P,J1,32,Pin_32*%
%TO.N,unconnected-(J1-Pin_32-Pad32)*%
X134619999Y-119379999D03*
%TO.P,J1,33,Pin_33*%
%TO.N,unconnected-(J1-Pin_33-Pad33)*%
X132079999Y-116839999D03*
%TO.P,J1,34,Pin_34*%
%TO.N,unconnected-(J1-Pin_34-Pad34)*%
X134619999Y-116839999D03*
%TO.P,J1,35,Pin_35*%
%TO.N,unconnected-(J1-Pin_35-Pad35)*%
X132079999Y-114299999D03*
%TO.P,J1,36,Pin_36*%
%TO.N,unconnected-(J1-Pin_36-Pad36)*%
X134619999Y-114299999D03*
%TO.P,J1,37,Pin_37*%
%TO.N,unconnected-(J1-Pin_37-Pad37)*%
X132079999Y-111759999D03*
%TO.P,J1,38,Pin_38*%
%TO.N,unconnected-(J1-Pin_38-Pad38)*%
X134619999Y-111759999D03*
%TO.P,J1,39,Pin_39*%
%TO.N,D7*%
X132079999Y-109219999D03*
%TO.P,J1,40,Pin_40*%
%TO.N,D6*%
X134619999Y-109219999D03*
%TO.P,J1,41,Pin_41*%
%TO.N,D5*%
X132079999Y-106679999D03*
%TO.P,J1,42,Pin_42*%
%TO.N,E*%
X134619999Y-106679999D03*
%TO.P,J1,43,Pin_43*%
%TO.N,D4*%
X132079999Y-104139999D03*
%TO.P,J1,44,Pin_44*%
%TO.N,Rs*%
X134619999Y-104139999D03*
%TO.P,J1,45,Pin_45*%
%TO.N,unconnected-(J1-Pin_45-Pad45)*%
X132079999Y-101599999D03*
%TO.P,J1,46,Pin_46*%
%TO.N,unconnected-(J1-Pin_46-Pad46)*%
X134619999Y-101599999D03*
%TO.P,J1,47,Pin_47*%
%TO.N,unconnected-(J1-Pin_47-Pad47)*%
X132079999Y-99059999D03*
%TO.P,J1,48,Pin_48*%
%TO.N,unconnected-(J1-Pin_48-Pad48)*%
X134619999Y-99059999D03*
%TO.P,J1,49,Pin_49*%
%TO.N,GND*%
X132079999Y-96519999D03*
%TO.P,J1,50,Pin_50*%
X134619999Y-96519999D03*
%TD*%
D21*
%TO.N,GND*%
X187960000Y-154940000D03*
X187960000Y-121920000D03*
%TO.N,E*%
X200660000Y-121920000D03*
X200660000Y-101600000D03*
%TO.N,5V*%
X185420000Y-114300000D03*
X185420000Y-149860000D03*
%TO.N,3.3V*%
X147320000Y-142240000D03*
X177800000Y-116840000D03*
%TD*%
D22*
%TO.N,GND*%
X187960000Y-121920000D02*
X187960000Y-154940000D01*
%TO.N,E*%
X200660000Y-101600000D02*
X200660000Y-121920000D01*
%TO.N,5V*%
X185420000Y-114300000D02*
X185420000Y-149860000D01*
%TO.N,3.3V*%
X147320000Y-142240000D02*
X172720000Y-116840000D01*
X172720000Y-116840000D02*
X177800000Y-116840000D01*
%TD*%
M02*
