%TF.GenerationSoftware,KiCad,Pcbnew,(7.0.0)*%
%TF.CreationDate,2023-05-03T15:36:06-06:00*%
%TF.ProjectId,Phase_B_ATMEGA_v3,50686173-655f-4425-9f41-544d4547415f,rev?*%
%TF.SameCoordinates,Original*%
%TF.FileFunction,Legend,Top*%
%TF.FilePolarity,Positive*%
%FSLAX46Y46*%
G04 Gerber Fmt 4.6, Leading zero omitted, Abs format (unit mm)*
G04 Created by KiCad (PCBNEW (7.0.0)) date 2023-05-03 15:36:06*
%MOMM*%
%LPD*%
G01*
G04 APERTURE LIST*
%ADD10C,0.150000*%
%ADD11C,0.254000*%
%ADD12C,0.120000*%
%ADD13C,0.100000*%
%ADD14C,0.200000*%
%ADD15C,0.127000*%
G04 APERTURE END LIST*
D10*
X153209523Y-91127142D02*
X153161904Y-91174761D01*
X153161904Y-91174761D02*
X153019047Y-91222380D01*
X153019047Y-91222380D02*
X152923809Y-91222380D01*
X152923809Y-91222380D02*
X152780952Y-91174761D01*
X152780952Y-91174761D02*
X152685714Y-91079523D01*
X152685714Y-91079523D02*
X152638095Y-90984285D01*
X152638095Y-90984285D02*
X152590476Y-90793809D01*
X152590476Y-90793809D02*
X152590476Y-90650952D01*
X152590476Y-90650952D02*
X152638095Y-90460476D01*
X152638095Y-90460476D02*
X152685714Y-90365238D01*
X152685714Y-90365238D02*
X152780952Y-90270000D01*
X152780952Y-90270000D02*
X152923809Y-90222380D01*
X152923809Y-90222380D02*
X153019047Y-90222380D01*
X153019047Y-90222380D02*
X153161904Y-90270000D01*
X153161904Y-90270000D02*
X153209523Y-90317619D01*
X153780952Y-91222380D02*
X153685714Y-91174761D01*
X153685714Y-91174761D02*
X153638095Y-91127142D01*
X153638095Y-91127142D02*
X153590476Y-91031904D01*
X153590476Y-91031904D02*
X153590476Y-90746190D01*
X153590476Y-90746190D02*
X153638095Y-90650952D01*
X153638095Y-90650952D02*
X153685714Y-90603333D01*
X153685714Y-90603333D02*
X153780952Y-90555714D01*
X153780952Y-90555714D02*
X153923809Y-90555714D01*
X153923809Y-90555714D02*
X154019047Y-90603333D01*
X154019047Y-90603333D02*
X154066666Y-90650952D01*
X154066666Y-90650952D02*
X154114285Y-90746190D01*
X154114285Y-90746190D02*
X154114285Y-91031904D01*
X154114285Y-91031904D02*
X154066666Y-91127142D01*
X154066666Y-91127142D02*
X154019047Y-91174761D01*
X154019047Y-91174761D02*
X153923809Y-91222380D01*
X153923809Y-91222380D02*
X153780952Y-91222380D01*
X154685714Y-91222380D02*
X154590476Y-91174761D01*
X154590476Y-91174761D02*
X154542857Y-91079523D01*
X154542857Y-91079523D02*
X154542857Y-90222380D01*
X155447619Y-91174761D02*
X155352381Y-91222380D01*
X155352381Y-91222380D02*
X155161905Y-91222380D01*
X155161905Y-91222380D02*
X155066667Y-91174761D01*
X155066667Y-91174761D02*
X155019048Y-91079523D01*
X155019048Y-91079523D02*
X155019048Y-90698571D01*
X155019048Y-90698571D02*
X155066667Y-90603333D01*
X155066667Y-90603333D02*
X155161905Y-90555714D01*
X155161905Y-90555714D02*
X155352381Y-90555714D01*
X155352381Y-90555714D02*
X155447619Y-90603333D01*
X155447619Y-90603333D02*
X155495238Y-90698571D01*
X155495238Y-90698571D02*
X155495238Y-90793809D01*
X155495238Y-90793809D02*
X155019048Y-90889047D01*
X156476191Y-91174761D02*
X156619048Y-91222380D01*
X156619048Y-91222380D02*
X156857143Y-91222380D01*
X156857143Y-91222380D02*
X156952381Y-91174761D01*
X156952381Y-91174761D02*
X157000000Y-91127142D01*
X157000000Y-91127142D02*
X157047619Y-91031904D01*
X157047619Y-91031904D02*
X157047619Y-90936666D01*
X157047619Y-90936666D02*
X157000000Y-90841428D01*
X157000000Y-90841428D02*
X156952381Y-90793809D01*
X156952381Y-90793809D02*
X156857143Y-90746190D01*
X156857143Y-90746190D02*
X156666667Y-90698571D01*
X156666667Y-90698571D02*
X156571429Y-90650952D01*
X156571429Y-90650952D02*
X156523810Y-90603333D01*
X156523810Y-90603333D02*
X156476191Y-90508095D01*
X156476191Y-90508095D02*
X156476191Y-90412857D01*
X156476191Y-90412857D02*
X156523810Y-90317619D01*
X156523810Y-90317619D02*
X156571429Y-90270000D01*
X156571429Y-90270000D02*
X156666667Y-90222380D01*
X156666667Y-90222380D02*
X156904762Y-90222380D01*
X156904762Y-90222380D02*
X157047619Y-90270000D01*
X157904762Y-91174761D02*
X157809524Y-91222380D01*
X157809524Y-91222380D02*
X157619048Y-91222380D01*
X157619048Y-91222380D02*
X157523810Y-91174761D01*
X157523810Y-91174761D02*
X157476191Y-91127142D01*
X157476191Y-91127142D02*
X157428572Y-91031904D01*
X157428572Y-91031904D02*
X157428572Y-90746190D01*
X157428572Y-90746190D02*
X157476191Y-90650952D01*
X157476191Y-90650952D02*
X157523810Y-90603333D01*
X157523810Y-90603333D02*
X157619048Y-90555714D01*
X157619048Y-90555714D02*
X157809524Y-90555714D01*
X157809524Y-90555714D02*
X157904762Y-90603333D01*
X158333334Y-91222380D02*
X158333334Y-90222380D01*
X158761905Y-91222380D02*
X158761905Y-90698571D01*
X158761905Y-90698571D02*
X158714286Y-90603333D01*
X158714286Y-90603333D02*
X158619048Y-90555714D01*
X158619048Y-90555714D02*
X158476191Y-90555714D01*
X158476191Y-90555714D02*
X158380953Y-90603333D01*
X158380953Y-90603333D02*
X158333334Y-90650952D01*
X159142858Y-90555714D02*
X159333334Y-91222380D01*
X159333334Y-91222380D02*
X159523810Y-90746190D01*
X159523810Y-90746190D02*
X159714286Y-91222380D01*
X159714286Y-91222380D02*
X159904762Y-90555714D01*
X160666667Y-91174761D02*
X160571429Y-91222380D01*
X160571429Y-91222380D02*
X160380953Y-91222380D01*
X160380953Y-91222380D02*
X160285715Y-91174761D01*
X160285715Y-91174761D02*
X160238096Y-91079523D01*
X160238096Y-91079523D02*
X160238096Y-90698571D01*
X160238096Y-90698571D02*
X160285715Y-90603333D01*
X160285715Y-90603333D02*
X160380953Y-90555714D01*
X160380953Y-90555714D02*
X160571429Y-90555714D01*
X160571429Y-90555714D02*
X160666667Y-90603333D01*
X160666667Y-90603333D02*
X160714286Y-90698571D01*
X160714286Y-90698571D02*
X160714286Y-90793809D01*
X160714286Y-90793809D02*
X160238096Y-90889047D01*
X161142858Y-91222380D02*
X161142858Y-90555714D01*
X161142858Y-90222380D02*
X161095239Y-90270000D01*
X161095239Y-90270000D02*
X161142858Y-90317619D01*
X161142858Y-90317619D02*
X161190477Y-90270000D01*
X161190477Y-90270000D02*
X161142858Y-90222380D01*
X161142858Y-90222380D02*
X161142858Y-90317619D01*
X161523810Y-90555714D02*
X162047619Y-90555714D01*
X162047619Y-90555714D02*
X161523810Y-91222380D01*
X161523810Y-91222380D02*
X162047619Y-91222380D01*
X162809524Y-91174761D02*
X162714286Y-91222380D01*
X162714286Y-91222380D02*
X162523810Y-91222380D01*
X162523810Y-91222380D02*
X162428572Y-91174761D01*
X162428572Y-91174761D02*
X162380953Y-91079523D01*
X162380953Y-91079523D02*
X162380953Y-90698571D01*
X162380953Y-90698571D02*
X162428572Y-90603333D01*
X162428572Y-90603333D02*
X162523810Y-90555714D01*
X162523810Y-90555714D02*
X162714286Y-90555714D01*
X162714286Y-90555714D02*
X162809524Y-90603333D01*
X162809524Y-90603333D02*
X162857143Y-90698571D01*
X162857143Y-90698571D02*
X162857143Y-90793809D01*
X162857143Y-90793809D02*
X162380953Y-90889047D01*
X163285715Y-91222380D02*
X163285715Y-90555714D01*
X163285715Y-90746190D02*
X163333334Y-90650952D01*
X163333334Y-90650952D02*
X163380953Y-90603333D01*
X163380953Y-90603333D02*
X163476191Y-90555714D01*
X163476191Y-90555714D02*
X163571429Y-90555714D01*
X164361906Y-90222380D02*
X164695239Y-91222380D01*
X164695239Y-91222380D02*
X165028572Y-90222380D01*
X165885715Y-91222380D02*
X165314287Y-91222380D01*
X165600001Y-91222380D02*
X165600001Y-90222380D01*
X165600001Y-90222380D02*
X165504763Y-90365238D01*
X165504763Y-90365238D02*
X165409525Y-90460476D01*
X165409525Y-90460476D02*
X165314287Y-90508095D01*
X167342858Y-90555714D02*
X167342858Y-91222380D01*
X167104763Y-90174761D02*
X166866668Y-90889047D01*
X166866668Y-90889047D02*
X167485715Y-90889047D01*
X168580953Y-90174761D02*
X167723811Y-91460476D01*
X168866668Y-90317619D02*
X168914287Y-90270000D01*
X168914287Y-90270000D02*
X169009525Y-90222380D01*
X169009525Y-90222380D02*
X169247620Y-90222380D01*
X169247620Y-90222380D02*
X169342858Y-90270000D01*
X169342858Y-90270000D02*
X169390477Y-90317619D01*
X169390477Y-90317619D02*
X169438096Y-90412857D01*
X169438096Y-90412857D02*
X169438096Y-90508095D01*
X169438096Y-90508095D02*
X169390477Y-90650952D01*
X169390477Y-90650952D02*
X168819049Y-91222380D01*
X168819049Y-91222380D02*
X169438096Y-91222380D01*
X170057144Y-90222380D02*
X170152382Y-90222380D01*
X170152382Y-90222380D02*
X170247620Y-90270000D01*
X170247620Y-90270000D02*
X170295239Y-90317619D01*
X170295239Y-90317619D02*
X170342858Y-90412857D01*
X170342858Y-90412857D02*
X170390477Y-90603333D01*
X170390477Y-90603333D02*
X170390477Y-90841428D01*
X170390477Y-90841428D02*
X170342858Y-91031904D01*
X170342858Y-91031904D02*
X170295239Y-91127142D01*
X170295239Y-91127142D02*
X170247620Y-91174761D01*
X170247620Y-91174761D02*
X170152382Y-91222380D01*
X170152382Y-91222380D02*
X170057144Y-91222380D01*
X170057144Y-91222380D02*
X169961906Y-91174761D01*
X169961906Y-91174761D02*
X169914287Y-91127142D01*
X169914287Y-91127142D02*
X169866668Y-91031904D01*
X169866668Y-91031904D02*
X169819049Y-90841428D01*
X169819049Y-90841428D02*
X169819049Y-90603333D01*
X169819049Y-90603333D02*
X169866668Y-90412857D01*
X169866668Y-90412857D02*
X169914287Y-90317619D01*
X169914287Y-90317619D02*
X169961906Y-90270000D01*
X169961906Y-90270000D02*
X170057144Y-90222380D01*
X171533334Y-90174761D02*
X170676192Y-91460476D01*
X171819049Y-90317619D02*
X171866668Y-90270000D01*
X171866668Y-90270000D02*
X171961906Y-90222380D01*
X171961906Y-90222380D02*
X172200001Y-90222380D01*
X172200001Y-90222380D02*
X172295239Y-90270000D01*
X172295239Y-90270000D02*
X172342858Y-90317619D01*
X172342858Y-90317619D02*
X172390477Y-90412857D01*
X172390477Y-90412857D02*
X172390477Y-90508095D01*
X172390477Y-90508095D02*
X172342858Y-90650952D01*
X172342858Y-90650952D02*
X171771430Y-91222380D01*
X171771430Y-91222380D02*
X172390477Y-91222380D01*
X172723811Y-90222380D02*
X173342858Y-90222380D01*
X173342858Y-90222380D02*
X173009525Y-90603333D01*
X173009525Y-90603333D02*
X173152382Y-90603333D01*
X173152382Y-90603333D02*
X173247620Y-90650952D01*
X173247620Y-90650952D02*
X173295239Y-90698571D01*
X173295239Y-90698571D02*
X173342858Y-90793809D01*
X173342858Y-90793809D02*
X173342858Y-91031904D01*
X173342858Y-91031904D02*
X173295239Y-91127142D01*
X173295239Y-91127142D02*
X173247620Y-91174761D01*
X173247620Y-91174761D02*
X173152382Y-91222380D01*
X173152382Y-91222380D02*
X172866668Y-91222380D01*
X172866668Y-91222380D02*
X172771430Y-91174761D01*
X172771430Y-91174761D02*
X172723811Y-91127142D01*
%TO.C,R17*%
X101465142Y-136765380D02*
X101131809Y-136289190D01*
X100893714Y-136765380D02*
X100893714Y-135765380D01*
X100893714Y-135765380D02*
X101274666Y-135765380D01*
X101274666Y-135765380D02*
X101369904Y-135813000D01*
X101369904Y-135813000D02*
X101417523Y-135860619D01*
X101417523Y-135860619D02*
X101465142Y-135955857D01*
X101465142Y-135955857D02*
X101465142Y-136098714D01*
X101465142Y-136098714D02*
X101417523Y-136193952D01*
X101417523Y-136193952D02*
X101369904Y-136241571D01*
X101369904Y-136241571D02*
X101274666Y-136289190D01*
X101274666Y-136289190D02*
X100893714Y-136289190D01*
X102417523Y-136765380D02*
X101846095Y-136765380D01*
X102131809Y-136765380D02*
X102131809Y-135765380D01*
X102131809Y-135765380D02*
X102036571Y-135908238D01*
X102036571Y-135908238D02*
X101941333Y-136003476D01*
X101941333Y-136003476D02*
X101846095Y-136051095D01*
X102750857Y-135765380D02*
X103417523Y-135765380D01*
X103417523Y-135765380D02*
X102988952Y-136765380D01*
%TO.C,R13*%
X119537142Y-141805380D02*
X119203809Y-141329190D01*
X118965714Y-141805380D02*
X118965714Y-140805380D01*
X118965714Y-140805380D02*
X119346666Y-140805380D01*
X119346666Y-140805380D02*
X119441904Y-140853000D01*
X119441904Y-140853000D02*
X119489523Y-140900619D01*
X119489523Y-140900619D02*
X119537142Y-140995857D01*
X119537142Y-140995857D02*
X119537142Y-141138714D01*
X119537142Y-141138714D02*
X119489523Y-141233952D01*
X119489523Y-141233952D02*
X119441904Y-141281571D01*
X119441904Y-141281571D02*
X119346666Y-141329190D01*
X119346666Y-141329190D02*
X118965714Y-141329190D01*
X120489523Y-141805380D02*
X119918095Y-141805380D01*
X120203809Y-141805380D02*
X120203809Y-140805380D01*
X120203809Y-140805380D02*
X120108571Y-140948238D01*
X120108571Y-140948238D02*
X120013333Y-141043476D01*
X120013333Y-141043476D02*
X119918095Y-141091095D01*
X120822857Y-140805380D02*
X121441904Y-140805380D01*
X121441904Y-140805380D02*
X121108571Y-141186333D01*
X121108571Y-141186333D02*
X121251428Y-141186333D01*
X121251428Y-141186333D02*
X121346666Y-141233952D01*
X121346666Y-141233952D02*
X121394285Y-141281571D01*
X121394285Y-141281571D02*
X121441904Y-141376809D01*
X121441904Y-141376809D02*
X121441904Y-141614904D01*
X121441904Y-141614904D02*
X121394285Y-141710142D01*
X121394285Y-141710142D02*
X121346666Y-141757761D01*
X121346666Y-141757761D02*
X121251428Y-141805380D01*
X121251428Y-141805380D02*
X120965714Y-141805380D01*
X120965714Y-141805380D02*
X120870476Y-141757761D01*
X120870476Y-141757761D02*
X120822857Y-141710142D01*
%TO.C,C12*%
X136454142Y-118458857D02*
X136501761Y-118506476D01*
X136501761Y-118506476D02*
X136549380Y-118649333D01*
X136549380Y-118649333D02*
X136549380Y-118744571D01*
X136549380Y-118744571D02*
X136501761Y-118887428D01*
X136501761Y-118887428D02*
X136406523Y-118982666D01*
X136406523Y-118982666D02*
X136311285Y-119030285D01*
X136311285Y-119030285D02*
X136120809Y-119077904D01*
X136120809Y-119077904D02*
X135977952Y-119077904D01*
X135977952Y-119077904D02*
X135787476Y-119030285D01*
X135787476Y-119030285D02*
X135692238Y-118982666D01*
X135692238Y-118982666D02*
X135597000Y-118887428D01*
X135597000Y-118887428D02*
X135549380Y-118744571D01*
X135549380Y-118744571D02*
X135549380Y-118649333D01*
X135549380Y-118649333D02*
X135597000Y-118506476D01*
X135597000Y-118506476D02*
X135644619Y-118458857D01*
X136549380Y-117506476D02*
X136549380Y-118077904D01*
X136549380Y-117792190D02*
X135549380Y-117792190D01*
X135549380Y-117792190D02*
X135692238Y-117887428D01*
X135692238Y-117887428D02*
X135787476Y-117982666D01*
X135787476Y-117982666D02*
X135835095Y-118077904D01*
X135644619Y-117125523D02*
X135597000Y-117077904D01*
X135597000Y-117077904D02*
X135549380Y-116982666D01*
X135549380Y-116982666D02*
X135549380Y-116744571D01*
X135549380Y-116744571D02*
X135597000Y-116649333D01*
X135597000Y-116649333D02*
X135644619Y-116601714D01*
X135644619Y-116601714D02*
X135739857Y-116554095D01*
X135739857Y-116554095D02*
X135835095Y-116554095D01*
X135835095Y-116554095D02*
X135977952Y-116601714D01*
X135977952Y-116601714D02*
X136549380Y-117173142D01*
X136549380Y-117173142D02*
X136549380Y-116554095D01*
%TO.C,REF\u002A\u002A*%
X97726666Y-108127380D02*
X97393333Y-107651190D01*
X97155238Y-108127380D02*
X97155238Y-107127380D01*
X97155238Y-107127380D02*
X97536190Y-107127380D01*
X97536190Y-107127380D02*
X97631428Y-107175000D01*
X97631428Y-107175000D02*
X97679047Y-107222619D01*
X97679047Y-107222619D02*
X97726666Y-107317857D01*
X97726666Y-107317857D02*
X97726666Y-107460714D01*
X97726666Y-107460714D02*
X97679047Y-107555952D01*
X97679047Y-107555952D02*
X97631428Y-107603571D01*
X97631428Y-107603571D02*
X97536190Y-107651190D01*
X97536190Y-107651190D02*
X97155238Y-107651190D01*
X98155238Y-107603571D02*
X98488571Y-107603571D01*
X98631428Y-108127380D02*
X98155238Y-108127380D01*
X98155238Y-108127380D02*
X98155238Y-107127380D01*
X98155238Y-107127380D02*
X98631428Y-107127380D01*
X99393333Y-107603571D02*
X99060000Y-107603571D01*
X99060000Y-108127380D02*
X99060000Y-107127380D01*
X99060000Y-107127380D02*
X99536190Y-107127380D01*
X100060000Y-107127380D02*
X100060000Y-107365476D01*
X99821905Y-107270238D02*
X100060000Y-107365476D01*
X100060000Y-107365476D02*
X100298095Y-107270238D01*
X99917143Y-107555952D02*
X100060000Y-107365476D01*
X100060000Y-107365476D02*
X100202857Y-107555952D01*
X100821905Y-107127380D02*
X100821905Y-107365476D01*
X100583810Y-107270238D02*
X100821905Y-107365476D01*
X100821905Y-107365476D02*
X101060000Y-107270238D01*
X100679048Y-107555952D02*
X100821905Y-107365476D01*
X100821905Y-107365476D02*
X100964762Y-107555952D01*
%TO.C,R2*%
X149719380Y-144692666D02*
X149243190Y-145025999D01*
X149719380Y-145264094D02*
X148719380Y-145264094D01*
X148719380Y-145264094D02*
X148719380Y-144883142D01*
X148719380Y-144883142D02*
X148767000Y-144787904D01*
X148767000Y-144787904D02*
X148814619Y-144740285D01*
X148814619Y-144740285D02*
X148909857Y-144692666D01*
X148909857Y-144692666D02*
X149052714Y-144692666D01*
X149052714Y-144692666D02*
X149147952Y-144740285D01*
X149147952Y-144740285D02*
X149195571Y-144787904D01*
X149195571Y-144787904D02*
X149243190Y-144883142D01*
X149243190Y-144883142D02*
X149243190Y-145264094D01*
X148814619Y-144311713D02*
X148767000Y-144264094D01*
X148767000Y-144264094D02*
X148719380Y-144168856D01*
X148719380Y-144168856D02*
X148719380Y-143930761D01*
X148719380Y-143930761D02*
X148767000Y-143835523D01*
X148767000Y-143835523D02*
X148814619Y-143787904D01*
X148814619Y-143787904D02*
X148909857Y-143740285D01*
X148909857Y-143740285D02*
X149005095Y-143740285D01*
X149005095Y-143740285D02*
X149147952Y-143787904D01*
X149147952Y-143787904D02*
X149719380Y-144359332D01*
X149719380Y-144359332D02*
X149719380Y-143740285D01*
%TO.C,D2*%
X151113405Y-107135380D02*
X151113405Y-106135380D01*
X151113405Y-106135380D02*
X151351500Y-106135380D01*
X151351500Y-106135380D02*
X151494357Y-106183000D01*
X151494357Y-106183000D02*
X151589595Y-106278238D01*
X151589595Y-106278238D02*
X151637214Y-106373476D01*
X151637214Y-106373476D02*
X151684833Y-106563952D01*
X151684833Y-106563952D02*
X151684833Y-106706809D01*
X151684833Y-106706809D02*
X151637214Y-106897285D01*
X151637214Y-106897285D02*
X151589595Y-106992523D01*
X151589595Y-106992523D02*
X151494357Y-107087761D01*
X151494357Y-107087761D02*
X151351500Y-107135380D01*
X151351500Y-107135380D02*
X151113405Y-107135380D01*
X152065786Y-106230619D02*
X152113405Y-106183000D01*
X152113405Y-106183000D02*
X152208643Y-106135380D01*
X152208643Y-106135380D02*
X152446738Y-106135380D01*
X152446738Y-106135380D02*
X152541976Y-106183000D01*
X152541976Y-106183000D02*
X152589595Y-106230619D01*
X152589595Y-106230619D02*
X152637214Y-106325857D01*
X152637214Y-106325857D02*
X152637214Y-106421095D01*
X152637214Y-106421095D02*
X152589595Y-106563952D01*
X152589595Y-106563952D02*
X152018167Y-107135380D01*
X152018167Y-107135380D02*
X152637214Y-107135380D01*
%TO.C,C3*%
X131044142Y-143195666D02*
X131091761Y-143243285D01*
X131091761Y-143243285D02*
X131139380Y-143386142D01*
X131139380Y-143386142D02*
X131139380Y-143481380D01*
X131139380Y-143481380D02*
X131091761Y-143624237D01*
X131091761Y-143624237D02*
X130996523Y-143719475D01*
X130996523Y-143719475D02*
X130901285Y-143767094D01*
X130901285Y-143767094D02*
X130710809Y-143814713D01*
X130710809Y-143814713D02*
X130567952Y-143814713D01*
X130567952Y-143814713D02*
X130377476Y-143767094D01*
X130377476Y-143767094D02*
X130282238Y-143719475D01*
X130282238Y-143719475D02*
X130187000Y-143624237D01*
X130187000Y-143624237D02*
X130139380Y-143481380D01*
X130139380Y-143481380D02*
X130139380Y-143386142D01*
X130139380Y-143386142D02*
X130187000Y-143243285D01*
X130187000Y-143243285D02*
X130234619Y-143195666D01*
X130139380Y-142862332D02*
X130139380Y-142243285D01*
X130139380Y-142243285D02*
X130520333Y-142576618D01*
X130520333Y-142576618D02*
X130520333Y-142433761D01*
X130520333Y-142433761D02*
X130567952Y-142338523D01*
X130567952Y-142338523D02*
X130615571Y-142290904D01*
X130615571Y-142290904D02*
X130710809Y-142243285D01*
X130710809Y-142243285D02*
X130948904Y-142243285D01*
X130948904Y-142243285D02*
X131044142Y-142290904D01*
X131044142Y-142290904D02*
X131091761Y-142338523D01*
X131091761Y-142338523D02*
X131139380Y-142433761D01*
X131139380Y-142433761D02*
X131139380Y-142719475D01*
X131139380Y-142719475D02*
X131091761Y-142814713D01*
X131091761Y-142814713D02*
X131044142Y-142862332D01*
%TO.C,LS1*%
X162457380Y-108298857D02*
X162457380Y-108775047D01*
X162457380Y-108775047D02*
X161457380Y-108775047D01*
X162409761Y-108013142D02*
X162457380Y-107870285D01*
X162457380Y-107870285D02*
X162457380Y-107632190D01*
X162457380Y-107632190D02*
X162409761Y-107536952D01*
X162409761Y-107536952D02*
X162362142Y-107489333D01*
X162362142Y-107489333D02*
X162266904Y-107441714D01*
X162266904Y-107441714D02*
X162171666Y-107441714D01*
X162171666Y-107441714D02*
X162076428Y-107489333D01*
X162076428Y-107489333D02*
X162028809Y-107536952D01*
X162028809Y-107536952D02*
X161981190Y-107632190D01*
X161981190Y-107632190D02*
X161933571Y-107822666D01*
X161933571Y-107822666D02*
X161885952Y-107917904D01*
X161885952Y-107917904D02*
X161838333Y-107965523D01*
X161838333Y-107965523D02*
X161743095Y-108013142D01*
X161743095Y-108013142D02*
X161647857Y-108013142D01*
X161647857Y-108013142D02*
X161552619Y-107965523D01*
X161552619Y-107965523D02*
X161505000Y-107917904D01*
X161505000Y-107917904D02*
X161457380Y-107822666D01*
X161457380Y-107822666D02*
X161457380Y-107584571D01*
X161457380Y-107584571D02*
X161505000Y-107441714D01*
X162457380Y-106489333D02*
X162457380Y-107060761D01*
X162457380Y-106775047D02*
X161457380Y-106775047D01*
X161457380Y-106775047D02*
X161600238Y-106870285D01*
X161600238Y-106870285D02*
X161695476Y-106965523D01*
X161695476Y-106965523D02*
X161743095Y-107060761D01*
X154418428Y-110870951D02*
X154418428Y-110109047D01*
X154799380Y-110489999D02*
X154037476Y-110489999D01*
%TO.C,R6*%
X122045333Y-103197380D02*
X121712000Y-102721190D01*
X121473905Y-103197380D02*
X121473905Y-102197380D01*
X121473905Y-102197380D02*
X121854857Y-102197380D01*
X121854857Y-102197380D02*
X121950095Y-102245000D01*
X121950095Y-102245000D02*
X121997714Y-102292619D01*
X121997714Y-102292619D02*
X122045333Y-102387857D01*
X122045333Y-102387857D02*
X122045333Y-102530714D01*
X122045333Y-102530714D02*
X121997714Y-102625952D01*
X121997714Y-102625952D02*
X121950095Y-102673571D01*
X121950095Y-102673571D02*
X121854857Y-102721190D01*
X121854857Y-102721190D02*
X121473905Y-102721190D01*
X122902476Y-102197380D02*
X122712000Y-102197380D01*
X122712000Y-102197380D02*
X122616762Y-102245000D01*
X122616762Y-102245000D02*
X122569143Y-102292619D01*
X122569143Y-102292619D02*
X122473905Y-102435476D01*
X122473905Y-102435476D02*
X122426286Y-102625952D01*
X122426286Y-102625952D02*
X122426286Y-103006904D01*
X122426286Y-103006904D02*
X122473905Y-103102142D01*
X122473905Y-103102142D02*
X122521524Y-103149761D01*
X122521524Y-103149761D02*
X122616762Y-103197380D01*
X122616762Y-103197380D02*
X122807238Y-103197380D01*
X122807238Y-103197380D02*
X122902476Y-103149761D01*
X122902476Y-103149761D02*
X122950095Y-103102142D01*
X122950095Y-103102142D02*
X122997714Y-103006904D01*
X122997714Y-103006904D02*
X122997714Y-102768809D01*
X122997714Y-102768809D02*
X122950095Y-102673571D01*
X122950095Y-102673571D02*
X122902476Y-102625952D01*
X122902476Y-102625952D02*
X122807238Y-102578333D01*
X122807238Y-102578333D02*
X122616762Y-102578333D01*
X122616762Y-102578333D02*
X122521524Y-102625952D01*
X122521524Y-102625952D02*
X122473905Y-102673571D01*
X122473905Y-102673571D02*
X122426286Y-102768809D01*
%TO.C,C13*%
X114157642Y-133619357D02*
X114205261Y-133666976D01*
X114205261Y-133666976D02*
X114252880Y-133809833D01*
X114252880Y-133809833D02*
X114252880Y-133905071D01*
X114252880Y-133905071D02*
X114205261Y-134047928D01*
X114205261Y-134047928D02*
X114110023Y-134143166D01*
X114110023Y-134143166D02*
X114014785Y-134190785D01*
X114014785Y-134190785D02*
X113824309Y-134238404D01*
X113824309Y-134238404D02*
X113681452Y-134238404D01*
X113681452Y-134238404D02*
X113490976Y-134190785D01*
X113490976Y-134190785D02*
X113395738Y-134143166D01*
X113395738Y-134143166D02*
X113300500Y-134047928D01*
X113300500Y-134047928D02*
X113252880Y-133905071D01*
X113252880Y-133905071D02*
X113252880Y-133809833D01*
X113252880Y-133809833D02*
X113300500Y-133666976D01*
X113300500Y-133666976D02*
X113348119Y-133619357D01*
X114252880Y-132666976D02*
X114252880Y-133238404D01*
X114252880Y-132952690D02*
X113252880Y-132952690D01*
X113252880Y-132952690D02*
X113395738Y-133047928D01*
X113395738Y-133047928D02*
X113490976Y-133143166D01*
X113490976Y-133143166D02*
X113538595Y-133238404D01*
X113252880Y-132333642D02*
X113252880Y-131714595D01*
X113252880Y-131714595D02*
X113633833Y-132047928D01*
X113633833Y-132047928D02*
X113633833Y-131905071D01*
X113633833Y-131905071D02*
X113681452Y-131809833D01*
X113681452Y-131809833D02*
X113729071Y-131762214D01*
X113729071Y-131762214D02*
X113824309Y-131714595D01*
X113824309Y-131714595D02*
X114062404Y-131714595D01*
X114062404Y-131714595D02*
X114157642Y-131762214D01*
X114157642Y-131762214D02*
X114205261Y-131809833D01*
X114205261Y-131809833D02*
X114252880Y-131905071D01*
X114252880Y-131905071D02*
X114252880Y-132190785D01*
X114252880Y-132190785D02*
X114205261Y-132286023D01*
X114205261Y-132286023D02*
X114157642Y-132333642D01*
%TO.C,C6*%
X125055333Y-123422142D02*
X125007714Y-123469761D01*
X125007714Y-123469761D02*
X124864857Y-123517380D01*
X124864857Y-123517380D02*
X124769619Y-123517380D01*
X124769619Y-123517380D02*
X124626762Y-123469761D01*
X124626762Y-123469761D02*
X124531524Y-123374523D01*
X124531524Y-123374523D02*
X124483905Y-123279285D01*
X124483905Y-123279285D02*
X124436286Y-123088809D01*
X124436286Y-123088809D02*
X124436286Y-122945952D01*
X124436286Y-122945952D02*
X124483905Y-122755476D01*
X124483905Y-122755476D02*
X124531524Y-122660238D01*
X124531524Y-122660238D02*
X124626762Y-122565000D01*
X124626762Y-122565000D02*
X124769619Y-122517380D01*
X124769619Y-122517380D02*
X124864857Y-122517380D01*
X124864857Y-122517380D02*
X125007714Y-122565000D01*
X125007714Y-122565000D02*
X125055333Y-122612619D01*
X125912476Y-122517380D02*
X125722000Y-122517380D01*
X125722000Y-122517380D02*
X125626762Y-122565000D01*
X125626762Y-122565000D02*
X125579143Y-122612619D01*
X125579143Y-122612619D02*
X125483905Y-122755476D01*
X125483905Y-122755476D02*
X125436286Y-122945952D01*
X125436286Y-122945952D02*
X125436286Y-123326904D01*
X125436286Y-123326904D02*
X125483905Y-123422142D01*
X125483905Y-123422142D02*
X125531524Y-123469761D01*
X125531524Y-123469761D02*
X125626762Y-123517380D01*
X125626762Y-123517380D02*
X125817238Y-123517380D01*
X125817238Y-123517380D02*
X125912476Y-123469761D01*
X125912476Y-123469761D02*
X125960095Y-123422142D01*
X125960095Y-123422142D02*
X126007714Y-123326904D01*
X126007714Y-123326904D02*
X126007714Y-123088809D01*
X126007714Y-123088809D02*
X125960095Y-122993571D01*
X125960095Y-122993571D02*
X125912476Y-122945952D01*
X125912476Y-122945952D02*
X125817238Y-122898333D01*
X125817238Y-122898333D02*
X125626762Y-122898333D01*
X125626762Y-122898333D02*
X125531524Y-122945952D01*
X125531524Y-122945952D02*
X125483905Y-122993571D01*
X125483905Y-122993571D02*
X125436286Y-123088809D01*
%TO.C,Y1*%
X134613809Y-140139190D02*
X134613809Y-140615380D01*
X134280476Y-139615380D02*
X134613809Y-140139190D01*
X134613809Y-140139190D02*
X134947142Y-139615380D01*
X135804285Y-140615380D02*
X135232857Y-140615380D01*
X135518571Y-140615380D02*
X135518571Y-139615380D01*
X135518571Y-139615380D02*
X135423333Y-139758238D01*
X135423333Y-139758238D02*
X135328095Y-139853476D01*
X135328095Y-139853476D02*
X135232857Y-139901095D01*
%TO.C,R8*%
X119251333Y-103197380D02*
X118918000Y-102721190D01*
X118679905Y-103197380D02*
X118679905Y-102197380D01*
X118679905Y-102197380D02*
X119060857Y-102197380D01*
X119060857Y-102197380D02*
X119156095Y-102245000D01*
X119156095Y-102245000D02*
X119203714Y-102292619D01*
X119203714Y-102292619D02*
X119251333Y-102387857D01*
X119251333Y-102387857D02*
X119251333Y-102530714D01*
X119251333Y-102530714D02*
X119203714Y-102625952D01*
X119203714Y-102625952D02*
X119156095Y-102673571D01*
X119156095Y-102673571D02*
X119060857Y-102721190D01*
X119060857Y-102721190D02*
X118679905Y-102721190D01*
X119822762Y-102625952D02*
X119727524Y-102578333D01*
X119727524Y-102578333D02*
X119679905Y-102530714D01*
X119679905Y-102530714D02*
X119632286Y-102435476D01*
X119632286Y-102435476D02*
X119632286Y-102387857D01*
X119632286Y-102387857D02*
X119679905Y-102292619D01*
X119679905Y-102292619D02*
X119727524Y-102245000D01*
X119727524Y-102245000D02*
X119822762Y-102197380D01*
X119822762Y-102197380D02*
X120013238Y-102197380D01*
X120013238Y-102197380D02*
X120108476Y-102245000D01*
X120108476Y-102245000D02*
X120156095Y-102292619D01*
X120156095Y-102292619D02*
X120203714Y-102387857D01*
X120203714Y-102387857D02*
X120203714Y-102435476D01*
X120203714Y-102435476D02*
X120156095Y-102530714D01*
X120156095Y-102530714D02*
X120108476Y-102578333D01*
X120108476Y-102578333D02*
X120013238Y-102625952D01*
X120013238Y-102625952D02*
X119822762Y-102625952D01*
X119822762Y-102625952D02*
X119727524Y-102673571D01*
X119727524Y-102673571D02*
X119679905Y-102721190D01*
X119679905Y-102721190D02*
X119632286Y-102816428D01*
X119632286Y-102816428D02*
X119632286Y-103006904D01*
X119632286Y-103006904D02*
X119679905Y-103102142D01*
X119679905Y-103102142D02*
X119727524Y-103149761D01*
X119727524Y-103149761D02*
X119822762Y-103197380D01*
X119822762Y-103197380D02*
X120013238Y-103197380D01*
X120013238Y-103197380D02*
X120108476Y-103149761D01*
X120108476Y-103149761D02*
X120156095Y-103102142D01*
X120156095Y-103102142D02*
X120203714Y-103006904D01*
X120203714Y-103006904D02*
X120203714Y-102816428D01*
X120203714Y-102816428D02*
X120156095Y-102721190D01*
X120156095Y-102721190D02*
X120108476Y-102673571D01*
X120108476Y-102673571D02*
X120013238Y-102625952D01*
%TO.C,R11*%
X126903142Y-103197380D02*
X126569809Y-102721190D01*
X126331714Y-103197380D02*
X126331714Y-102197380D01*
X126331714Y-102197380D02*
X126712666Y-102197380D01*
X126712666Y-102197380D02*
X126807904Y-102245000D01*
X126807904Y-102245000D02*
X126855523Y-102292619D01*
X126855523Y-102292619D02*
X126903142Y-102387857D01*
X126903142Y-102387857D02*
X126903142Y-102530714D01*
X126903142Y-102530714D02*
X126855523Y-102625952D01*
X126855523Y-102625952D02*
X126807904Y-102673571D01*
X126807904Y-102673571D02*
X126712666Y-102721190D01*
X126712666Y-102721190D02*
X126331714Y-102721190D01*
X127855523Y-103197380D02*
X127284095Y-103197380D01*
X127569809Y-103197380D02*
X127569809Y-102197380D01*
X127569809Y-102197380D02*
X127474571Y-102340238D01*
X127474571Y-102340238D02*
X127379333Y-102435476D01*
X127379333Y-102435476D02*
X127284095Y-102483095D01*
X128807904Y-103197380D02*
X128236476Y-103197380D01*
X128522190Y-103197380D02*
X128522190Y-102197380D01*
X128522190Y-102197380D02*
X128426952Y-102340238D01*
X128426952Y-102340238D02*
X128331714Y-102435476D01*
X128331714Y-102435476D02*
X128236476Y-102483095D01*
%TO.C,R9*%
X116457333Y-103197380D02*
X116124000Y-102721190D01*
X115885905Y-103197380D02*
X115885905Y-102197380D01*
X115885905Y-102197380D02*
X116266857Y-102197380D01*
X116266857Y-102197380D02*
X116362095Y-102245000D01*
X116362095Y-102245000D02*
X116409714Y-102292619D01*
X116409714Y-102292619D02*
X116457333Y-102387857D01*
X116457333Y-102387857D02*
X116457333Y-102530714D01*
X116457333Y-102530714D02*
X116409714Y-102625952D01*
X116409714Y-102625952D02*
X116362095Y-102673571D01*
X116362095Y-102673571D02*
X116266857Y-102721190D01*
X116266857Y-102721190D02*
X115885905Y-102721190D01*
X116933524Y-103197380D02*
X117124000Y-103197380D01*
X117124000Y-103197380D02*
X117219238Y-103149761D01*
X117219238Y-103149761D02*
X117266857Y-103102142D01*
X117266857Y-103102142D02*
X117362095Y-102959285D01*
X117362095Y-102959285D02*
X117409714Y-102768809D01*
X117409714Y-102768809D02*
X117409714Y-102387857D01*
X117409714Y-102387857D02*
X117362095Y-102292619D01*
X117362095Y-102292619D02*
X117314476Y-102245000D01*
X117314476Y-102245000D02*
X117219238Y-102197380D01*
X117219238Y-102197380D02*
X117028762Y-102197380D01*
X117028762Y-102197380D02*
X116933524Y-102245000D01*
X116933524Y-102245000D02*
X116885905Y-102292619D01*
X116885905Y-102292619D02*
X116838286Y-102387857D01*
X116838286Y-102387857D02*
X116838286Y-102625952D01*
X116838286Y-102625952D02*
X116885905Y-102721190D01*
X116885905Y-102721190D02*
X116933524Y-102768809D01*
X116933524Y-102768809D02*
X117028762Y-102816428D01*
X117028762Y-102816428D02*
X117219238Y-102816428D01*
X117219238Y-102816428D02*
X117314476Y-102768809D01*
X117314476Y-102768809D02*
X117362095Y-102721190D01*
X117362095Y-102721190D02*
X117409714Y-102625952D01*
%TO.C,F1*%
X108622166Y-117335571D02*
X108288833Y-117335571D01*
X108288833Y-117859380D02*
X108288833Y-116859380D01*
X108288833Y-116859380D02*
X108765023Y-116859380D01*
X109669785Y-117859380D02*
X109098357Y-117859380D01*
X109384071Y-117859380D02*
X109384071Y-116859380D01*
X109384071Y-116859380D02*
X109288833Y-117002238D01*
X109288833Y-117002238D02*
X109193595Y-117097476D01*
X109193595Y-117097476D02*
X109098357Y-117145095D01*
%TO.C,R12*%
X129951142Y-103197380D02*
X129617809Y-102721190D01*
X129379714Y-103197380D02*
X129379714Y-102197380D01*
X129379714Y-102197380D02*
X129760666Y-102197380D01*
X129760666Y-102197380D02*
X129855904Y-102245000D01*
X129855904Y-102245000D02*
X129903523Y-102292619D01*
X129903523Y-102292619D02*
X129951142Y-102387857D01*
X129951142Y-102387857D02*
X129951142Y-102530714D01*
X129951142Y-102530714D02*
X129903523Y-102625952D01*
X129903523Y-102625952D02*
X129855904Y-102673571D01*
X129855904Y-102673571D02*
X129760666Y-102721190D01*
X129760666Y-102721190D02*
X129379714Y-102721190D01*
X130903523Y-103197380D02*
X130332095Y-103197380D01*
X130617809Y-103197380D02*
X130617809Y-102197380D01*
X130617809Y-102197380D02*
X130522571Y-102340238D01*
X130522571Y-102340238D02*
X130427333Y-102435476D01*
X130427333Y-102435476D02*
X130332095Y-102483095D01*
X131284476Y-102292619D02*
X131332095Y-102245000D01*
X131332095Y-102245000D02*
X131427333Y-102197380D01*
X131427333Y-102197380D02*
X131665428Y-102197380D01*
X131665428Y-102197380D02*
X131760666Y-102245000D01*
X131760666Y-102245000D02*
X131808285Y-102292619D01*
X131808285Y-102292619D02*
X131855904Y-102387857D01*
X131855904Y-102387857D02*
X131855904Y-102483095D01*
X131855904Y-102483095D02*
X131808285Y-102625952D01*
X131808285Y-102625952D02*
X131236857Y-103197380D01*
X131236857Y-103197380D02*
X131855904Y-103197380D01*
%TO.C,C5*%
X146576142Y-130976666D02*
X146623761Y-131024285D01*
X146623761Y-131024285D02*
X146671380Y-131167142D01*
X146671380Y-131167142D02*
X146671380Y-131262380D01*
X146671380Y-131262380D02*
X146623761Y-131405237D01*
X146623761Y-131405237D02*
X146528523Y-131500475D01*
X146528523Y-131500475D02*
X146433285Y-131548094D01*
X146433285Y-131548094D02*
X146242809Y-131595713D01*
X146242809Y-131595713D02*
X146099952Y-131595713D01*
X146099952Y-131595713D02*
X145909476Y-131548094D01*
X145909476Y-131548094D02*
X145814238Y-131500475D01*
X145814238Y-131500475D02*
X145719000Y-131405237D01*
X145719000Y-131405237D02*
X145671380Y-131262380D01*
X145671380Y-131262380D02*
X145671380Y-131167142D01*
X145671380Y-131167142D02*
X145719000Y-131024285D01*
X145719000Y-131024285D02*
X145766619Y-130976666D01*
X145671380Y-130071904D02*
X145671380Y-130548094D01*
X145671380Y-130548094D02*
X146147571Y-130595713D01*
X146147571Y-130595713D02*
X146099952Y-130548094D01*
X146099952Y-130548094D02*
X146052333Y-130452856D01*
X146052333Y-130452856D02*
X146052333Y-130214761D01*
X146052333Y-130214761D02*
X146099952Y-130119523D01*
X146099952Y-130119523D02*
X146147571Y-130071904D01*
X146147571Y-130071904D02*
X146242809Y-130024285D01*
X146242809Y-130024285D02*
X146480904Y-130024285D01*
X146480904Y-130024285D02*
X146576142Y-130071904D01*
X146576142Y-130071904D02*
X146623761Y-130119523D01*
X146623761Y-130119523D02*
X146671380Y-130214761D01*
X146671380Y-130214761D02*
X146671380Y-130452856D01*
X146671380Y-130452856D02*
X146623761Y-130548094D01*
X146623761Y-130548094D02*
X146576142Y-130595713D01*
%TO.C,C4*%
X142111333Y-117580142D02*
X142063714Y-117627761D01*
X142063714Y-117627761D02*
X141920857Y-117675380D01*
X141920857Y-117675380D02*
X141825619Y-117675380D01*
X141825619Y-117675380D02*
X141682762Y-117627761D01*
X141682762Y-117627761D02*
X141587524Y-117532523D01*
X141587524Y-117532523D02*
X141539905Y-117437285D01*
X141539905Y-117437285D02*
X141492286Y-117246809D01*
X141492286Y-117246809D02*
X141492286Y-117103952D01*
X141492286Y-117103952D02*
X141539905Y-116913476D01*
X141539905Y-116913476D02*
X141587524Y-116818238D01*
X141587524Y-116818238D02*
X141682762Y-116723000D01*
X141682762Y-116723000D02*
X141825619Y-116675380D01*
X141825619Y-116675380D02*
X141920857Y-116675380D01*
X141920857Y-116675380D02*
X142063714Y-116723000D01*
X142063714Y-116723000D02*
X142111333Y-116770619D01*
X142968476Y-117008714D02*
X142968476Y-117675380D01*
X142730381Y-116627761D02*
X142492286Y-117342047D01*
X142492286Y-117342047D02*
X143111333Y-117342047D01*
%TO.C,C2*%
X139426142Y-143208666D02*
X139473761Y-143256285D01*
X139473761Y-143256285D02*
X139521380Y-143399142D01*
X139521380Y-143399142D02*
X139521380Y-143494380D01*
X139521380Y-143494380D02*
X139473761Y-143637237D01*
X139473761Y-143637237D02*
X139378523Y-143732475D01*
X139378523Y-143732475D02*
X139283285Y-143780094D01*
X139283285Y-143780094D02*
X139092809Y-143827713D01*
X139092809Y-143827713D02*
X138949952Y-143827713D01*
X138949952Y-143827713D02*
X138759476Y-143780094D01*
X138759476Y-143780094D02*
X138664238Y-143732475D01*
X138664238Y-143732475D02*
X138569000Y-143637237D01*
X138569000Y-143637237D02*
X138521380Y-143494380D01*
X138521380Y-143494380D02*
X138521380Y-143399142D01*
X138521380Y-143399142D02*
X138569000Y-143256285D01*
X138569000Y-143256285D02*
X138616619Y-143208666D01*
X138616619Y-142827713D02*
X138569000Y-142780094D01*
X138569000Y-142780094D02*
X138521380Y-142684856D01*
X138521380Y-142684856D02*
X138521380Y-142446761D01*
X138521380Y-142446761D02*
X138569000Y-142351523D01*
X138569000Y-142351523D02*
X138616619Y-142303904D01*
X138616619Y-142303904D02*
X138711857Y-142256285D01*
X138711857Y-142256285D02*
X138807095Y-142256285D01*
X138807095Y-142256285D02*
X138949952Y-142303904D01*
X138949952Y-142303904D02*
X139521380Y-142875332D01*
X139521380Y-142875332D02*
X139521380Y-142256285D01*
%TO.C,C8*%
X127662142Y-120776666D02*
X127709761Y-120824285D01*
X127709761Y-120824285D02*
X127757380Y-120967142D01*
X127757380Y-120967142D02*
X127757380Y-121062380D01*
X127757380Y-121062380D02*
X127709761Y-121205237D01*
X127709761Y-121205237D02*
X127614523Y-121300475D01*
X127614523Y-121300475D02*
X127519285Y-121348094D01*
X127519285Y-121348094D02*
X127328809Y-121395713D01*
X127328809Y-121395713D02*
X127185952Y-121395713D01*
X127185952Y-121395713D02*
X126995476Y-121348094D01*
X126995476Y-121348094D02*
X126900238Y-121300475D01*
X126900238Y-121300475D02*
X126805000Y-121205237D01*
X126805000Y-121205237D02*
X126757380Y-121062380D01*
X126757380Y-121062380D02*
X126757380Y-120967142D01*
X126757380Y-120967142D02*
X126805000Y-120824285D01*
X126805000Y-120824285D02*
X126852619Y-120776666D01*
X127185952Y-120205237D02*
X127138333Y-120300475D01*
X127138333Y-120300475D02*
X127090714Y-120348094D01*
X127090714Y-120348094D02*
X126995476Y-120395713D01*
X126995476Y-120395713D02*
X126947857Y-120395713D01*
X126947857Y-120395713D02*
X126852619Y-120348094D01*
X126852619Y-120348094D02*
X126805000Y-120300475D01*
X126805000Y-120300475D02*
X126757380Y-120205237D01*
X126757380Y-120205237D02*
X126757380Y-120014761D01*
X126757380Y-120014761D02*
X126805000Y-119919523D01*
X126805000Y-119919523D02*
X126852619Y-119871904D01*
X126852619Y-119871904D02*
X126947857Y-119824285D01*
X126947857Y-119824285D02*
X126995476Y-119824285D01*
X126995476Y-119824285D02*
X127090714Y-119871904D01*
X127090714Y-119871904D02*
X127138333Y-119919523D01*
X127138333Y-119919523D02*
X127185952Y-120014761D01*
X127185952Y-120014761D02*
X127185952Y-120205237D01*
X127185952Y-120205237D02*
X127233571Y-120300475D01*
X127233571Y-120300475D02*
X127281190Y-120348094D01*
X127281190Y-120348094D02*
X127376428Y-120395713D01*
X127376428Y-120395713D02*
X127566904Y-120395713D01*
X127566904Y-120395713D02*
X127662142Y-120348094D01*
X127662142Y-120348094D02*
X127709761Y-120300475D01*
X127709761Y-120300475D02*
X127757380Y-120205237D01*
X127757380Y-120205237D02*
X127757380Y-120014761D01*
X127757380Y-120014761D02*
X127709761Y-119919523D01*
X127709761Y-119919523D02*
X127662142Y-119871904D01*
X127662142Y-119871904D02*
X127566904Y-119824285D01*
X127566904Y-119824285D02*
X127376428Y-119824285D01*
X127376428Y-119824285D02*
X127281190Y-119871904D01*
X127281190Y-119871904D02*
X127233571Y-119919523D01*
X127233571Y-119919523D02*
X127185952Y-120014761D01*
%TO.C,R5*%
X132967333Y-103197380D02*
X132634000Y-102721190D01*
X132395905Y-103197380D02*
X132395905Y-102197380D01*
X132395905Y-102197380D02*
X132776857Y-102197380D01*
X132776857Y-102197380D02*
X132872095Y-102245000D01*
X132872095Y-102245000D02*
X132919714Y-102292619D01*
X132919714Y-102292619D02*
X132967333Y-102387857D01*
X132967333Y-102387857D02*
X132967333Y-102530714D01*
X132967333Y-102530714D02*
X132919714Y-102625952D01*
X132919714Y-102625952D02*
X132872095Y-102673571D01*
X132872095Y-102673571D02*
X132776857Y-102721190D01*
X132776857Y-102721190D02*
X132395905Y-102721190D01*
X133872095Y-102197380D02*
X133395905Y-102197380D01*
X133395905Y-102197380D02*
X133348286Y-102673571D01*
X133348286Y-102673571D02*
X133395905Y-102625952D01*
X133395905Y-102625952D02*
X133491143Y-102578333D01*
X133491143Y-102578333D02*
X133729238Y-102578333D01*
X133729238Y-102578333D02*
X133824476Y-102625952D01*
X133824476Y-102625952D02*
X133872095Y-102673571D01*
X133872095Y-102673571D02*
X133919714Y-102768809D01*
X133919714Y-102768809D02*
X133919714Y-103006904D01*
X133919714Y-103006904D02*
X133872095Y-103102142D01*
X133872095Y-103102142D02*
X133824476Y-103149761D01*
X133824476Y-103149761D02*
X133729238Y-103197380D01*
X133729238Y-103197380D02*
X133491143Y-103197380D01*
X133491143Y-103197380D02*
X133395905Y-103149761D01*
X133395905Y-103149761D02*
X133348286Y-103102142D01*
%TO.C,C7*%
X133622142Y-136310666D02*
X133669761Y-136358285D01*
X133669761Y-136358285D02*
X133717380Y-136501142D01*
X133717380Y-136501142D02*
X133717380Y-136596380D01*
X133717380Y-136596380D02*
X133669761Y-136739237D01*
X133669761Y-136739237D02*
X133574523Y-136834475D01*
X133574523Y-136834475D02*
X133479285Y-136882094D01*
X133479285Y-136882094D02*
X133288809Y-136929713D01*
X133288809Y-136929713D02*
X133145952Y-136929713D01*
X133145952Y-136929713D02*
X132955476Y-136882094D01*
X132955476Y-136882094D02*
X132860238Y-136834475D01*
X132860238Y-136834475D02*
X132765000Y-136739237D01*
X132765000Y-136739237D02*
X132717380Y-136596380D01*
X132717380Y-136596380D02*
X132717380Y-136501142D01*
X132717380Y-136501142D02*
X132765000Y-136358285D01*
X132765000Y-136358285D02*
X132812619Y-136310666D01*
X132717380Y-135977332D02*
X132717380Y-135310666D01*
X132717380Y-135310666D02*
X133717380Y-135739237D01*
%TO.C,R4*%
X151659833Y-110945380D02*
X151326500Y-110469190D01*
X151088405Y-110945380D02*
X151088405Y-109945380D01*
X151088405Y-109945380D02*
X151469357Y-109945380D01*
X151469357Y-109945380D02*
X151564595Y-109993000D01*
X151564595Y-109993000D02*
X151612214Y-110040619D01*
X151612214Y-110040619D02*
X151659833Y-110135857D01*
X151659833Y-110135857D02*
X151659833Y-110278714D01*
X151659833Y-110278714D02*
X151612214Y-110373952D01*
X151612214Y-110373952D02*
X151564595Y-110421571D01*
X151564595Y-110421571D02*
X151469357Y-110469190D01*
X151469357Y-110469190D02*
X151088405Y-110469190D01*
X152516976Y-110278714D02*
X152516976Y-110945380D01*
X152278881Y-109897761D02*
X152040786Y-110612047D01*
X152040786Y-110612047D02*
X152659833Y-110612047D01*
%TO.C,C1*%
X131710333Y-111070142D02*
X131662714Y-111117761D01*
X131662714Y-111117761D02*
X131519857Y-111165380D01*
X131519857Y-111165380D02*
X131424619Y-111165380D01*
X131424619Y-111165380D02*
X131281762Y-111117761D01*
X131281762Y-111117761D02*
X131186524Y-111022523D01*
X131186524Y-111022523D02*
X131138905Y-110927285D01*
X131138905Y-110927285D02*
X131091286Y-110736809D01*
X131091286Y-110736809D02*
X131091286Y-110593952D01*
X131091286Y-110593952D02*
X131138905Y-110403476D01*
X131138905Y-110403476D02*
X131186524Y-110308238D01*
X131186524Y-110308238D02*
X131281762Y-110213000D01*
X131281762Y-110213000D02*
X131424619Y-110165380D01*
X131424619Y-110165380D02*
X131519857Y-110165380D01*
X131519857Y-110165380D02*
X131662714Y-110213000D01*
X131662714Y-110213000D02*
X131710333Y-110260619D01*
X132662714Y-111165380D02*
X132091286Y-111165380D01*
X132377000Y-111165380D02*
X132377000Y-110165380D01*
X132377000Y-110165380D02*
X132281762Y-110308238D01*
X132281762Y-110308238D02*
X132186524Y-110403476D01*
X132186524Y-110403476D02*
X132091286Y-110451095D01*
%TO.C,R7*%
X124585333Y-103197380D02*
X124252000Y-102721190D01*
X124013905Y-103197380D02*
X124013905Y-102197380D01*
X124013905Y-102197380D02*
X124394857Y-102197380D01*
X124394857Y-102197380D02*
X124490095Y-102245000D01*
X124490095Y-102245000D02*
X124537714Y-102292619D01*
X124537714Y-102292619D02*
X124585333Y-102387857D01*
X124585333Y-102387857D02*
X124585333Y-102530714D01*
X124585333Y-102530714D02*
X124537714Y-102625952D01*
X124537714Y-102625952D02*
X124490095Y-102673571D01*
X124490095Y-102673571D02*
X124394857Y-102721190D01*
X124394857Y-102721190D02*
X124013905Y-102721190D01*
X124918667Y-102197380D02*
X125585333Y-102197380D01*
X125585333Y-102197380D02*
X125156762Y-103197380D01*
%TO.C,R1*%
X149465380Y-128436666D02*
X148989190Y-128769999D01*
X149465380Y-129008094D02*
X148465380Y-129008094D01*
X148465380Y-129008094D02*
X148465380Y-128627142D01*
X148465380Y-128627142D02*
X148513000Y-128531904D01*
X148513000Y-128531904D02*
X148560619Y-128484285D01*
X148560619Y-128484285D02*
X148655857Y-128436666D01*
X148655857Y-128436666D02*
X148798714Y-128436666D01*
X148798714Y-128436666D02*
X148893952Y-128484285D01*
X148893952Y-128484285D02*
X148941571Y-128531904D01*
X148941571Y-128531904D02*
X148989190Y-128627142D01*
X148989190Y-128627142D02*
X148989190Y-129008094D01*
X149465380Y-127484285D02*
X149465380Y-128055713D01*
X149465380Y-127769999D02*
X148465380Y-127769999D01*
X148465380Y-127769999D02*
X148608238Y-127865237D01*
X148608238Y-127865237D02*
X148703476Y-127960475D01*
X148703476Y-127960475D02*
X148751095Y-128055713D01*
D11*
%TO.C,S2*%
X161592380Y-141376097D02*
X161773809Y-141436573D01*
X161773809Y-141436573D02*
X162076190Y-141436573D01*
X162076190Y-141436573D02*
X162197142Y-141376097D01*
X162197142Y-141376097D02*
X162257618Y-141315621D01*
X162257618Y-141315621D02*
X162318095Y-141194669D01*
X162318095Y-141194669D02*
X162318095Y-141073716D01*
X162318095Y-141073716D02*
X162257618Y-140952764D01*
X162257618Y-140952764D02*
X162197142Y-140892288D01*
X162197142Y-140892288D02*
X162076190Y-140831811D01*
X162076190Y-140831811D02*
X161834285Y-140771335D01*
X161834285Y-140771335D02*
X161713333Y-140710859D01*
X161713333Y-140710859D02*
X161652856Y-140650383D01*
X161652856Y-140650383D02*
X161592380Y-140529430D01*
X161592380Y-140529430D02*
X161592380Y-140408478D01*
X161592380Y-140408478D02*
X161652856Y-140287526D01*
X161652856Y-140287526D02*
X161713333Y-140227050D01*
X161713333Y-140227050D02*
X161834285Y-140166573D01*
X161834285Y-140166573D02*
X162136666Y-140166573D01*
X162136666Y-140166573D02*
X162318095Y-140227050D01*
X162801904Y-140287526D02*
X162862380Y-140227050D01*
X162862380Y-140227050D02*
X162983333Y-140166573D01*
X162983333Y-140166573D02*
X163285714Y-140166573D01*
X163285714Y-140166573D02*
X163406666Y-140227050D01*
X163406666Y-140227050D02*
X163467142Y-140287526D01*
X163467142Y-140287526D02*
X163527619Y-140408478D01*
X163527619Y-140408478D02*
X163527619Y-140529430D01*
X163527619Y-140529430D02*
X163467142Y-140710859D01*
X163467142Y-140710859D02*
X162741428Y-141436573D01*
X162741428Y-141436573D02*
X163527619Y-141436573D01*
D10*
%TO.C,D1*%
X146033405Y-106881380D02*
X146033405Y-105881380D01*
X146033405Y-105881380D02*
X146271500Y-105881380D01*
X146271500Y-105881380D02*
X146414357Y-105929000D01*
X146414357Y-105929000D02*
X146509595Y-106024238D01*
X146509595Y-106024238D02*
X146557214Y-106119476D01*
X146557214Y-106119476D02*
X146604833Y-106309952D01*
X146604833Y-106309952D02*
X146604833Y-106452809D01*
X146604833Y-106452809D02*
X146557214Y-106643285D01*
X146557214Y-106643285D02*
X146509595Y-106738523D01*
X146509595Y-106738523D02*
X146414357Y-106833761D01*
X146414357Y-106833761D02*
X146271500Y-106881380D01*
X146271500Y-106881380D02*
X146033405Y-106881380D01*
X147557214Y-106881380D02*
X146985786Y-106881380D01*
X147271500Y-106881380D02*
X147271500Y-105881380D01*
X147271500Y-105881380D02*
X147176262Y-106024238D01*
X147176262Y-106024238D02*
X147081024Y-106119476D01*
X147081024Y-106119476D02*
X146985786Y-106167095D01*
%TO.C,U5*%
X111213380Y-136733404D02*
X112022904Y-136733404D01*
X112022904Y-136733404D02*
X112118142Y-136685785D01*
X112118142Y-136685785D02*
X112165761Y-136638166D01*
X112165761Y-136638166D02*
X112213380Y-136542928D01*
X112213380Y-136542928D02*
X112213380Y-136352452D01*
X112213380Y-136352452D02*
X112165761Y-136257214D01*
X112165761Y-136257214D02*
X112118142Y-136209595D01*
X112118142Y-136209595D02*
X112022904Y-136161976D01*
X112022904Y-136161976D02*
X111213380Y-136161976D01*
X111213380Y-135209595D02*
X111213380Y-135685785D01*
X111213380Y-135685785D02*
X111689571Y-135733404D01*
X111689571Y-135733404D02*
X111641952Y-135685785D01*
X111641952Y-135685785D02*
X111594333Y-135590547D01*
X111594333Y-135590547D02*
X111594333Y-135352452D01*
X111594333Y-135352452D02*
X111641952Y-135257214D01*
X111641952Y-135257214D02*
X111689571Y-135209595D01*
X111689571Y-135209595D02*
X111784809Y-135161976D01*
X111784809Y-135161976D02*
X112022904Y-135161976D01*
X112022904Y-135161976D02*
X112118142Y-135209595D01*
X112118142Y-135209595D02*
X112165761Y-135257214D01*
X112165761Y-135257214D02*
X112213380Y-135352452D01*
X112213380Y-135352452D02*
X112213380Y-135590547D01*
X112213380Y-135590547D02*
X112165761Y-135685785D01*
X112165761Y-135685785D02*
X112118142Y-135733404D01*
%TO.C,C9*%
X124801333Y-126724142D02*
X124753714Y-126771761D01*
X124753714Y-126771761D02*
X124610857Y-126819380D01*
X124610857Y-126819380D02*
X124515619Y-126819380D01*
X124515619Y-126819380D02*
X124372762Y-126771761D01*
X124372762Y-126771761D02*
X124277524Y-126676523D01*
X124277524Y-126676523D02*
X124229905Y-126581285D01*
X124229905Y-126581285D02*
X124182286Y-126390809D01*
X124182286Y-126390809D02*
X124182286Y-126247952D01*
X124182286Y-126247952D02*
X124229905Y-126057476D01*
X124229905Y-126057476D02*
X124277524Y-125962238D01*
X124277524Y-125962238D02*
X124372762Y-125867000D01*
X124372762Y-125867000D02*
X124515619Y-125819380D01*
X124515619Y-125819380D02*
X124610857Y-125819380D01*
X124610857Y-125819380D02*
X124753714Y-125867000D01*
X124753714Y-125867000D02*
X124801333Y-125914619D01*
X125277524Y-126819380D02*
X125468000Y-126819380D01*
X125468000Y-126819380D02*
X125563238Y-126771761D01*
X125563238Y-126771761D02*
X125610857Y-126724142D01*
X125610857Y-126724142D02*
X125706095Y-126581285D01*
X125706095Y-126581285D02*
X125753714Y-126390809D01*
X125753714Y-126390809D02*
X125753714Y-126009857D01*
X125753714Y-126009857D02*
X125706095Y-125914619D01*
X125706095Y-125914619D02*
X125658476Y-125867000D01*
X125658476Y-125867000D02*
X125563238Y-125819380D01*
X125563238Y-125819380D02*
X125372762Y-125819380D01*
X125372762Y-125819380D02*
X125277524Y-125867000D01*
X125277524Y-125867000D02*
X125229905Y-125914619D01*
X125229905Y-125914619D02*
X125182286Y-126009857D01*
X125182286Y-126009857D02*
X125182286Y-126247952D01*
X125182286Y-126247952D02*
X125229905Y-126343190D01*
X125229905Y-126343190D02*
X125277524Y-126390809D01*
X125277524Y-126390809D02*
X125372762Y-126438428D01*
X125372762Y-126438428D02*
X125563238Y-126438428D01*
X125563238Y-126438428D02*
X125658476Y-126390809D01*
X125658476Y-126390809D02*
X125706095Y-126343190D01*
X125706095Y-126343190D02*
X125753714Y-126247952D01*
%TO.C,U3*%
X136436095Y-125819380D02*
X136436095Y-126628904D01*
X136436095Y-126628904D02*
X136483714Y-126724142D01*
X136483714Y-126724142D02*
X136531333Y-126771761D01*
X136531333Y-126771761D02*
X136626571Y-126819380D01*
X136626571Y-126819380D02*
X136817047Y-126819380D01*
X136817047Y-126819380D02*
X136912285Y-126771761D01*
X136912285Y-126771761D02*
X136959904Y-126724142D01*
X136959904Y-126724142D02*
X137007523Y-126628904D01*
X137007523Y-126628904D02*
X137007523Y-125819380D01*
X137388476Y-125819380D02*
X138007523Y-125819380D01*
X138007523Y-125819380D02*
X137674190Y-126200333D01*
X137674190Y-126200333D02*
X137817047Y-126200333D01*
X137817047Y-126200333D02*
X137912285Y-126247952D01*
X137912285Y-126247952D02*
X137959904Y-126295571D01*
X137959904Y-126295571D02*
X138007523Y-126390809D01*
X138007523Y-126390809D02*
X138007523Y-126628904D01*
X138007523Y-126628904D02*
X137959904Y-126724142D01*
X137959904Y-126724142D02*
X137912285Y-126771761D01*
X137912285Y-126771761D02*
X137817047Y-126819380D01*
X137817047Y-126819380D02*
X137531333Y-126819380D01*
X137531333Y-126819380D02*
X137436095Y-126771761D01*
X137436095Y-126771761D02*
X137388476Y-126724142D01*
%TO.C,U2*%
X125582595Y-110786380D02*
X125582595Y-111595904D01*
X125582595Y-111595904D02*
X125630214Y-111691142D01*
X125630214Y-111691142D02*
X125677833Y-111738761D01*
X125677833Y-111738761D02*
X125773071Y-111786380D01*
X125773071Y-111786380D02*
X125963547Y-111786380D01*
X125963547Y-111786380D02*
X126058785Y-111738761D01*
X126058785Y-111738761D02*
X126106404Y-111691142D01*
X126106404Y-111691142D02*
X126154023Y-111595904D01*
X126154023Y-111595904D02*
X126154023Y-110786380D01*
X126582595Y-110881619D02*
X126630214Y-110834000D01*
X126630214Y-110834000D02*
X126725452Y-110786380D01*
X126725452Y-110786380D02*
X126963547Y-110786380D01*
X126963547Y-110786380D02*
X127058785Y-110834000D01*
X127058785Y-110834000D02*
X127106404Y-110881619D01*
X127106404Y-110881619D02*
X127154023Y-110976857D01*
X127154023Y-110976857D02*
X127154023Y-111072095D01*
X127154023Y-111072095D02*
X127106404Y-111214952D01*
X127106404Y-111214952D02*
X126534976Y-111786380D01*
X126534976Y-111786380D02*
X127154023Y-111786380D01*
%TO.C,D3*%
X107603905Y-112889380D02*
X107603905Y-111889380D01*
X107603905Y-111889380D02*
X107842000Y-111889380D01*
X107842000Y-111889380D02*
X107984857Y-111937000D01*
X107984857Y-111937000D02*
X108080095Y-112032238D01*
X108080095Y-112032238D02*
X108127714Y-112127476D01*
X108127714Y-112127476D02*
X108175333Y-112317952D01*
X108175333Y-112317952D02*
X108175333Y-112460809D01*
X108175333Y-112460809D02*
X108127714Y-112651285D01*
X108127714Y-112651285D02*
X108080095Y-112746523D01*
X108080095Y-112746523D02*
X107984857Y-112841761D01*
X107984857Y-112841761D02*
X107842000Y-112889380D01*
X107842000Y-112889380D02*
X107603905Y-112889380D01*
X108508667Y-111889380D02*
X109127714Y-111889380D01*
X109127714Y-111889380D02*
X108794381Y-112270333D01*
X108794381Y-112270333D02*
X108937238Y-112270333D01*
X108937238Y-112270333D02*
X109032476Y-112317952D01*
X109032476Y-112317952D02*
X109080095Y-112365571D01*
X109080095Y-112365571D02*
X109127714Y-112460809D01*
X109127714Y-112460809D02*
X109127714Y-112698904D01*
X109127714Y-112698904D02*
X109080095Y-112794142D01*
X109080095Y-112794142D02*
X109032476Y-112841761D01*
X109032476Y-112841761D02*
X108937238Y-112889380D01*
X108937238Y-112889380D02*
X108651524Y-112889380D01*
X108651524Y-112889380D02*
X108556286Y-112841761D01*
X108556286Y-112841761D02*
X108508667Y-112794142D01*
%TO.C,C11*%
X131221142Y-117834142D02*
X131173523Y-117881761D01*
X131173523Y-117881761D02*
X131030666Y-117929380D01*
X131030666Y-117929380D02*
X130935428Y-117929380D01*
X130935428Y-117929380D02*
X130792571Y-117881761D01*
X130792571Y-117881761D02*
X130697333Y-117786523D01*
X130697333Y-117786523D02*
X130649714Y-117691285D01*
X130649714Y-117691285D02*
X130602095Y-117500809D01*
X130602095Y-117500809D02*
X130602095Y-117357952D01*
X130602095Y-117357952D02*
X130649714Y-117167476D01*
X130649714Y-117167476D02*
X130697333Y-117072238D01*
X130697333Y-117072238D02*
X130792571Y-116977000D01*
X130792571Y-116977000D02*
X130935428Y-116929380D01*
X130935428Y-116929380D02*
X131030666Y-116929380D01*
X131030666Y-116929380D02*
X131173523Y-116977000D01*
X131173523Y-116977000D02*
X131221142Y-117024619D01*
X132173523Y-117929380D02*
X131602095Y-117929380D01*
X131887809Y-117929380D02*
X131887809Y-116929380D01*
X131887809Y-116929380D02*
X131792571Y-117072238D01*
X131792571Y-117072238D02*
X131697333Y-117167476D01*
X131697333Y-117167476D02*
X131602095Y-117215095D01*
X133125904Y-117929380D02*
X132554476Y-117929380D01*
X132840190Y-117929380D02*
X132840190Y-116929380D01*
X132840190Y-116929380D02*
X132744952Y-117072238D01*
X132744952Y-117072238D02*
X132649714Y-117167476D01*
X132649714Y-117167476D02*
X132554476Y-117215095D01*
%TO.C,REF\u002A\u002A*%
X143446666Y-143687380D02*
X143113333Y-143211190D01*
X142875238Y-143687380D02*
X142875238Y-142687380D01*
X142875238Y-142687380D02*
X143256190Y-142687380D01*
X143256190Y-142687380D02*
X143351428Y-142735000D01*
X143351428Y-142735000D02*
X143399047Y-142782619D01*
X143399047Y-142782619D02*
X143446666Y-142877857D01*
X143446666Y-142877857D02*
X143446666Y-143020714D01*
X143446666Y-143020714D02*
X143399047Y-143115952D01*
X143399047Y-143115952D02*
X143351428Y-143163571D01*
X143351428Y-143163571D02*
X143256190Y-143211190D01*
X143256190Y-143211190D02*
X142875238Y-143211190D01*
X143875238Y-143163571D02*
X144208571Y-143163571D01*
X144351428Y-143687380D02*
X143875238Y-143687380D01*
X143875238Y-143687380D02*
X143875238Y-142687380D01*
X143875238Y-142687380D02*
X144351428Y-142687380D01*
X145113333Y-143163571D02*
X144780000Y-143163571D01*
X144780000Y-143687380D02*
X144780000Y-142687380D01*
X144780000Y-142687380D02*
X145256190Y-142687380D01*
X145780000Y-142687380D02*
X145780000Y-142925476D01*
X145541905Y-142830238D02*
X145780000Y-142925476D01*
X145780000Y-142925476D02*
X146018095Y-142830238D01*
X145637143Y-143115952D02*
X145780000Y-142925476D01*
X145780000Y-142925476D02*
X145922857Y-143115952D01*
X146541905Y-142687380D02*
X146541905Y-142925476D01*
X146303810Y-142830238D02*
X146541905Y-142925476D01*
X146541905Y-142925476D02*
X146780000Y-142830238D01*
X146399048Y-143115952D02*
X146541905Y-142925476D01*
X146541905Y-142925476D02*
X146684762Y-143115952D01*
%TO.C,C14*%
X114157642Y-139220357D02*
X114205261Y-139267976D01*
X114205261Y-139267976D02*
X114252880Y-139410833D01*
X114252880Y-139410833D02*
X114252880Y-139506071D01*
X114252880Y-139506071D02*
X114205261Y-139648928D01*
X114205261Y-139648928D02*
X114110023Y-139744166D01*
X114110023Y-139744166D02*
X114014785Y-139791785D01*
X114014785Y-139791785D02*
X113824309Y-139839404D01*
X113824309Y-139839404D02*
X113681452Y-139839404D01*
X113681452Y-139839404D02*
X113490976Y-139791785D01*
X113490976Y-139791785D02*
X113395738Y-139744166D01*
X113395738Y-139744166D02*
X113300500Y-139648928D01*
X113300500Y-139648928D02*
X113252880Y-139506071D01*
X113252880Y-139506071D02*
X113252880Y-139410833D01*
X113252880Y-139410833D02*
X113300500Y-139267976D01*
X113300500Y-139267976D02*
X113348119Y-139220357D01*
X114252880Y-138267976D02*
X114252880Y-138839404D01*
X114252880Y-138553690D02*
X113252880Y-138553690D01*
X113252880Y-138553690D02*
X113395738Y-138648928D01*
X113395738Y-138648928D02*
X113490976Y-138744166D01*
X113490976Y-138744166D02*
X113538595Y-138839404D01*
X113586214Y-137410833D02*
X114252880Y-137410833D01*
X113205261Y-137648928D02*
X113919547Y-137887023D01*
X113919547Y-137887023D02*
X113919547Y-137267976D01*
%TO.C,U4*%
X112781595Y-121869380D02*
X112781595Y-122678904D01*
X112781595Y-122678904D02*
X112829214Y-122774142D01*
X112829214Y-122774142D02*
X112876833Y-122821761D01*
X112876833Y-122821761D02*
X112972071Y-122869380D01*
X112972071Y-122869380D02*
X113162547Y-122869380D01*
X113162547Y-122869380D02*
X113257785Y-122821761D01*
X113257785Y-122821761D02*
X113305404Y-122774142D01*
X113305404Y-122774142D02*
X113353023Y-122678904D01*
X113353023Y-122678904D02*
X113353023Y-121869380D01*
X114257785Y-122202714D02*
X114257785Y-122869380D01*
X114019690Y-121821761D02*
X113781595Y-122536047D01*
X113781595Y-122536047D02*
X114400642Y-122536047D01*
%TO.C,R16*%
X107445142Y-116445380D02*
X107111809Y-115969190D01*
X106873714Y-116445380D02*
X106873714Y-115445380D01*
X106873714Y-115445380D02*
X107254666Y-115445380D01*
X107254666Y-115445380D02*
X107349904Y-115493000D01*
X107349904Y-115493000D02*
X107397523Y-115540619D01*
X107397523Y-115540619D02*
X107445142Y-115635857D01*
X107445142Y-115635857D02*
X107445142Y-115778714D01*
X107445142Y-115778714D02*
X107397523Y-115873952D01*
X107397523Y-115873952D02*
X107349904Y-115921571D01*
X107349904Y-115921571D02*
X107254666Y-115969190D01*
X107254666Y-115969190D02*
X106873714Y-115969190D01*
X108397523Y-116445380D02*
X107826095Y-116445380D01*
X108111809Y-116445380D02*
X108111809Y-115445380D01*
X108111809Y-115445380D02*
X108016571Y-115588238D01*
X108016571Y-115588238D02*
X107921333Y-115683476D01*
X107921333Y-115683476D02*
X107826095Y-115731095D01*
X109254666Y-115445380D02*
X109064190Y-115445380D01*
X109064190Y-115445380D02*
X108968952Y-115493000D01*
X108968952Y-115493000D02*
X108921333Y-115540619D01*
X108921333Y-115540619D02*
X108826095Y-115683476D01*
X108826095Y-115683476D02*
X108778476Y-115873952D01*
X108778476Y-115873952D02*
X108778476Y-116254904D01*
X108778476Y-116254904D02*
X108826095Y-116350142D01*
X108826095Y-116350142D02*
X108873714Y-116397761D01*
X108873714Y-116397761D02*
X108968952Y-116445380D01*
X108968952Y-116445380D02*
X109159428Y-116445380D01*
X109159428Y-116445380D02*
X109254666Y-116397761D01*
X109254666Y-116397761D02*
X109302285Y-116350142D01*
X109302285Y-116350142D02*
X109349904Y-116254904D01*
X109349904Y-116254904D02*
X109349904Y-116016809D01*
X109349904Y-116016809D02*
X109302285Y-115921571D01*
X109302285Y-115921571D02*
X109254666Y-115873952D01*
X109254666Y-115873952D02*
X109159428Y-115826333D01*
X109159428Y-115826333D02*
X108968952Y-115826333D01*
X108968952Y-115826333D02*
X108873714Y-115873952D01*
X108873714Y-115873952D02*
X108826095Y-115921571D01*
X108826095Y-115921571D02*
X108778476Y-116016809D01*
%TO.C,C10*%
X124071142Y-128288142D02*
X124023523Y-128335761D01*
X124023523Y-128335761D02*
X123880666Y-128383380D01*
X123880666Y-128383380D02*
X123785428Y-128383380D01*
X123785428Y-128383380D02*
X123642571Y-128335761D01*
X123642571Y-128335761D02*
X123547333Y-128240523D01*
X123547333Y-128240523D02*
X123499714Y-128145285D01*
X123499714Y-128145285D02*
X123452095Y-127954809D01*
X123452095Y-127954809D02*
X123452095Y-127811952D01*
X123452095Y-127811952D02*
X123499714Y-127621476D01*
X123499714Y-127621476D02*
X123547333Y-127526238D01*
X123547333Y-127526238D02*
X123642571Y-127431000D01*
X123642571Y-127431000D02*
X123785428Y-127383380D01*
X123785428Y-127383380D02*
X123880666Y-127383380D01*
X123880666Y-127383380D02*
X124023523Y-127431000D01*
X124023523Y-127431000D02*
X124071142Y-127478619D01*
X125023523Y-128383380D02*
X124452095Y-128383380D01*
X124737809Y-128383380D02*
X124737809Y-127383380D01*
X124737809Y-127383380D02*
X124642571Y-127526238D01*
X124642571Y-127526238D02*
X124547333Y-127621476D01*
X124547333Y-127621476D02*
X124452095Y-127669095D01*
X125642571Y-127383380D02*
X125737809Y-127383380D01*
X125737809Y-127383380D02*
X125833047Y-127431000D01*
X125833047Y-127431000D02*
X125880666Y-127478619D01*
X125880666Y-127478619D02*
X125928285Y-127573857D01*
X125928285Y-127573857D02*
X125975904Y-127764333D01*
X125975904Y-127764333D02*
X125975904Y-128002428D01*
X125975904Y-128002428D02*
X125928285Y-128192904D01*
X125928285Y-128192904D02*
X125880666Y-128288142D01*
X125880666Y-128288142D02*
X125833047Y-128335761D01*
X125833047Y-128335761D02*
X125737809Y-128383380D01*
X125737809Y-128383380D02*
X125642571Y-128383380D01*
X125642571Y-128383380D02*
X125547333Y-128335761D01*
X125547333Y-128335761D02*
X125499714Y-128288142D01*
X125499714Y-128288142D02*
X125452095Y-128192904D01*
X125452095Y-128192904D02*
X125404476Y-128002428D01*
X125404476Y-128002428D02*
X125404476Y-127764333D01*
X125404476Y-127764333D02*
X125452095Y-127573857D01*
X125452095Y-127573857D02*
X125499714Y-127478619D01*
X125499714Y-127478619D02*
X125547333Y-127431000D01*
X125547333Y-127431000D02*
X125642571Y-127383380D01*
%TO.C,R3*%
X146579833Y-110945380D02*
X146246500Y-110469190D01*
X146008405Y-110945380D02*
X146008405Y-109945380D01*
X146008405Y-109945380D02*
X146389357Y-109945380D01*
X146389357Y-109945380D02*
X146484595Y-109993000D01*
X146484595Y-109993000D02*
X146532214Y-110040619D01*
X146532214Y-110040619D02*
X146579833Y-110135857D01*
X146579833Y-110135857D02*
X146579833Y-110278714D01*
X146579833Y-110278714D02*
X146532214Y-110373952D01*
X146532214Y-110373952D02*
X146484595Y-110421571D01*
X146484595Y-110421571D02*
X146389357Y-110469190D01*
X146389357Y-110469190D02*
X146008405Y-110469190D01*
X146913167Y-109945380D02*
X147532214Y-109945380D01*
X147532214Y-109945380D02*
X147198881Y-110326333D01*
X147198881Y-110326333D02*
X147341738Y-110326333D01*
X147341738Y-110326333D02*
X147436976Y-110373952D01*
X147436976Y-110373952D02*
X147484595Y-110421571D01*
X147484595Y-110421571D02*
X147532214Y-110516809D01*
X147532214Y-110516809D02*
X147532214Y-110754904D01*
X147532214Y-110754904D02*
X147484595Y-110850142D01*
X147484595Y-110850142D02*
X147436976Y-110897761D01*
X147436976Y-110897761D02*
X147341738Y-110945380D01*
X147341738Y-110945380D02*
X147056024Y-110945380D01*
X147056024Y-110945380D02*
X146960786Y-110897761D01*
X146960786Y-110897761D02*
X146913167Y-110850142D01*
%TO.C,REF\u002A\u002A*%
X168846666Y-80187380D02*
X168513333Y-79711190D01*
X168275238Y-80187380D02*
X168275238Y-79187380D01*
X168275238Y-79187380D02*
X168656190Y-79187380D01*
X168656190Y-79187380D02*
X168751428Y-79235000D01*
X168751428Y-79235000D02*
X168799047Y-79282619D01*
X168799047Y-79282619D02*
X168846666Y-79377857D01*
X168846666Y-79377857D02*
X168846666Y-79520714D01*
X168846666Y-79520714D02*
X168799047Y-79615952D01*
X168799047Y-79615952D02*
X168751428Y-79663571D01*
X168751428Y-79663571D02*
X168656190Y-79711190D01*
X168656190Y-79711190D02*
X168275238Y-79711190D01*
X169275238Y-79663571D02*
X169608571Y-79663571D01*
X169751428Y-80187380D02*
X169275238Y-80187380D01*
X169275238Y-80187380D02*
X169275238Y-79187380D01*
X169275238Y-79187380D02*
X169751428Y-79187380D01*
X170513333Y-79663571D02*
X170180000Y-79663571D01*
X170180000Y-80187380D02*
X170180000Y-79187380D01*
X170180000Y-79187380D02*
X170656190Y-79187380D01*
X171180000Y-79187380D02*
X171180000Y-79425476D01*
X170941905Y-79330238D02*
X171180000Y-79425476D01*
X171180000Y-79425476D02*
X171418095Y-79330238D01*
X171037143Y-79615952D02*
X171180000Y-79425476D01*
X171180000Y-79425476D02*
X171322857Y-79615952D01*
X171941905Y-79187380D02*
X171941905Y-79425476D01*
X171703810Y-79330238D02*
X171941905Y-79425476D01*
X171941905Y-79425476D02*
X172180000Y-79330238D01*
X171799048Y-79615952D02*
X171941905Y-79425476D01*
X171941905Y-79425476D02*
X172084762Y-79615952D01*
%TO.C,C15*%
X105560142Y-137000857D02*
X105607761Y-137048476D01*
X105607761Y-137048476D02*
X105655380Y-137191333D01*
X105655380Y-137191333D02*
X105655380Y-137286571D01*
X105655380Y-137286571D02*
X105607761Y-137429428D01*
X105607761Y-137429428D02*
X105512523Y-137524666D01*
X105512523Y-137524666D02*
X105417285Y-137572285D01*
X105417285Y-137572285D02*
X105226809Y-137619904D01*
X105226809Y-137619904D02*
X105083952Y-137619904D01*
X105083952Y-137619904D02*
X104893476Y-137572285D01*
X104893476Y-137572285D02*
X104798238Y-137524666D01*
X104798238Y-137524666D02*
X104703000Y-137429428D01*
X104703000Y-137429428D02*
X104655380Y-137286571D01*
X104655380Y-137286571D02*
X104655380Y-137191333D01*
X104655380Y-137191333D02*
X104703000Y-137048476D01*
X104703000Y-137048476D02*
X104750619Y-137000857D01*
X105655380Y-136048476D02*
X105655380Y-136619904D01*
X105655380Y-136334190D02*
X104655380Y-136334190D01*
X104655380Y-136334190D02*
X104798238Y-136429428D01*
X104798238Y-136429428D02*
X104893476Y-136524666D01*
X104893476Y-136524666D02*
X104941095Y-136619904D01*
X104655380Y-135143714D02*
X104655380Y-135619904D01*
X104655380Y-135619904D02*
X105131571Y-135667523D01*
X105131571Y-135667523D02*
X105083952Y-135619904D01*
X105083952Y-135619904D02*
X105036333Y-135524666D01*
X105036333Y-135524666D02*
X105036333Y-135286571D01*
X105036333Y-135286571D02*
X105083952Y-135191333D01*
X105083952Y-135191333D02*
X105131571Y-135143714D01*
X105131571Y-135143714D02*
X105226809Y-135096095D01*
X105226809Y-135096095D02*
X105464904Y-135096095D01*
X105464904Y-135096095D02*
X105560142Y-135143714D01*
X105560142Y-135143714D02*
X105607761Y-135191333D01*
X105607761Y-135191333D02*
X105655380Y-135286571D01*
X105655380Y-135286571D02*
X105655380Y-135524666D01*
X105655380Y-135524666D02*
X105607761Y-135619904D01*
X105607761Y-135619904D02*
X105560142Y-135667523D01*
%TO.C,U1*%
X97459380Y-100689904D02*
X98268904Y-100689904D01*
X98268904Y-100689904D02*
X98364142Y-100642285D01*
X98364142Y-100642285D02*
X98411761Y-100594666D01*
X98411761Y-100594666D02*
X98459380Y-100499428D01*
X98459380Y-100499428D02*
X98459380Y-100308952D01*
X98459380Y-100308952D02*
X98411761Y-100213714D01*
X98411761Y-100213714D02*
X98364142Y-100166095D01*
X98364142Y-100166095D02*
X98268904Y-100118476D01*
X98268904Y-100118476D02*
X97459380Y-100118476D01*
X98459380Y-99118476D02*
X98459380Y-99689904D01*
X98459380Y-99404190D02*
X97459380Y-99404190D01*
X97459380Y-99404190D02*
X97602238Y-99499428D01*
X97602238Y-99499428D02*
X97697476Y-99594666D01*
X97697476Y-99594666D02*
X97745095Y-99689904D01*
%TO.C,R10*%
X113441142Y-103197380D02*
X113107809Y-102721190D01*
X112869714Y-103197380D02*
X112869714Y-102197380D01*
X112869714Y-102197380D02*
X113250666Y-102197380D01*
X113250666Y-102197380D02*
X113345904Y-102245000D01*
X113345904Y-102245000D02*
X113393523Y-102292619D01*
X113393523Y-102292619D02*
X113441142Y-102387857D01*
X113441142Y-102387857D02*
X113441142Y-102530714D01*
X113441142Y-102530714D02*
X113393523Y-102625952D01*
X113393523Y-102625952D02*
X113345904Y-102673571D01*
X113345904Y-102673571D02*
X113250666Y-102721190D01*
X113250666Y-102721190D02*
X112869714Y-102721190D01*
X114393523Y-103197380D02*
X113822095Y-103197380D01*
X114107809Y-103197380D02*
X114107809Y-102197380D01*
X114107809Y-102197380D02*
X114012571Y-102340238D01*
X114012571Y-102340238D02*
X113917333Y-102435476D01*
X113917333Y-102435476D02*
X113822095Y-102483095D01*
X115012571Y-102197380D02*
X115107809Y-102197380D01*
X115107809Y-102197380D02*
X115203047Y-102245000D01*
X115203047Y-102245000D02*
X115250666Y-102292619D01*
X115250666Y-102292619D02*
X115298285Y-102387857D01*
X115298285Y-102387857D02*
X115345904Y-102578333D01*
X115345904Y-102578333D02*
X115345904Y-102816428D01*
X115345904Y-102816428D02*
X115298285Y-103006904D01*
X115298285Y-103006904D02*
X115250666Y-103102142D01*
X115250666Y-103102142D02*
X115203047Y-103149761D01*
X115203047Y-103149761D02*
X115107809Y-103197380D01*
X115107809Y-103197380D02*
X115012571Y-103197380D01*
X115012571Y-103197380D02*
X114917333Y-103149761D01*
X114917333Y-103149761D02*
X114869714Y-103102142D01*
X114869714Y-103102142D02*
X114822095Y-103006904D01*
X114822095Y-103006904D02*
X114774476Y-102816428D01*
X114774476Y-102816428D02*
X114774476Y-102578333D01*
X114774476Y-102578333D02*
X114822095Y-102387857D01*
X114822095Y-102387857D02*
X114869714Y-102292619D01*
X114869714Y-102292619D02*
X114917333Y-102245000D01*
X114917333Y-102245000D02*
X115012571Y-102197380D01*
D11*
%TO.C,S1*%
X161338380Y-124612097D02*
X161519809Y-124672573D01*
X161519809Y-124672573D02*
X161822190Y-124672573D01*
X161822190Y-124672573D02*
X161943142Y-124612097D01*
X161943142Y-124612097D02*
X162003618Y-124551621D01*
X162003618Y-124551621D02*
X162064095Y-124430669D01*
X162064095Y-124430669D02*
X162064095Y-124309716D01*
X162064095Y-124309716D02*
X162003618Y-124188764D01*
X162003618Y-124188764D02*
X161943142Y-124128288D01*
X161943142Y-124128288D02*
X161822190Y-124067811D01*
X161822190Y-124067811D02*
X161580285Y-124007335D01*
X161580285Y-124007335D02*
X161459333Y-123946859D01*
X161459333Y-123946859D02*
X161398856Y-123886383D01*
X161398856Y-123886383D02*
X161338380Y-123765430D01*
X161338380Y-123765430D02*
X161338380Y-123644478D01*
X161338380Y-123644478D02*
X161398856Y-123523526D01*
X161398856Y-123523526D02*
X161459333Y-123463050D01*
X161459333Y-123463050D02*
X161580285Y-123402573D01*
X161580285Y-123402573D02*
X161882666Y-123402573D01*
X161882666Y-123402573D02*
X162064095Y-123463050D01*
X163273619Y-124672573D02*
X162547904Y-124672573D01*
X162910761Y-124672573D02*
X162910761Y-123402573D01*
X162910761Y-123402573D02*
X162789809Y-123584002D01*
X162789809Y-123584002D02*
X162668857Y-123704954D01*
X162668857Y-123704954D02*
X162547904Y-123765430D01*
D10*
%TO.C,S3*%
X118498095Y-145567761D02*
X118640952Y-145615380D01*
X118640952Y-145615380D02*
X118879047Y-145615380D01*
X118879047Y-145615380D02*
X118974285Y-145567761D01*
X118974285Y-145567761D02*
X119021904Y-145520142D01*
X119021904Y-145520142D02*
X119069523Y-145424904D01*
X119069523Y-145424904D02*
X119069523Y-145329666D01*
X119069523Y-145329666D02*
X119021904Y-145234428D01*
X119021904Y-145234428D02*
X118974285Y-145186809D01*
X118974285Y-145186809D02*
X118879047Y-145139190D01*
X118879047Y-145139190D02*
X118688571Y-145091571D01*
X118688571Y-145091571D02*
X118593333Y-145043952D01*
X118593333Y-145043952D02*
X118545714Y-144996333D01*
X118545714Y-144996333D02*
X118498095Y-144901095D01*
X118498095Y-144901095D02*
X118498095Y-144805857D01*
X118498095Y-144805857D02*
X118545714Y-144710619D01*
X118545714Y-144710619D02*
X118593333Y-144663000D01*
X118593333Y-144663000D02*
X118688571Y-144615380D01*
X118688571Y-144615380D02*
X118926666Y-144615380D01*
X118926666Y-144615380D02*
X119069523Y-144663000D01*
X119402857Y-144615380D02*
X120021904Y-144615380D01*
X120021904Y-144615380D02*
X119688571Y-144996333D01*
X119688571Y-144996333D02*
X119831428Y-144996333D01*
X119831428Y-144996333D02*
X119926666Y-145043952D01*
X119926666Y-145043952D02*
X119974285Y-145091571D01*
X119974285Y-145091571D02*
X120021904Y-145186809D01*
X120021904Y-145186809D02*
X120021904Y-145424904D01*
X120021904Y-145424904D02*
X119974285Y-145520142D01*
X119974285Y-145520142D02*
X119926666Y-145567761D01*
X119926666Y-145567761D02*
X119831428Y-145615380D01*
X119831428Y-145615380D02*
X119545714Y-145615380D01*
X119545714Y-145615380D02*
X119450476Y-145567761D01*
X119450476Y-145567761D02*
X119402857Y-145520142D01*
D12*
%TO.C,J1*%
X125574000Y-133504000D02*
X117834000Y-133504000D01*
X125574000Y-133504000D02*
X125574000Y-136104000D01*
X117834000Y-133504000D02*
X117834000Y-138704000D01*
X125574000Y-136104000D02*
X122974000Y-136104000D01*
X122974000Y-136104000D02*
X122974000Y-138704000D01*
X125574000Y-137374000D02*
X125574000Y-138704000D01*
X125574000Y-138704000D02*
X124244000Y-138704000D01*
X122974000Y-138704000D02*
X117834000Y-138704000D01*
%TO.C,R17*%
X102091258Y-138190500D02*
X101616742Y-138190500D01*
X102091258Y-137145500D02*
X101616742Y-137145500D01*
%TO.C,R15*%
X106834742Y-123175500D02*
X107309258Y-123175500D01*
X106834742Y-124220500D02*
X107309258Y-124220500D01*
%TO.C,R13*%
X123528258Y-141706500D02*
X123053742Y-141706500D01*
X123528258Y-140661500D02*
X123053742Y-140661500D01*
%TO.C,C12*%
X134148000Y-118197580D02*
X134148000Y-117916420D01*
X135168000Y-118197580D02*
X135168000Y-117916420D01*
%TO.C,R2*%
X151865000Y-144195436D02*
X151865000Y-144649564D01*
X150395000Y-144195436D02*
X150395000Y-144649564D01*
%TO.C,D2*%
X150166500Y-107458000D02*
X150166500Y-109378000D01*
X150166500Y-109378000D02*
X152851500Y-109378000D01*
X152851500Y-107458000D02*
X150166500Y-107458000D01*
%TO.C,C3*%
X132806000Y-142901420D02*
X132806000Y-143182580D01*
X131786000Y-142901420D02*
X131786000Y-143182580D01*
%TO.C,LS1*%
X168190000Y-107656000D02*
G75*
G03*
X168190000Y-107656000I-6100000J0D01*
G01*
%TO.C,R6*%
X121477000Y-105192564D02*
X121477000Y-104738436D01*
X122947000Y-105192564D02*
X122947000Y-104738436D01*
%TO.C,J2*%
X98276000Y-120672000D02*
X101506000Y-120672000D01*
X94106000Y-120672000D02*
X96056000Y-120672000D01*
X103426000Y-121392000D02*
X103426000Y-122472000D01*
X103426000Y-122472000D02*
X103856000Y-122472000D01*
X103426000Y-126692000D02*
X103426000Y-127772000D01*
X98276000Y-128492000D02*
X101506000Y-128492000D01*
X94106000Y-128492000D02*
X94106000Y-120672000D01*
X94106000Y-128492000D02*
X96056000Y-128492000D01*
%TO.C,C13*%
X111597500Y-133130080D02*
X111597500Y-132848920D01*
X112617500Y-133130080D02*
X112617500Y-132848920D01*
%TO.C,C6*%
X128702580Y-123660000D02*
X128421420Y-123660000D01*
X128702580Y-122640000D02*
X128421420Y-122640000D01*
%TO.C,Y1*%
X133356000Y-145208000D02*
X136656000Y-145208000D01*
X136656000Y-145208000D02*
X136656000Y-141208000D01*
%TO.C,R8*%
X118937000Y-105239564D02*
X118937000Y-104785436D01*
X120407000Y-105239564D02*
X120407000Y-104785436D01*
%TO.C,R11*%
X126557000Y-105192564D02*
X126557000Y-104738436D01*
X128027000Y-105192564D02*
X128027000Y-104738436D01*
%TO.C,R9*%
X116143000Y-105343064D02*
X116143000Y-104888936D01*
X117613000Y-105343064D02*
X117613000Y-104888936D01*
%TO.C,F1*%
X107569248Y-118432000D02*
X110341752Y-118432000D01*
X107569248Y-121852000D02*
X110341752Y-121852000D01*
%TO.C,R12*%
X129351000Y-105192564D02*
X129351000Y-104738436D01*
X130821000Y-105192564D02*
X130821000Y-104738436D01*
%TO.C,C5*%
X145328000Y-130362420D02*
X145328000Y-130643580D01*
X144308000Y-130362420D02*
X144308000Y-130643580D01*
%TO.C,C4*%
X142150420Y-118068000D02*
X142431580Y-118068000D01*
X142150420Y-119088000D02*
X142431580Y-119088000D01*
%TO.C,C2*%
X138394000Y-143168420D02*
X138394000Y-143449580D01*
X137374000Y-143168420D02*
X137374000Y-143449580D01*
%TO.C,C8*%
X128335000Y-120871252D02*
X128335000Y-120348748D01*
X129805000Y-120871252D02*
X129805000Y-120348748D01*
%TO.C,R5*%
X132145000Y-105192564D02*
X132145000Y-104738436D01*
X133615000Y-105192564D02*
X133615000Y-104738436D01*
%TO.C,C7*%
X135168000Y-134706420D02*
X135168000Y-134987580D01*
X134148000Y-134706420D02*
X134148000Y-134987580D01*
%TO.C,R4*%
X151599436Y-111493000D02*
X152053564Y-111493000D01*
X151599436Y-112963000D02*
X152053564Y-112963000D01*
%TO.C,J3*%
X95990000Y-144546000D02*
X106270000Y-144546000D01*
X95990000Y-144546000D02*
X95990000Y-141946000D01*
X106270000Y-144546000D02*
X106270000Y-139346000D01*
X95990000Y-141946000D02*
X98590000Y-141946000D01*
X98590000Y-141946000D02*
X98590000Y-139346000D01*
X95990000Y-140676000D02*
X95990000Y-139346000D01*
X95990000Y-139346000D02*
X97320000Y-139346000D01*
X98590000Y-139346000D02*
X106270000Y-139346000D01*
%TO.C,C1*%
X131736420Y-111718000D02*
X132017580Y-111718000D01*
X131736420Y-112738000D02*
X132017580Y-112738000D01*
%TO.C,R7*%
X124017000Y-105192564D02*
X124017000Y-104738436D01*
X125487000Y-105192564D02*
X125487000Y-104738436D01*
%TO.C,R1*%
X151611000Y-127939436D02*
X151611000Y-128393564D01*
X150141000Y-127939436D02*
X150141000Y-128393564D01*
D13*
%TO.C,S2*%
X171160000Y-143570000D02*
X171160000Y-143570000D01*
X171160000Y-143470000D02*
X171160000Y-143470000D01*
D14*
X168560000Y-146970000D02*
X156560000Y-146970000D01*
X168560000Y-144570000D02*
X168560000Y-146970000D01*
X168560000Y-144570000D02*
X168560000Y-144570000D01*
X168560000Y-142370000D02*
X168560000Y-139570000D01*
X168560000Y-137370000D02*
X168560000Y-134970000D01*
X168560000Y-134970000D02*
X156560000Y-134970000D01*
X156560000Y-146970000D02*
X156560000Y-144570000D01*
X156560000Y-142370000D02*
X156560000Y-139570000D01*
X156560000Y-134970000D02*
X156560000Y-137370000D01*
D13*
X171160000Y-143470000D02*
G75*
G03*
X171160000Y-143570000I0J-50000D01*
G01*
X171160000Y-143570000D02*
G75*
G03*
X171160000Y-143470000I0J50000D01*
G01*
D12*
%TO.C,D1*%
X145086500Y-107204000D02*
X145086500Y-109124000D01*
X145086500Y-109124000D02*
X147771500Y-109124000D01*
X147771500Y-107204000D02*
X145086500Y-107204000D01*
%TO.C,U5*%
X111006000Y-135971500D02*
X111006000Y-134171500D01*
X111006000Y-135971500D02*
X111006000Y-136771500D01*
X107886000Y-135971500D02*
X107886000Y-135171500D01*
X107886000Y-135971500D02*
X107886000Y-136771500D01*
%TO.C,C9*%
X128663580Y-126708000D02*
X128382420Y-126708000D01*
X128663580Y-125688000D02*
X128382420Y-125688000D01*
D10*
%TO.C,U3*%
X131883000Y-121165000D02*
X131883000Y-121740000D01*
X131883000Y-121165000D02*
X132558000Y-121165000D01*
X131883000Y-121740000D02*
X130608000Y-121740000D01*
X131883000Y-131515000D02*
X131883000Y-130840000D01*
X131883000Y-131515000D02*
X132558000Y-131515000D01*
X142233000Y-121165000D02*
X141558000Y-121165000D01*
X142233000Y-121165000D02*
X142233000Y-121840000D01*
X142233000Y-131515000D02*
X141558000Y-131515000D01*
X142233000Y-131515000D02*
X142233000Y-130840000D01*
D12*
%TO.C,U2*%
X126344500Y-112134000D02*
X122744500Y-112134000D01*
X126344500Y-112134000D02*
X128544500Y-112134000D01*
X126344500Y-117604000D02*
X124144500Y-117604000D01*
X126344500Y-117604000D02*
X128544500Y-117604000D01*
%TO.C,D3*%
X112821000Y-113990000D02*
X112821000Y-112070000D01*
X112821000Y-112070000D02*
X110136000Y-112070000D01*
X110136000Y-113990000D02*
X112821000Y-113990000D01*
%TO.C,C11*%
X131991580Y-119342000D02*
X131710420Y-119342000D01*
X131991580Y-118322000D02*
X131710420Y-118322000D01*
%TO.C,C14*%
X112617500Y-138436920D02*
X112617500Y-138718080D01*
X111597500Y-138436920D02*
X111597500Y-138718080D01*
%TO.C,U4*%
X113543500Y-123342000D02*
X111743500Y-123342000D01*
X113543500Y-123342000D02*
X114343500Y-123342000D01*
X113543500Y-126462000D02*
X112743500Y-126462000D01*
X113543500Y-126462000D02*
X114343500Y-126462000D01*
%TO.C,R16*%
X111436258Y-116600500D02*
X110961742Y-116600500D01*
X111436258Y-115555500D02*
X110961742Y-115555500D01*
%TO.C,C10*%
X128689580Y-128232000D02*
X128408420Y-128232000D01*
X128689580Y-127212000D02*
X128408420Y-127212000D01*
%TO.C,R3*%
X146519436Y-111493000D02*
X146973564Y-111493000D01*
X146519436Y-112963000D02*
X146973564Y-112963000D01*
%TO.C,R14*%
X106832390Y-124714620D02*
X107306906Y-124714620D01*
X106832390Y-125759620D02*
X107306906Y-125759620D01*
%TO.C,C15*%
X106208000Y-136498580D02*
X106208000Y-136217420D01*
X107228000Y-136498580D02*
X107228000Y-136217420D01*
%TO.C,U1*%
X117402000Y-101908000D02*
X119402000Y-101908000D01*
X99482000Y-101528000D02*
X150022000Y-101528000D01*
X99482000Y-101528000D02*
X99482000Y-82288000D01*
X150022000Y-101528000D02*
X150022000Y-82288000D01*
X150022000Y-82288000D02*
X99482000Y-82288000D01*
%TO.C,R10*%
X113349000Y-105343064D02*
X113349000Y-104888936D01*
X114819000Y-105343064D02*
X114819000Y-104888936D01*
D13*
%TO.C,S1*%
X170906000Y-126806000D02*
X170906000Y-126806000D01*
X170906000Y-126706000D02*
X170906000Y-126706000D01*
D14*
X168306000Y-130206000D02*
X156306000Y-130206000D01*
X168306000Y-127806000D02*
X168306000Y-130206000D01*
X168306000Y-127806000D02*
X168306000Y-127806000D01*
X168306000Y-125606000D02*
X168306000Y-122806000D01*
X168306000Y-120606000D02*
X168306000Y-118206000D01*
X168306000Y-118206000D02*
X156306000Y-118206000D01*
X156306000Y-130206000D02*
X156306000Y-127806000D01*
X156306000Y-125606000D02*
X156306000Y-122806000D01*
X156306000Y-118206000D02*
X156306000Y-120606000D01*
D13*
X170906000Y-126706000D02*
G75*
G03*
X170906000Y-126806000I0J-50000D01*
G01*
X170906000Y-126806000D02*
G75*
G03*
X170906000Y-126706000I0J50000D01*
G01*
D15*
%TO.C,S3*%
X116304000Y-144320000D02*
X116304000Y-146320000D01*
X116604000Y-147120000D02*
X117204000Y-147720000D01*
X117204000Y-142920000D02*
X116604000Y-143520000D01*
X117204000Y-147720000D02*
X120204000Y-147720000D01*
X120204000Y-142920000D02*
X117204000Y-142920000D01*
X120204000Y-142920000D02*
X120804000Y-143520000D01*
X120204000Y-147720000D02*
X120804000Y-147120000D01*
X121104000Y-144320000D02*
X121104000Y-146320000D01*
D14*
X114404000Y-143420000D02*
G75*
G03*
X114404000Y-143420000I-100000J0D01*
G01*
%TD*%
M02*
