M48
; DRILL file {KiCad (7.0.0)} date Wed May  3 15:36:08 2023
; FORMAT={-:-/ absolute / inch / decimal}
; #@! TF.CreationDate,2023-05-03T15:36:08-06:00
; #@! TF.GenerationSoftware,Kicad,Pcbnew,(7.0.0)
; #@! TF.FileFunction,Plated,1,2,PTH
FMAT,2
INCH
; #@! TA.AperFunction,Plated,PTH,ViaDrill
T1C0.0157
; #@! TA.AperFunction,Plated,PTH,ComponentDrill
T2C0.0394
; #@! TA.AperFunction,Plated,PTH,ComponentDrill
T3C0.1181
%
G90
G05
T1
X4.12Y-4.98
X4.2Y-5.29
X4.3Y-5.69
X4.31Y-5.25
X4.33Y-5.85
X4.38Y-4.92
X4.41Y-5.53
X4.4155Y-5.1587
X4.46Y-4.45
X4.5009Y-5.6476
X4.65Y-4.85
X4.66Y-4.97
X4.74Y-5.22
X4.76Y-3.54
X4.76Y-5.16
X4.78Y-5.09
X4.8Y-5.22
X4.8046Y-4.613
X4.83Y-3.47
X4.83Y-3.64
X4.83Y-5.16
X4.93Y-3.55
X4.98Y-4.85
X4.98Y-4.97
X4.98Y-5.03
X4.99Y-3.4
X5.01Y-3.76
X5.02Y-5.13
X5.04Y-4.75
X5.07Y-3.47
X5.08Y-4.67
X5.08Y-5.06
X5.11Y-3.76
X5.12Y-4.67
X5.14Y-4.51
X5.15Y-5.2
X5.17Y-4.76
X5.18Y-3.97
X5.21Y-5.71
X5.22Y-4.94
X5.27Y-4.42
X5.27Y-4.8
X5.28Y-5.74
X5.3Y-4.57
X5.3Y-5.38
X5.33Y-5.15
X5.35Y-5.54
X5.4Y-3.97
X5.43Y-5.57
X5.5Y-5.37
X5.51Y-5.29
X5.52Y-4.81
X5.55Y-5.27
X5.55Y-5.44
X5.57Y-5.13
X5.61Y-4.45
X5.63Y-4.76
X5.64Y-4.58
X5.68Y-4.67
X5.69Y-4.5
X5.69Y-4.54
X5.6909Y-4.2595
X5.7Y-4.35
X5.7Y-5.22
X5.79Y-4.48
X5.8Y-5.11
X5.84Y-5.18
X5.85Y-4.52
X5.87Y-4.92
X5.88Y-4.55
X5.8923Y-4.2688
X5.94Y-5.13
X5.95Y-5.77
X5.98Y-4.9
X6.48Y-4.11
T2
X3.8315Y-5.5384
X3.8315Y-5.6384
X3.9315Y-5.5384
X3.9315Y-5.6384
X4.0315Y-5.5384
X4.0315Y-5.6384
X4.1315Y-5.5384
X4.1315Y-5.6384
X4.6615Y-3.3184
X4.6615Y-3.9184
X4.6915Y-5.3084
X4.6915Y-5.4084
X4.7615Y-3.3184
X4.7615Y-3.9184
X4.7915Y-5.3084
X4.7915Y-5.4084
X4.8615Y-3.3184
X4.8615Y-3.9184
X4.8915Y-5.3084
X4.8915Y-5.4084
X4.9615Y-3.3184
X4.9615Y-3.9184
X5.0615Y-3.3184
X5.0615Y-3.9184
X5.1615Y-3.3184
X5.1615Y-3.9184
X6.3815Y-4.0888
X6.3815Y-4.388
T3
X3.9Y-4.4
X5.7Y-5.8
X6.7Y-3.3
T0
M30
