%TF.GenerationSoftware,KiCad,Pcbnew,(7.0.0)*%
%TF.CreationDate,2023-05-03T15:36:06-06:00*%
%TF.ProjectId,Phase_B_ATMEGA_v3,50686173-655f-4425-9f41-544d4547415f,rev?*%
%TF.SameCoordinates,Original*%
%TF.FileFunction,Copper,L2,Bot*%
%TF.FilePolarity,Positive*%
%FSLAX46Y46*%
G04 Gerber Fmt 4.6, Leading zero omitted, Abs format (unit mm)*
G04 Created by KiCad (PCBNEW (7.0.0)) date 2023-05-03 15:36:06*
%MOMM*%
%LPD*%
G01*
G04 APERTURE LIST*
%TA.AperFunction,ComponentPad*%
%ADD10R,1.700000X1.700000*%
%TD*%
%TA.AperFunction,ComponentPad*%
%ADD11O,1.700000X1.700000*%
%TD*%
%TA.AperFunction,ComponentPad*%
%ADD12C,3.400000*%
%TD*%
%TA.AperFunction,ConnectorPad*%
%ADD13C,6.000000*%
%TD*%
%TA.AperFunction,ComponentPad*%
%ADD14R,2.000000X2.000000*%
%TD*%
%TA.AperFunction,ComponentPad*%
%ADD15C,2.000000*%
%TD*%
%TA.AperFunction,ComponentPad*%
%ADD16R,1.500000X1.500000*%
%TD*%
%TA.AperFunction,ComponentPad*%
%ADD17C,1.500000*%
%TD*%
%TA.AperFunction,ViaPad*%
%ADD18C,0.800000*%
%TD*%
%TA.AperFunction,Conductor*%
%ADD19C,0.250000*%
%TD*%
G04 APERTURE END LIST*
D10*
%TO.P,J1,1,MISO*%
%TO.N,MISO*%
X124243999Y-137373999D03*
D11*
%TO.P,J1,2,VCC*%
%TO.N,+5V*%
X124243999Y-134833999D03*
%TO.P,J1,3,SCK*%
%TO.N,SCK*%
X121703999Y-137373999D03*
%TO.P,J1,4,MOSI*%
%TO.N,MOSI*%
X121703999Y-134833999D03*
%TO.P,J1,5,~{RST}*%
%TO.N,RST*%
X119163999Y-137373999D03*
%TO.P,J1,6,GND*%
%TO.N,GND*%
X119163999Y-134833999D03*
%TD*%
D12*
%TO.P,REF\u002A\u002A,1*%
%TO.N,N/C*%
X99060000Y-111760000D03*
D13*
X99060000Y-111760000D03*
%TD*%
D14*
%TO.P,LS1,1,1*%
%TO.N,Buzzer*%
X162089999Y-111455999D03*
D15*
%TO.P,LS1,2,2*%
%TO.N,GND*%
X162090000Y-103856000D03*
%TD*%
D10*
%TO.P,J3,1,Pin_1*%
%TO.N,GND*%
X97319999Y-140675999D03*
D11*
%TO.P,J3,2,Pin_2*%
%TO.N,TX*%
X97319999Y-143215999D03*
%TO.P,J3,3,Pin_3*%
%TO.N,unconnected-(J3-Pin_3-Pad3)*%
X99859999Y-140675999D03*
%TO.P,J3,4,Pin_4*%
%TO.N,+3.3V*%
X99859999Y-143215999D03*
%TO.P,J3,5,Pin_5*%
%TO.N,Net-(J3-Pin_5)*%
X102399999Y-140675999D03*
%TO.P,J3,6,Pin_6*%
%TO.N,+3.3V*%
X102399999Y-143215999D03*
%TO.P,J3,7,Pin_7*%
%TO.N,RX*%
X104939999Y-140675999D03*
%TO.P,J3,8,Pin_8*%
%TO.N,+3.3V*%
X104939999Y-143215999D03*
%TD*%
D12*
%TO.P,REF\u002A\u002A,1*%
%TO.N,N/C*%
X144780000Y-147320000D03*
D13*
X144780000Y-147320000D03*
%TD*%
D12*
%TO.P,REF\u002A\u002A,1*%
%TO.N,N/C*%
X170180000Y-83820000D03*
D13*
X170180000Y-83820000D03*
%TD*%
D16*
%TO.P,U1,1,e*%
%TO.N,Net-(U1-e)*%
X118401999Y-99527999D03*
D17*
%TO.P,U1,2,d*%
%TO.N,Net-(U1-d)*%
X120942000Y-99528000D03*
%TO.P,U1,3,DPX*%
%TO.N,Net-(U1-DPX)*%
X123482000Y-99528000D03*
%TO.P,U1,4,c*%
%TO.N,Net-(U1-c)*%
X126022000Y-99528000D03*
%TO.P,U1,5,g*%
%TO.N,Net-(U1-g)*%
X128562000Y-99528000D03*
%TO.P,U1,6,CA4*%
%TO.N,Dig4*%
X131102000Y-99528000D03*
%TO.P,U1,7,b*%
%TO.N,Net-(U1-b)*%
X131102000Y-84288000D03*
%TO.P,U1,8,CA3*%
%TO.N,Dig3*%
X128562000Y-84288000D03*
%TO.P,U1,9,CA2*%
%TO.N,Dig2*%
X126022000Y-84288000D03*
%TO.P,U1,10,f*%
%TO.N,Net-(U1-f)*%
X123482000Y-84288000D03*
%TO.P,U1,11,a*%
%TO.N,Net-(U1-a)*%
X120942000Y-84288000D03*
%TO.P,U1,12,CA1*%
%TO.N,Dig1*%
X118402000Y-84288000D03*
%TD*%
D18*
%TO.N,+5V*%
X147320000Y-129794000D03*
X127508000Y-130302000D03*
X129032000Y-128524000D03*
X148336000Y-131572000D03*
%TO.N,GND*%
X149663390Y-108428451D03*
X104648000Y-126492000D03*
X134112000Y-145796000D03*
X140208000Y-122174000D03*
X144780000Y-132588000D03*
X113284000Y-113030000D03*
X112153518Y-131030528D03*
X133858000Y-121920000D03*
X141478000Y-130302000D03*
X135890000Y-140716000D03*
X137922000Y-141478000D03*
X134620000Y-136652000D03*
X112014000Y-140462000D03*
X133858000Y-112268000D03*
X150876000Y-130302000D03*
X130048000Y-118618000D03*
X164592000Y-104394000D03*
X130556000Y-114554000D03*
X132334000Y-145034000D03*
X144272000Y-118618000D03*
X132588000Y-125476000D03*
X129032000Y-118618000D03*
X143002000Y-120904000D03*
X109474000Y-133350000D03*
X111252000Y-124968000D03*
X126492000Y-126238000D03*
X126492000Y-123190000D03*
X126492000Y-127762000D03*
X134620000Y-116078000D03*
X114321944Y-143449234D03*
X151130000Y-146558000D03*
X122037247Y-117170801D03*
X144549596Y-108190482D03*
X106680000Y-134366000D03*
X135382000Y-130810000D03*
%TO.N,SCK*%
X120904000Y-131064000D03*
X120396000Y-132588000D03*
%TO.N,MOSI*%
X122682000Y-131064000D03*
X121920000Y-132588000D03*
%TO.N,TX*%
X139700000Y-136398000D03*
X139954000Y-134366000D03*
%TO.N,RX*%
X140970000Y-138176000D03*
X109982000Y-148590000D03*
X109220000Y-144526000D03*
X140970000Y-133858000D03*
%TO.N,Buzzer*%
X149098000Y-124968000D03*
X151892000Y-124460000D03*
%TO.N,Net-(U1-b)*%
X125222000Y-90170000D03*
X122682000Y-92456000D03*
%TO.N,Net-(U1-f)*%
X120904000Y-89916000D03*
X122682000Y-88138000D03*
%TO.N,Dig4*%
X137160000Y-100838000D03*
X144780000Y-110490000D03*
X131572000Y-100838000D03*
X147066000Y-113792000D03*
%TO.N,Dig3*%
X118110000Y-123190000D03*
X118364000Y-126238000D03*
X130810000Y-132080000D03*
X121412000Y-129286000D03*
%TO.N,Dig2*%
X126746000Y-86360000D03*
X128778000Y-88138000D03*
%TO.N,Dig1*%
X129794000Y-95504000D03*
X142494000Y-113030000D03*
X143256000Y-116332000D03*
X127254000Y-95504000D03*
%TO.N,SH_CP*%
X131318000Y-120904000D03*
X128016000Y-120650000D03*
%TO.N,ST_CP*%
X149352000Y-115570000D03*
X144526000Y-115316000D03*
%TO.N,DS*%
X148590000Y-114808000D03*
X144526000Y-114300000D03*
%TD*%
D19*
%TO.N,+5V*%
X147320000Y-130556000D02*
X148336000Y-131572000D01*
X147320000Y-129794000D02*
X147320000Y-130556000D01*
X129032000Y-128524000D02*
X129032000Y-128778000D01*
X129032000Y-128778000D02*
X127508000Y-130302000D01*
%TO.N,SCK*%
X120904000Y-131064000D02*
X120904000Y-132080000D01*
X120904000Y-132080000D02*
X120396000Y-132588000D01*
%TO.N,MOSI*%
X122682000Y-131826000D02*
X121920000Y-132588000D01*
X122682000Y-131064000D02*
X122682000Y-131826000D01*
%TO.N,TX*%
X139954000Y-134366000D02*
X139954000Y-136144000D01*
X139954000Y-136144000D02*
X139700000Y-136398000D01*
%TO.N,RX*%
X109220000Y-147828000D02*
X109982000Y-148590000D01*
X109220000Y-144526000D02*
X109220000Y-147828000D01*
X140970000Y-133858000D02*
X140970000Y-138176000D01*
%TO.N,Buzzer*%
X149098000Y-124968000D02*
X149606000Y-124460000D01*
X149606000Y-124460000D02*
X151638000Y-124460000D01*
%TO.N,Net-(U1-b)*%
X125222000Y-90170000D02*
X124968000Y-90170000D01*
X124968000Y-90170000D02*
X122682000Y-92456000D01*
%TO.N,Net-(U1-f)*%
X122682000Y-88138000D02*
X120904000Y-89916000D01*
%TO.N,Dig4*%
X144780000Y-111506000D02*
X144780000Y-110490000D01*
X131572000Y-100838000D02*
X137160000Y-100838000D01*
X147066000Y-113792000D02*
X144780000Y-111506000D01*
%TO.N,Dig3*%
X118110000Y-123190000D02*
X118110000Y-125984000D01*
X121929305Y-129286000D02*
X124723305Y-132080000D01*
X130810000Y-132080000D02*
X124723305Y-132080000D01*
X121412000Y-129286000D02*
X121929305Y-129286000D01*
X118110000Y-125984000D02*
X118364000Y-126238000D01*
%TO.N,Dig2*%
X126746000Y-86360000D02*
X128524000Y-88138000D01*
X128524000Y-88138000D02*
X128778000Y-88138000D01*
%TO.N,Dig1*%
X143256000Y-113792000D02*
X143256000Y-116332000D01*
X142494000Y-113030000D02*
X143256000Y-113792000D01*
X127254000Y-95504000D02*
X129794000Y-95504000D01*
%TO.N,SH_CP*%
X128270000Y-120904000D02*
X128016000Y-120650000D01*
X131318000Y-120904000D02*
X128270000Y-120904000D01*
%TO.N,ST_CP*%
X144526000Y-115316000D02*
X144780000Y-115570000D01*
X144780000Y-115570000D02*
X149352000Y-115570000D01*
%TO.N,DS*%
X148373000Y-114591000D02*
X144817000Y-114591000D01*
X148590000Y-114808000D02*
X148373000Y-114591000D01*
X144817000Y-114591000D02*
X144526000Y-114300000D01*
%TD*%
%TA.AperFunction,Conductor*%
%TO.N,GND*%
G36*
X175197500Y-78757113D02*
G01*
X175242887Y-78802500D01*
X175259500Y-78864500D01*
X175259500Y-151513500D01*
X175242887Y-151575500D01*
X175197500Y-151620887D01*
X175135500Y-151637500D01*
X94866500Y-151637500D01*
X94804500Y-151620887D01*
X94759113Y-151575500D01*
X94742500Y-151513500D01*
X94742500Y-143216000D01*
X95964341Y-143216000D01*
X95984937Y-143451408D01*
X95986336Y-143456630D01*
X95986337Y-143456634D01*
X96044694Y-143674430D01*
X96044697Y-143674438D01*
X96046097Y-143679663D01*
X96048385Y-143684570D01*
X96048386Y-143684572D01*
X96143678Y-143888927D01*
X96143681Y-143888933D01*
X96145965Y-143893830D01*
X96149064Y-143898257D01*
X96149066Y-143898259D01*
X96278399Y-144082966D01*
X96278402Y-144082970D01*
X96281505Y-144087401D01*
X96448599Y-144254495D01*
X96453031Y-144257598D01*
X96453033Y-144257600D01*
X96493720Y-144286089D01*
X96642170Y-144390035D01*
X96856337Y-144489903D01*
X97084592Y-144551063D01*
X97320000Y-144571659D01*
X97555408Y-144551063D01*
X97783663Y-144489903D01*
X97997830Y-144390035D01*
X98191401Y-144254495D01*
X98358495Y-144087401D01*
X98429907Y-143985415D01*
X98488425Y-143901842D01*
X98532743Y-143862976D01*
X98590000Y-143848965D01*
X98647257Y-143862976D01*
X98691575Y-143901842D01*
X98818395Y-144082961D01*
X98818401Y-144082968D01*
X98821505Y-144087401D01*
X98988599Y-144254495D01*
X98993031Y-144257598D01*
X98993033Y-144257600D01*
X99033720Y-144286089D01*
X99182170Y-144390035D01*
X99396337Y-144489903D01*
X99624592Y-144551063D01*
X99860000Y-144571659D01*
X100095408Y-144551063D01*
X100323663Y-144489903D01*
X100537830Y-144390035D01*
X100731401Y-144254495D01*
X100898495Y-144087401D01*
X100969907Y-143985415D01*
X101028425Y-143901842D01*
X101072743Y-143862976D01*
X101130000Y-143848965D01*
X101187257Y-143862976D01*
X101231575Y-143901842D01*
X101358395Y-144082961D01*
X101358401Y-144082968D01*
X101361505Y-144087401D01*
X101528599Y-144254495D01*
X101533031Y-144257598D01*
X101533033Y-144257600D01*
X101573720Y-144286089D01*
X101722170Y-144390035D01*
X101936337Y-144489903D01*
X102164592Y-144551063D01*
X102400000Y-144571659D01*
X102635408Y-144551063D01*
X102863663Y-144489903D01*
X103077830Y-144390035D01*
X103271401Y-144254495D01*
X103438495Y-144087401D01*
X103509907Y-143985415D01*
X103568425Y-143901842D01*
X103612743Y-143862976D01*
X103670000Y-143848965D01*
X103727257Y-143862976D01*
X103771575Y-143901842D01*
X103898395Y-144082961D01*
X103898401Y-144082968D01*
X103901505Y-144087401D01*
X104068599Y-144254495D01*
X104073031Y-144257598D01*
X104073033Y-144257600D01*
X104113720Y-144286089D01*
X104262170Y-144390035D01*
X104476337Y-144489903D01*
X104704592Y-144551063D01*
X104940000Y-144571659D01*
X105175408Y-144551063D01*
X105268946Y-144526000D01*
X108314540Y-144526000D01*
X108315219Y-144532460D01*
X108333646Y-144707795D01*
X108333647Y-144707803D01*
X108334326Y-144714256D01*
X108336331Y-144720428D01*
X108336333Y-144720435D01*
X108390813Y-144888105D01*
X108392821Y-144894284D01*
X108487467Y-145058216D01*
X108491811Y-145063041D01*
X108491813Y-145063043D01*
X108562650Y-145141715D01*
X108586264Y-145180249D01*
X108594500Y-145224687D01*
X108594500Y-147750225D01*
X108593978Y-147761280D01*
X108592327Y-147768667D01*
X108592571Y-147776453D01*
X108592571Y-147776461D01*
X108594439Y-147835873D01*
X108594500Y-147839768D01*
X108594500Y-147867350D01*
X108594988Y-147871219D01*
X108594989Y-147871225D01*
X108595004Y-147871343D01*
X108595918Y-147882966D01*
X108597045Y-147918830D01*
X108597046Y-147918837D01*
X108597291Y-147926627D01*
X108599467Y-147934119D01*
X108599468Y-147934121D01*
X108602879Y-147945862D01*
X108606825Y-147964915D01*
X108609336Y-147984792D01*
X108612206Y-147992042D01*
X108612208Y-147992048D01*
X108625414Y-148025404D01*
X108629197Y-148036451D01*
X108641382Y-148078390D01*
X108645353Y-148085105D01*
X108645354Y-148085107D01*
X108651581Y-148095637D01*
X108660136Y-148113099D01*
X108664642Y-148124480D01*
X108664643Y-148124483D01*
X108667514Y-148131732D01*
X108689440Y-148161912D01*
X108693181Y-148167060D01*
X108699593Y-148176822D01*
X108717856Y-148207702D01*
X108717859Y-148207707D01*
X108721830Y-148214420D01*
X108727345Y-148219935D01*
X108735990Y-148228580D01*
X108748626Y-148243374D01*
X108755819Y-148253275D01*
X108755823Y-148253279D01*
X108760406Y-148259587D01*
X108766415Y-148264558D01*
X108766416Y-148264559D01*
X108794058Y-148287426D01*
X108802699Y-148295289D01*
X109043038Y-148535628D01*
X109067278Y-148569926D01*
X109078678Y-148610347D01*
X109092590Y-148742712D01*
X109096326Y-148778256D01*
X109098331Y-148784428D01*
X109098333Y-148784435D01*
X109152813Y-148952105D01*
X109154821Y-148958284D01*
X109158068Y-148963908D01*
X109158069Y-148963910D01*
X109222425Y-149075379D01*
X109249467Y-149122216D01*
X109376129Y-149262888D01*
X109529270Y-149374151D01*
X109702197Y-149451144D01*
X109887354Y-149490500D01*
X110070143Y-149490500D01*
X110076646Y-149490500D01*
X110261803Y-149451144D01*
X110434730Y-149374151D01*
X110587871Y-149262888D01*
X110714533Y-149122216D01*
X110809179Y-148958284D01*
X110867674Y-148778256D01*
X110887460Y-148590000D01*
X110867674Y-148401744D01*
X110809179Y-148221716D01*
X110714533Y-148057784D01*
X110706438Y-148048794D01*
X110592220Y-147921942D01*
X110592219Y-147921941D01*
X110587871Y-147917112D01*
X110582613Y-147913292D01*
X110582611Y-147913290D01*
X110439988Y-147809669D01*
X110439987Y-147809668D01*
X110434730Y-147805849D01*
X110428792Y-147803205D01*
X110267745Y-147731501D01*
X110267740Y-147731499D01*
X110261803Y-147728856D01*
X110255444Y-147727504D01*
X110255440Y-147727503D01*
X110083008Y-147690852D01*
X110083005Y-147690851D01*
X110076646Y-147689500D01*
X110070143Y-147689500D01*
X110017453Y-147689500D01*
X109970000Y-147680061D01*
X109929772Y-147653181D01*
X109881819Y-147605228D01*
X109854939Y-147565000D01*
X109845500Y-147517547D01*
X109845500Y-147320000D01*
X141274696Y-147320000D01*
X141274866Y-147323244D01*
X141293565Y-147680061D01*
X141293898Y-147686404D01*
X141294403Y-147689597D01*
X141294405Y-147689609D01*
X141339932Y-147977051D01*
X141351295Y-148048794D01*
X141352133Y-148051923D01*
X141352136Y-148051935D01*
X141445415Y-148400056D01*
X141445419Y-148400070D01*
X141446258Y-148403199D01*
X141447421Y-148406228D01*
X141447425Y-148406241D01*
X141525774Y-148610347D01*
X141577745Y-148745736D01*
X141744318Y-149072652D01*
X141944149Y-149380366D01*
X142175051Y-149665506D01*
X142434494Y-149924949D01*
X142719634Y-150155851D01*
X143027348Y-150355682D01*
X143354264Y-150522255D01*
X143696801Y-150653742D01*
X144051206Y-150748705D01*
X144413596Y-150806102D01*
X144780000Y-150825304D01*
X145146404Y-150806102D01*
X145508794Y-150748705D01*
X145863199Y-150653742D01*
X146205736Y-150522255D01*
X146532652Y-150355682D01*
X146840366Y-150155851D01*
X147125506Y-149924949D01*
X147384949Y-149665506D01*
X147615851Y-149380366D01*
X147815682Y-149072652D01*
X147982255Y-148745736D01*
X148113742Y-148403199D01*
X148208705Y-148048794D01*
X148266102Y-147686404D01*
X148285304Y-147320000D01*
X148266102Y-146953596D01*
X148208705Y-146591206D01*
X148113742Y-146236801D01*
X147982255Y-145894264D01*
X147815682Y-145567348D01*
X147615851Y-145259634D01*
X147384949Y-144974494D01*
X147125506Y-144715051D01*
X146840366Y-144484149D01*
X146532652Y-144284318D01*
X146529764Y-144282846D01*
X146529758Y-144282843D01*
X146208617Y-144119213D01*
X146205736Y-144117745D01*
X146202715Y-144116585D01*
X146202712Y-144116584D01*
X145866241Y-143987425D01*
X145866228Y-143987421D01*
X145863199Y-143986258D01*
X145860070Y-143985419D01*
X145860056Y-143985415D01*
X145511935Y-143892136D01*
X145511923Y-143892133D01*
X145508794Y-143891295D01*
X145505581Y-143890786D01*
X145505576Y-143890785D01*
X145149609Y-143834405D01*
X145149597Y-143834403D01*
X145146404Y-143833898D01*
X145143171Y-143833728D01*
X145143166Y-143833728D01*
X144783244Y-143814866D01*
X144780000Y-143814696D01*
X144776756Y-143814866D01*
X144416833Y-143833728D01*
X144416826Y-143833728D01*
X144413596Y-143833898D01*
X144410404Y-143834403D01*
X144410390Y-143834405D01*
X144054423Y-143890785D01*
X144054414Y-143890786D01*
X144051206Y-143891295D01*
X144048080Y-143892132D01*
X144048064Y-143892136D01*
X143699943Y-143985415D01*
X143699923Y-143985421D01*
X143696801Y-143986258D01*
X143693776Y-143987418D01*
X143693758Y-143987425D01*
X143357287Y-144116584D01*
X143357277Y-144116588D01*
X143354264Y-144117745D01*
X143351389Y-144119209D01*
X143351382Y-144119213D01*
X143030241Y-144282843D01*
X143030227Y-144282850D01*
X143027348Y-144284318D01*
X143024628Y-144286084D01*
X143024620Y-144286089D01*
X142722362Y-144482377D01*
X142722356Y-144482380D01*
X142719634Y-144484149D01*
X142717114Y-144486189D01*
X142717108Y-144486194D01*
X142437012Y-144713011D01*
X142437001Y-144713020D01*
X142434494Y-144715051D01*
X142432209Y-144717335D01*
X142432199Y-144717345D01*
X142177345Y-144972199D01*
X142177335Y-144972209D01*
X142175051Y-144974494D01*
X142173020Y-144977001D01*
X142173011Y-144977012D01*
X141946194Y-145257108D01*
X141946189Y-145257114D01*
X141944149Y-145259634D01*
X141942380Y-145262356D01*
X141942377Y-145262362D01*
X141746089Y-145564620D01*
X141746084Y-145564628D01*
X141744318Y-145567348D01*
X141742850Y-145570227D01*
X141742843Y-145570241D01*
X141579213Y-145891382D01*
X141577745Y-145894264D01*
X141576588Y-145897277D01*
X141576584Y-145897287D01*
X141447425Y-146233758D01*
X141447418Y-146233776D01*
X141446258Y-146236801D01*
X141445421Y-146239923D01*
X141445415Y-146239943D01*
X141352136Y-146588064D01*
X141352132Y-146588080D01*
X141351295Y-146591206D01*
X141350786Y-146594414D01*
X141350785Y-146594423D01*
X141294405Y-146950390D01*
X141294403Y-146950404D01*
X141293898Y-146953596D01*
X141274696Y-147320000D01*
X109845500Y-147320000D01*
X109845500Y-145224687D01*
X109853736Y-145180249D01*
X109877350Y-145141715D01*
X109952533Y-145058216D01*
X110047179Y-144894284D01*
X110105674Y-144714256D01*
X110125460Y-144526000D01*
X110105674Y-144337744D01*
X110047179Y-144157716D01*
X109952533Y-143993784D01*
X109944997Y-143985415D01*
X109830220Y-143857942D01*
X109830219Y-143857941D01*
X109825871Y-143853112D01*
X109820613Y-143849292D01*
X109820611Y-143849290D01*
X109677988Y-143745669D01*
X109677987Y-143745668D01*
X109672730Y-143741849D01*
X109666792Y-143739205D01*
X109505745Y-143667501D01*
X109505740Y-143667499D01*
X109499803Y-143664856D01*
X109493444Y-143663504D01*
X109493440Y-143663503D01*
X109321008Y-143626852D01*
X109321005Y-143626851D01*
X109314646Y-143625500D01*
X109125354Y-143625500D01*
X109118995Y-143626851D01*
X109118991Y-143626852D01*
X108946559Y-143663503D01*
X108946552Y-143663505D01*
X108940197Y-143664856D01*
X108934262Y-143667498D01*
X108934254Y-143667501D01*
X108773207Y-143739205D01*
X108773202Y-143739207D01*
X108767270Y-143741849D01*
X108762016Y-143745665D01*
X108762011Y-143745669D01*
X108619388Y-143849290D01*
X108619381Y-143849295D01*
X108614129Y-143853112D01*
X108609784Y-143857937D01*
X108609779Y-143857942D01*
X108491813Y-143988956D01*
X108491808Y-143988962D01*
X108487467Y-143993784D01*
X108484222Y-143999404D01*
X108484218Y-143999410D01*
X108396069Y-144152089D01*
X108396066Y-144152094D01*
X108392821Y-144157716D01*
X108390815Y-144163888D01*
X108390813Y-144163894D01*
X108336333Y-144331564D01*
X108336331Y-144331573D01*
X108334326Y-144337744D01*
X108333648Y-144344194D01*
X108333646Y-144344204D01*
X108318334Y-144489903D01*
X108314540Y-144526000D01*
X105268946Y-144526000D01*
X105403663Y-144489903D01*
X105617830Y-144390035D01*
X105811401Y-144254495D01*
X105978495Y-144087401D01*
X106114035Y-143893830D01*
X106213903Y-143679663D01*
X106275063Y-143451408D01*
X106295659Y-143216000D01*
X106275063Y-142980592D01*
X106213903Y-142752337D01*
X106114035Y-142538171D01*
X105978495Y-142344599D01*
X105811401Y-142177505D01*
X105806968Y-142174401D01*
X105806961Y-142174395D01*
X105625842Y-142047575D01*
X105586976Y-142003257D01*
X105572965Y-141946000D01*
X105586976Y-141888743D01*
X105625842Y-141844425D01*
X105806961Y-141717604D01*
X105806961Y-141717603D01*
X105811401Y-141714495D01*
X105978495Y-141547401D01*
X106114035Y-141353830D01*
X106213903Y-141139663D01*
X106275063Y-140911408D01*
X106295659Y-140676000D01*
X106275063Y-140440592D01*
X106213903Y-140212337D01*
X106114035Y-139998171D01*
X105978495Y-139804599D01*
X105811401Y-139637505D01*
X105806970Y-139634402D01*
X105806966Y-139634399D01*
X105622259Y-139505066D01*
X105622257Y-139505064D01*
X105617830Y-139501965D01*
X105612933Y-139499681D01*
X105612927Y-139499678D01*
X105408572Y-139404386D01*
X105408570Y-139404385D01*
X105403663Y-139402097D01*
X105398438Y-139400697D01*
X105398430Y-139400694D01*
X105180634Y-139342337D01*
X105180630Y-139342336D01*
X105175408Y-139340937D01*
X105170020Y-139340465D01*
X105170017Y-139340465D01*
X104945395Y-139320813D01*
X104940000Y-139320341D01*
X104934605Y-139320813D01*
X104709982Y-139340465D01*
X104709977Y-139340465D01*
X104704592Y-139340937D01*
X104699371Y-139342335D01*
X104699365Y-139342337D01*
X104481569Y-139400694D01*
X104481557Y-139400698D01*
X104476337Y-139402097D01*
X104471432Y-139404383D01*
X104471427Y-139404386D01*
X104267081Y-139499675D01*
X104267077Y-139499677D01*
X104262171Y-139501965D01*
X104257738Y-139505068D01*
X104257731Y-139505073D01*
X104073034Y-139634399D01*
X104073029Y-139634402D01*
X104068599Y-139637505D01*
X104064775Y-139641328D01*
X104064769Y-139641334D01*
X103905334Y-139800769D01*
X103905328Y-139800775D01*
X103901505Y-139804599D01*
X103898403Y-139809028D01*
X103898403Y-139809029D01*
X103771574Y-139990160D01*
X103727256Y-140029025D01*
X103669999Y-140043036D01*
X103612742Y-140029025D01*
X103568426Y-139990161D01*
X103438495Y-139804599D01*
X103271401Y-139637505D01*
X103266970Y-139634402D01*
X103266966Y-139634399D01*
X103082259Y-139505066D01*
X103082257Y-139505064D01*
X103077830Y-139501965D01*
X103072933Y-139499681D01*
X103072927Y-139499678D01*
X102868572Y-139404386D01*
X102868570Y-139404385D01*
X102863663Y-139402097D01*
X102858438Y-139400697D01*
X102858430Y-139400694D01*
X102640634Y-139342337D01*
X102640630Y-139342336D01*
X102635408Y-139340937D01*
X102630020Y-139340465D01*
X102630017Y-139340465D01*
X102405395Y-139320813D01*
X102400000Y-139320341D01*
X102394605Y-139320813D01*
X102169982Y-139340465D01*
X102169977Y-139340465D01*
X102164592Y-139340937D01*
X102159371Y-139342335D01*
X102159365Y-139342337D01*
X101941569Y-139400694D01*
X101941557Y-139400698D01*
X101936337Y-139402097D01*
X101931432Y-139404383D01*
X101931427Y-139404386D01*
X101727081Y-139499675D01*
X101727077Y-139499677D01*
X101722171Y-139501965D01*
X101717738Y-139505068D01*
X101717731Y-139505073D01*
X101533034Y-139634399D01*
X101533029Y-139634402D01*
X101528599Y-139637505D01*
X101524775Y-139641328D01*
X101524769Y-139641334D01*
X101365334Y-139800769D01*
X101365328Y-139800775D01*
X101361505Y-139804599D01*
X101358403Y-139809028D01*
X101358403Y-139809029D01*
X101231574Y-139990160D01*
X101187256Y-140029025D01*
X101129999Y-140043036D01*
X101072742Y-140029025D01*
X101028426Y-139990161D01*
X100898495Y-139804599D01*
X100731401Y-139637505D01*
X100726970Y-139634402D01*
X100726966Y-139634399D01*
X100542259Y-139505066D01*
X100542257Y-139505064D01*
X100537830Y-139501965D01*
X100532933Y-139499681D01*
X100532927Y-139499678D01*
X100328572Y-139404386D01*
X100328570Y-139404385D01*
X100323663Y-139402097D01*
X100318438Y-139400697D01*
X100318430Y-139400694D01*
X100100634Y-139342337D01*
X100100630Y-139342336D01*
X100095408Y-139340937D01*
X100090020Y-139340465D01*
X100090017Y-139340465D01*
X99865395Y-139320813D01*
X99860000Y-139320341D01*
X99854605Y-139320813D01*
X99629982Y-139340465D01*
X99629977Y-139340465D01*
X99624592Y-139340937D01*
X99619371Y-139342335D01*
X99619365Y-139342337D01*
X99401569Y-139400694D01*
X99401557Y-139400698D01*
X99396337Y-139402097D01*
X99391432Y-139404383D01*
X99391427Y-139404386D01*
X99187081Y-139499675D01*
X99187077Y-139499677D01*
X99182171Y-139501965D01*
X99177738Y-139505068D01*
X99177731Y-139505073D01*
X98993034Y-139634399D01*
X98993029Y-139634402D01*
X98988599Y-139637505D01*
X98984775Y-139641328D01*
X98984775Y-139641329D01*
X98866285Y-139759819D01*
X98813538Y-139791114D01*
X98752246Y-139793303D01*
X98697401Y-139765850D01*
X98662422Y-139715471D01*
X98616451Y-139592220D01*
X98608037Y-139576810D01*
X98532501Y-139475907D01*
X98520092Y-139463498D01*
X98419189Y-139387962D01*
X98403777Y-139379547D01*
X98284641Y-139335111D01*
X98269667Y-139331573D01*
X98221114Y-139326353D01*
X98214518Y-139326000D01*
X97586326Y-139326000D01*
X97573450Y-139329450D01*
X97570000Y-139342326D01*
X97570000Y-140802000D01*
X97553387Y-140864000D01*
X97508000Y-140909387D01*
X97446000Y-140926000D01*
X95986326Y-140926000D01*
X95973450Y-140929450D01*
X95970000Y-140942326D01*
X95970000Y-141570518D01*
X95970353Y-141577114D01*
X95975573Y-141625667D01*
X95979111Y-141640641D01*
X96023547Y-141759777D01*
X96031962Y-141775189D01*
X96107498Y-141876092D01*
X96119907Y-141888501D01*
X96220810Y-141964037D01*
X96236220Y-141972451D01*
X96359471Y-142018422D01*
X96409850Y-142053401D01*
X96437303Y-142108246D01*
X96435114Y-142169538D01*
X96403819Y-142222284D01*
X96281505Y-142344599D01*
X96278402Y-142349029D01*
X96278399Y-142349034D01*
X96149073Y-142533731D01*
X96149068Y-142533738D01*
X96145965Y-142538171D01*
X96143677Y-142543077D01*
X96143675Y-142543081D01*
X96048386Y-142747427D01*
X96048383Y-142747432D01*
X96046097Y-142752337D01*
X96044698Y-142757557D01*
X96044694Y-142757569D01*
X95986337Y-142975365D01*
X95986335Y-142975371D01*
X95984937Y-142980592D01*
X95964341Y-143216000D01*
X94742500Y-143216000D01*
X94742500Y-140409674D01*
X95970000Y-140409674D01*
X95973450Y-140422549D01*
X95986326Y-140426000D01*
X97053674Y-140426000D01*
X97066549Y-140422549D01*
X97070000Y-140409674D01*
X97070000Y-139342326D01*
X97066549Y-139329450D01*
X97053674Y-139326000D01*
X96425482Y-139326000D01*
X96418885Y-139326353D01*
X96370332Y-139331573D01*
X96355358Y-139335111D01*
X96236222Y-139379547D01*
X96220810Y-139387962D01*
X96119907Y-139463498D01*
X96107498Y-139475907D01*
X96031962Y-139576810D01*
X96023547Y-139592222D01*
X95979111Y-139711358D01*
X95975573Y-139726332D01*
X95970353Y-139774885D01*
X95970000Y-139781482D01*
X95970000Y-140409674D01*
X94742500Y-140409674D01*
X94742500Y-137374000D01*
X117808341Y-137374000D01*
X117828937Y-137609408D01*
X117830336Y-137614630D01*
X117830337Y-137614634D01*
X117888694Y-137832430D01*
X117888697Y-137832438D01*
X117890097Y-137837663D01*
X117892385Y-137842570D01*
X117892386Y-137842572D01*
X117987678Y-138046927D01*
X117987681Y-138046933D01*
X117989965Y-138051830D01*
X117993064Y-138056257D01*
X117993066Y-138056259D01*
X118122399Y-138240966D01*
X118122402Y-138240970D01*
X118125505Y-138245401D01*
X118292599Y-138412495D01*
X118297031Y-138415598D01*
X118297033Y-138415600D01*
X118441260Y-138516589D01*
X118486170Y-138548035D01*
X118700337Y-138647903D01*
X118928592Y-138709063D01*
X119164000Y-138729659D01*
X119399408Y-138709063D01*
X119627663Y-138647903D01*
X119841830Y-138548035D01*
X120035401Y-138412495D01*
X120202495Y-138245401D01*
X120255614Y-138169540D01*
X120332425Y-138059842D01*
X120376743Y-138020976D01*
X120434000Y-138006965D01*
X120491257Y-138020976D01*
X120535575Y-138059842D01*
X120662395Y-138240961D01*
X120662401Y-138240968D01*
X120665505Y-138245401D01*
X120832599Y-138412495D01*
X120837031Y-138415598D01*
X120837033Y-138415600D01*
X120981260Y-138516589D01*
X121026170Y-138548035D01*
X121240337Y-138647903D01*
X121468592Y-138709063D01*
X121704000Y-138729659D01*
X121939408Y-138709063D01*
X122167663Y-138647903D01*
X122381830Y-138548035D01*
X122575401Y-138412495D01*
X122697329Y-138290566D01*
X122750072Y-138259273D01*
X122811365Y-138257084D01*
X122866210Y-138284537D01*
X122901189Y-138334916D01*
X122914437Y-138370435D01*
X122950204Y-138466331D01*
X122955518Y-138473430D01*
X122955519Y-138473431D01*
X123011367Y-138548035D01*
X123036454Y-138581546D01*
X123151669Y-138667796D01*
X123286517Y-138718091D01*
X123346127Y-138724500D01*
X125141872Y-138724499D01*
X125201483Y-138718091D01*
X125336331Y-138667796D01*
X125451546Y-138581546D01*
X125537796Y-138466331D01*
X125588091Y-138331483D01*
X125594500Y-138271873D01*
X125594499Y-136476128D01*
X125588091Y-136416517D01*
X125581185Y-136398000D01*
X138794540Y-136398000D01*
X138795219Y-136404460D01*
X138813646Y-136579795D01*
X138813647Y-136579803D01*
X138814326Y-136586256D01*
X138816331Y-136592428D01*
X138816333Y-136592435D01*
X138851635Y-136701081D01*
X138872821Y-136766284D01*
X138876068Y-136771908D01*
X138876069Y-136771910D01*
X138959010Y-136915569D01*
X138967467Y-136930216D01*
X139094129Y-137070888D01*
X139247270Y-137182151D01*
X139420197Y-137259144D01*
X139605354Y-137298500D01*
X139788143Y-137298500D01*
X139794646Y-137298500D01*
X139979803Y-137259144D01*
X140152730Y-137182151D01*
X140157993Y-137178326D01*
X140158499Y-137178035D01*
X140220499Y-137161422D01*
X140282500Y-137178035D01*
X140327887Y-137223422D01*
X140344500Y-137285422D01*
X140344500Y-137477313D01*
X140336264Y-137521751D01*
X140312650Y-137560285D01*
X140241813Y-137638956D01*
X140241808Y-137638962D01*
X140237467Y-137643784D01*
X140234222Y-137649404D01*
X140234218Y-137649410D01*
X140146069Y-137802089D01*
X140146066Y-137802094D01*
X140142821Y-137807716D01*
X140140815Y-137813888D01*
X140140813Y-137813894D01*
X140086333Y-137981564D01*
X140086331Y-137981573D01*
X140084326Y-137987744D01*
X140083648Y-137994194D01*
X140083646Y-137994204D01*
X140076748Y-138059842D01*
X140064540Y-138176000D01*
X140065219Y-138182460D01*
X140083646Y-138357795D01*
X140083647Y-138357803D01*
X140084326Y-138364256D01*
X140086331Y-138370428D01*
X140086333Y-138370435D01*
X140114792Y-138458021D01*
X140142821Y-138544284D01*
X140146068Y-138549908D01*
X140146069Y-138549910D01*
X140214130Y-138667796D01*
X140237467Y-138708216D01*
X140241811Y-138713041D01*
X140241813Y-138713043D01*
X140252128Y-138724499D01*
X140364129Y-138848888D01*
X140517270Y-138960151D01*
X140690197Y-139037144D01*
X140875354Y-139076500D01*
X141058143Y-139076500D01*
X141064646Y-139076500D01*
X141249803Y-139037144D01*
X141422730Y-138960151D01*
X141575871Y-138848888D01*
X141702533Y-138708216D01*
X141797179Y-138544284D01*
X141855674Y-138364256D01*
X141875460Y-138176000D01*
X141855674Y-137987744D01*
X141797179Y-137807716D01*
X141702533Y-137643784D01*
X141627349Y-137560284D01*
X141603736Y-137521751D01*
X141595500Y-137477313D01*
X141595500Y-134556687D01*
X141603736Y-134512249D01*
X141627350Y-134473715D01*
X141702533Y-134390216D01*
X141797179Y-134226284D01*
X141855674Y-134046256D01*
X141875460Y-133858000D01*
X141855674Y-133669744D01*
X141797179Y-133489716D01*
X141702533Y-133325784D01*
X141639749Y-133256056D01*
X141580220Y-133189942D01*
X141580219Y-133189941D01*
X141575871Y-133185112D01*
X141570613Y-133181292D01*
X141570611Y-133181290D01*
X141427988Y-133077669D01*
X141427987Y-133077668D01*
X141422730Y-133073849D01*
X141412237Y-133069177D01*
X141255745Y-132999501D01*
X141255740Y-132999499D01*
X141249803Y-132996856D01*
X141243444Y-132995504D01*
X141243440Y-132995503D01*
X141071008Y-132958852D01*
X141071005Y-132958851D01*
X141064646Y-132957500D01*
X140875354Y-132957500D01*
X140868995Y-132958851D01*
X140868991Y-132958852D01*
X140696559Y-132995503D01*
X140696552Y-132995505D01*
X140690197Y-132996856D01*
X140684262Y-132999498D01*
X140684254Y-132999501D01*
X140523207Y-133071205D01*
X140523202Y-133071207D01*
X140517270Y-133073849D01*
X140512016Y-133077665D01*
X140512011Y-133077669D01*
X140369388Y-133181290D01*
X140369381Y-133181295D01*
X140364129Y-133185112D01*
X140359784Y-133189937D01*
X140359779Y-133189942D01*
X140241813Y-133320956D01*
X140241808Y-133320962D01*
X140237467Y-133325784D01*
X140234221Y-133331405D01*
X140234221Y-133331406D01*
X140190025Y-133407956D01*
X140155524Y-133446272D01*
X140108422Y-133467245D01*
X140061493Y-133467245D01*
X140061464Y-133467531D01*
X140058752Y-133467245D01*
X140056861Y-133467246D01*
X140055009Y-133466852D01*
X140055004Y-133466851D01*
X140048646Y-133465500D01*
X139859354Y-133465500D01*
X139852995Y-133466851D01*
X139852991Y-133466852D01*
X139680559Y-133503503D01*
X139680552Y-133503505D01*
X139674197Y-133504856D01*
X139668262Y-133507498D01*
X139668254Y-133507501D01*
X139507207Y-133579205D01*
X139507202Y-133579207D01*
X139501270Y-133581849D01*
X139496016Y-133585665D01*
X139496011Y-133585669D01*
X139353388Y-133689290D01*
X139353381Y-133689295D01*
X139348129Y-133693112D01*
X139343784Y-133697937D01*
X139343779Y-133697942D01*
X139225813Y-133828956D01*
X139225808Y-133828962D01*
X139221467Y-133833784D01*
X139218222Y-133839404D01*
X139218218Y-133839410D01*
X139130069Y-133992089D01*
X139130066Y-133992094D01*
X139126821Y-133997716D01*
X139124815Y-134003888D01*
X139124813Y-134003894D01*
X139070333Y-134171564D01*
X139070331Y-134171573D01*
X139068326Y-134177744D01*
X139067648Y-134184194D01*
X139067646Y-134184204D01*
X139049962Y-134352464D01*
X139048540Y-134366000D01*
X139049219Y-134372460D01*
X139067646Y-134547795D01*
X139067647Y-134547803D01*
X139068326Y-134554256D01*
X139070331Y-134560428D01*
X139070333Y-134560435D01*
X139124813Y-134728105D01*
X139126821Y-134734284D01*
X139221467Y-134898216D01*
X139225811Y-134903041D01*
X139225813Y-134903043D01*
X139296650Y-134981715D01*
X139320264Y-135020249D01*
X139328500Y-135064687D01*
X139328500Y-135497156D01*
X139319471Y-135543606D01*
X139293700Y-135583292D01*
X139258733Y-135607776D01*
X139258837Y-135607955D01*
X139256797Y-135609132D01*
X139254939Y-135610434D01*
X139253209Y-135611203D01*
X139253195Y-135611210D01*
X139247270Y-135613849D01*
X139242016Y-135617665D01*
X139242011Y-135617669D01*
X139099388Y-135721290D01*
X139099381Y-135721295D01*
X139094129Y-135725112D01*
X139089784Y-135729937D01*
X139089779Y-135729942D01*
X138971813Y-135860956D01*
X138971808Y-135860962D01*
X138967467Y-135865784D01*
X138964222Y-135871404D01*
X138964218Y-135871410D01*
X138876069Y-136024089D01*
X138876066Y-136024094D01*
X138872821Y-136029716D01*
X138870815Y-136035888D01*
X138870813Y-136035894D01*
X138816333Y-136203564D01*
X138816331Y-136203573D01*
X138814326Y-136209744D01*
X138813648Y-136216194D01*
X138813646Y-136216204D01*
X138795962Y-136384464D01*
X138794540Y-136398000D01*
X125581185Y-136398000D01*
X125537796Y-136281669D01*
X125451546Y-136166454D01*
X125444196Y-136160952D01*
X125343431Y-136085519D01*
X125343430Y-136085518D01*
X125336331Y-136080204D01*
X125266359Y-136054106D01*
X125204916Y-136031189D01*
X125154537Y-135996210D01*
X125127084Y-135941365D01*
X125129273Y-135880072D01*
X125160566Y-135827329D01*
X125282495Y-135705401D01*
X125418035Y-135511830D01*
X125517903Y-135297663D01*
X125579063Y-135069408D01*
X125599659Y-134834000D01*
X125579063Y-134598592D01*
X125524523Y-134395043D01*
X125519305Y-134375569D01*
X125519304Y-134375567D01*
X125517903Y-134370337D01*
X125418035Y-134156171D01*
X125282495Y-133962599D01*
X125115401Y-133795505D01*
X125110970Y-133792402D01*
X125110966Y-133792399D01*
X124926259Y-133663066D01*
X124926257Y-133663064D01*
X124921830Y-133659965D01*
X124916930Y-133657680D01*
X124916927Y-133657678D01*
X124712572Y-133562386D01*
X124712570Y-133562385D01*
X124707663Y-133560097D01*
X124702438Y-133558697D01*
X124702430Y-133558694D01*
X124484634Y-133500337D01*
X124484630Y-133500336D01*
X124479408Y-133498937D01*
X124474020Y-133498465D01*
X124474017Y-133498465D01*
X124249395Y-133478813D01*
X124244000Y-133478341D01*
X124238605Y-133478813D01*
X124013982Y-133498465D01*
X124013977Y-133498465D01*
X124008592Y-133498937D01*
X124003371Y-133500335D01*
X124003365Y-133500337D01*
X123785569Y-133558694D01*
X123785557Y-133558698D01*
X123780337Y-133560097D01*
X123775432Y-133562383D01*
X123775427Y-133562386D01*
X123571081Y-133657675D01*
X123571077Y-133657677D01*
X123566171Y-133659965D01*
X123561738Y-133663068D01*
X123561731Y-133663073D01*
X123377034Y-133792399D01*
X123377029Y-133792402D01*
X123372599Y-133795505D01*
X123368775Y-133799328D01*
X123368769Y-133799334D01*
X123209334Y-133958769D01*
X123209328Y-133958775D01*
X123205505Y-133962599D01*
X123202402Y-133967029D01*
X123202399Y-133967034D01*
X123075575Y-134148159D01*
X123031257Y-134187025D01*
X122974000Y-134201036D01*
X122916743Y-134187025D01*
X122872425Y-134148159D01*
X122861327Y-134132310D01*
X122742495Y-133962599D01*
X122575401Y-133795505D01*
X122570970Y-133792402D01*
X122570966Y-133792399D01*
X122386259Y-133663066D01*
X122386257Y-133663064D01*
X122381830Y-133659965D01*
X122376919Y-133657675D01*
X122308238Y-133625648D01*
X122264005Y-133590964D01*
X122239630Y-133540315D01*
X122240121Y-133484107D01*
X122265378Y-133433892D01*
X122310206Y-133399988D01*
X122372730Y-133372151D01*
X122525871Y-133260888D01*
X122652533Y-133120216D01*
X122747179Y-132956284D01*
X122805674Y-132776256D01*
X122823321Y-132608344D01*
X122834721Y-132567925D01*
X122858958Y-132533630D01*
X123069306Y-132323282D01*
X123077482Y-132315843D01*
X123083877Y-132311786D01*
X123129933Y-132262740D01*
X123132550Y-132260038D01*
X123152120Y-132240470D01*
X123154565Y-132237316D01*
X123162155Y-132228428D01*
X123192062Y-132196582D01*
X123201709Y-132179032D01*
X123212393Y-132162766D01*
X123224674Y-132146936D01*
X123242018Y-132106851D01*
X123247160Y-132096356D01*
X123268197Y-132058092D01*
X123273179Y-132038689D01*
X123279480Y-132020283D01*
X123287438Y-132001895D01*
X123294269Y-131958756D01*
X123296639Y-131947315D01*
X123298445Y-131940284D01*
X123307500Y-131905019D01*
X123307500Y-131884983D01*
X123309025Y-131865597D01*
X123312160Y-131845804D01*
X123312030Y-131844433D01*
X123326021Y-131792651D01*
X123364075Y-131750030D01*
X123417199Y-131728997D01*
X123474115Y-131734016D01*
X123522738Y-131764023D01*
X124226012Y-132467297D01*
X124233461Y-132475483D01*
X124237519Y-132481877D01*
X124243204Y-132487215D01*
X124243206Y-132487218D01*
X124286544Y-132527915D01*
X124289341Y-132530626D01*
X124308835Y-132550120D01*
X124311920Y-132552513D01*
X124312006Y-132552580D01*
X124320878Y-132560158D01*
X124335593Y-132573976D01*
X124352723Y-132590062D01*
X124359553Y-132593817D01*
X124359556Y-132593819D01*
X124370276Y-132599712D01*
X124386527Y-132610386D01*
X124402369Y-132622674D01*
X124409526Y-132625771D01*
X124409528Y-132625772D01*
X124442460Y-132640022D01*
X124452955Y-132645164D01*
X124491213Y-132666197D01*
X124510617Y-132671179D01*
X124529019Y-132677480D01*
X124540246Y-132682338D01*
X124547410Y-132685438D01*
X124585002Y-132691391D01*
X124590544Y-132692269D01*
X124601987Y-132694639D01*
X124636730Y-132703560D01*
X124636731Y-132703560D01*
X124644286Y-132705500D01*
X124664322Y-132705500D01*
X124683707Y-132707025D01*
X124703501Y-132710160D01*
X124741581Y-132706560D01*
X124746981Y-132706050D01*
X124758650Y-132705500D01*
X130106252Y-132705500D01*
X130156685Y-132716219D01*
X130194781Y-132743895D01*
X130194950Y-132743709D01*
X130196728Y-132745310D01*
X130198398Y-132746523D01*
X130204129Y-132752888D01*
X130209387Y-132756708D01*
X130209388Y-132756709D01*
X130236292Y-132776256D01*
X130357270Y-132864151D01*
X130530197Y-132941144D01*
X130715354Y-132980500D01*
X130898143Y-132980500D01*
X130904646Y-132980500D01*
X131089803Y-132941144D01*
X131262730Y-132864151D01*
X131415871Y-132752888D01*
X131542533Y-132612216D01*
X131637179Y-132448284D01*
X131695674Y-132268256D01*
X131715460Y-132080000D01*
X131695674Y-131891744D01*
X131637179Y-131711716D01*
X131542533Y-131547784D01*
X131458539Y-131454500D01*
X131420220Y-131411942D01*
X131420219Y-131411941D01*
X131415871Y-131407112D01*
X131410613Y-131403292D01*
X131410611Y-131403290D01*
X131267988Y-131299669D01*
X131267987Y-131299668D01*
X131262730Y-131295849D01*
X131256792Y-131293205D01*
X131095745Y-131221501D01*
X131095740Y-131221499D01*
X131089803Y-131218856D01*
X131083444Y-131217504D01*
X131083440Y-131217503D01*
X130911008Y-131180852D01*
X130911005Y-131180851D01*
X130904646Y-131179500D01*
X130715354Y-131179500D01*
X130708995Y-131180851D01*
X130708991Y-131180852D01*
X130536559Y-131217503D01*
X130536552Y-131217505D01*
X130530197Y-131218856D01*
X130524262Y-131221498D01*
X130524254Y-131221501D01*
X130363207Y-131293205D01*
X130363202Y-131293207D01*
X130357270Y-131295849D01*
X130352016Y-131299665D01*
X130352011Y-131299669D01*
X130209388Y-131403290D01*
X130209381Y-131403295D01*
X130204129Y-131407112D01*
X130199780Y-131411941D01*
X130199781Y-131411941D01*
X130198399Y-131413476D01*
X130196728Y-131414689D01*
X130194950Y-131416291D01*
X130194781Y-131416104D01*
X130156685Y-131443781D01*
X130106252Y-131454500D01*
X125033757Y-131454500D01*
X124986304Y-131445061D01*
X124946076Y-131418181D01*
X123829895Y-130302000D01*
X126602540Y-130302000D01*
X126603219Y-130308460D01*
X126621646Y-130483795D01*
X126621647Y-130483803D01*
X126622326Y-130490256D01*
X126624331Y-130496428D01*
X126624333Y-130496435D01*
X126678188Y-130662180D01*
X126680821Y-130670284D01*
X126684068Y-130675908D01*
X126684069Y-130675910D01*
X126763279Y-130813107D01*
X126775467Y-130834216D01*
X126779811Y-130839041D01*
X126779813Y-130839043D01*
X126877860Y-130947935D01*
X126902129Y-130974888D01*
X127055270Y-131086151D01*
X127228197Y-131163144D01*
X127413354Y-131202500D01*
X127596143Y-131202500D01*
X127602646Y-131202500D01*
X127787803Y-131163144D01*
X127960730Y-131086151D01*
X128113871Y-130974888D01*
X128240533Y-130834216D01*
X128335179Y-130670284D01*
X128393674Y-130490256D01*
X128411321Y-130322345D01*
X128422721Y-130281926D01*
X128446958Y-130247631D01*
X128900588Y-129794000D01*
X146414540Y-129794000D01*
X146415219Y-129800460D01*
X146433646Y-129975795D01*
X146433647Y-129975803D01*
X146434326Y-129982256D01*
X146436331Y-129988428D01*
X146436333Y-129988435D01*
X146488341Y-130148496D01*
X146492821Y-130162284D01*
X146496068Y-130167908D01*
X146496069Y-130167910D01*
X146577215Y-130308460D01*
X146587467Y-130326216D01*
X146591811Y-130331041D01*
X146591813Y-130331043D01*
X146661412Y-130408340D01*
X146686990Y-130452374D01*
X146691999Y-130496677D01*
X146692327Y-130496667D01*
X146692571Y-130504452D01*
X146692571Y-130504459D01*
X146694439Y-130563873D01*
X146694500Y-130567768D01*
X146694500Y-130595350D01*
X146694988Y-130599219D01*
X146694989Y-130599225D01*
X146695004Y-130599343D01*
X146695918Y-130610966D01*
X146697045Y-130646830D01*
X146697046Y-130646837D01*
X146697291Y-130654627D01*
X146699467Y-130662119D01*
X146699468Y-130662121D01*
X146702879Y-130673862D01*
X146706825Y-130692915D01*
X146709336Y-130712792D01*
X146712206Y-130720042D01*
X146712208Y-130720048D01*
X146725414Y-130753404D01*
X146729197Y-130764451D01*
X146741382Y-130806390D01*
X146745353Y-130813105D01*
X146745354Y-130813107D01*
X146751581Y-130823637D01*
X146760136Y-130841099D01*
X146764642Y-130852480D01*
X146764643Y-130852483D01*
X146767514Y-130859732D01*
X146783841Y-130882204D01*
X146793181Y-130895060D01*
X146799593Y-130904822D01*
X146817856Y-130935702D01*
X146817859Y-130935707D01*
X146821830Y-130942420D01*
X146827345Y-130947935D01*
X146835990Y-130956580D01*
X146848626Y-130971374D01*
X146855819Y-130981275D01*
X146855823Y-130981279D01*
X146860406Y-130987587D01*
X146866415Y-130992558D01*
X146866416Y-130992559D01*
X146894058Y-131015426D01*
X146902699Y-131023289D01*
X147397038Y-131517629D01*
X147421278Y-131551927D01*
X147432678Y-131592348D01*
X147444633Y-131706089D01*
X147450326Y-131760256D01*
X147452331Y-131766428D01*
X147452333Y-131766435D01*
X147499400Y-131911290D01*
X147508821Y-131940284D01*
X147512068Y-131945908D01*
X147512069Y-131945910D01*
X147593215Y-132086460D01*
X147603467Y-132104216D01*
X147607811Y-132109041D01*
X147607813Y-132109043D01*
X147719140Y-132232684D01*
X147730129Y-132244888D01*
X147735387Y-132248708D01*
X147735388Y-132248709D01*
X147754751Y-132262777D01*
X147883270Y-132356151D01*
X148056197Y-132433144D01*
X148241354Y-132472500D01*
X148424143Y-132472500D01*
X148430646Y-132472500D01*
X148615803Y-132433144D01*
X148788730Y-132356151D01*
X148941871Y-132244888D01*
X149068533Y-132104216D01*
X149163179Y-131940284D01*
X149221674Y-131760256D01*
X149241460Y-131572000D01*
X149221674Y-131383744D01*
X149163179Y-131203716D01*
X149068533Y-131039784D01*
X149021534Y-130987587D01*
X148946220Y-130903942D01*
X148946219Y-130903941D01*
X148941871Y-130899112D01*
X148936613Y-130895292D01*
X148936611Y-130895290D01*
X148793988Y-130791669D01*
X148793987Y-130791668D01*
X148788730Y-130787849D01*
X148782792Y-130785205D01*
X148621745Y-130713501D01*
X148621740Y-130713499D01*
X148615803Y-130710856D01*
X148609444Y-130709504D01*
X148609440Y-130709503D01*
X148437008Y-130672852D01*
X148437005Y-130672851D01*
X148430646Y-130671500D01*
X148424143Y-130671500D01*
X148371452Y-130671500D01*
X148323999Y-130662061D01*
X148283771Y-130635181D01*
X148091363Y-130442772D01*
X148062522Y-130397501D01*
X148055516Y-130344283D01*
X148071656Y-130293093D01*
X148147179Y-130162284D01*
X148205674Y-129982256D01*
X148225460Y-129794000D01*
X148205674Y-129605744D01*
X148147179Y-129425716D01*
X148052533Y-129261784D01*
X147925871Y-129121112D01*
X147920613Y-129117292D01*
X147920611Y-129117290D01*
X147777988Y-129013669D01*
X147777987Y-129013668D01*
X147772730Y-129009849D01*
X147766792Y-129007205D01*
X147605745Y-128935501D01*
X147605740Y-128935499D01*
X147599803Y-128932856D01*
X147593444Y-128931504D01*
X147593440Y-128931503D01*
X147421008Y-128894852D01*
X147421005Y-128894851D01*
X147414646Y-128893500D01*
X147225354Y-128893500D01*
X147218995Y-128894851D01*
X147218991Y-128894852D01*
X147046559Y-128931503D01*
X147046552Y-128931505D01*
X147040197Y-128932856D01*
X147034262Y-128935498D01*
X147034254Y-128935501D01*
X146873207Y-129007205D01*
X146873202Y-129007207D01*
X146867270Y-129009849D01*
X146862016Y-129013665D01*
X146862011Y-129013669D01*
X146719388Y-129117290D01*
X146719381Y-129117295D01*
X146714129Y-129121112D01*
X146709784Y-129125937D01*
X146709779Y-129125942D01*
X146591813Y-129256956D01*
X146591808Y-129256962D01*
X146587467Y-129261784D01*
X146584222Y-129267404D01*
X146584218Y-129267410D01*
X146496069Y-129420089D01*
X146496066Y-129420094D01*
X146492821Y-129425716D01*
X146490815Y-129431888D01*
X146490813Y-129431894D01*
X146436333Y-129599564D01*
X146436331Y-129599573D01*
X146434326Y-129605744D01*
X146433648Y-129612194D01*
X146433646Y-129612204D01*
X146417085Y-129769784D01*
X146414540Y-129794000D01*
X128900588Y-129794000D01*
X129291305Y-129403283D01*
X129328541Y-129377691D01*
X129484730Y-129308151D01*
X129637871Y-129196888D01*
X129764533Y-129056216D01*
X129859179Y-128892284D01*
X129917674Y-128712256D01*
X129937460Y-128524000D01*
X129917674Y-128335744D01*
X129859179Y-128155716D01*
X129764533Y-127991784D01*
X129637871Y-127851112D01*
X129632613Y-127847292D01*
X129632611Y-127847290D01*
X129489988Y-127743669D01*
X129489987Y-127743668D01*
X129484730Y-127739849D01*
X129478792Y-127737205D01*
X129317745Y-127665501D01*
X129317740Y-127665499D01*
X129311803Y-127662856D01*
X129305444Y-127661504D01*
X129305440Y-127661503D01*
X129133008Y-127624852D01*
X129133005Y-127624851D01*
X129126646Y-127623500D01*
X128937354Y-127623500D01*
X128930995Y-127624851D01*
X128930991Y-127624852D01*
X128758559Y-127661503D01*
X128758552Y-127661505D01*
X128752197Y-127662856D01*
X128746262Y-127665498D01*
X128746254Y-127665501D01*
X128585207Y-127737205D01*
X128585202Y-127737207D01*
X128579270Y-127739849D01*
X128574016Y-127743665D01*
X128574011Y-127743669D01*
X128431388Y-127847290D01*
X128431381Y-127847295D01*
X128426129Y-127851112D01*
X128421784Y-127855937D01*
X128421779Y-127855942D01*
X128303813Y-127986956D01*
X128303808Y-127986962D01*
X128299467Y-127991784D01*
X128296222Y-127997404D01*
X128296218Y-127997410D01*
X128208069Y-128150089D01*
X128208066Y-128150094D01*
X128204821Y-128155716D01*
X128202815Y-128161888D01*
X128202813Y-128161894D01*
X128148333Y-128329564D01*
X128148331Y-128329573D01*
X128146326Y-128335744D01*
X128145648Y-128342194D01*
X128145646Y-128342204D01*
X128140954Y-128386852D01*
X128126540Y-128524000D01*
X128127219Y-128530460D01*
X128146326Y-128712256D01*
X128144170Y-128712482D01*
X128142210Y-128761965D01*
X128111005Y-128814402D01*
X127560228Y-129365181D01*
X127520000Y-129392061D01*
X127472547Y-129401500D01*
X127413354Y-129401500D01*
X127406995Y-129402851D01*
X127406991Y-129402852D01*
X127234559Y-129439503D01*
X127234552Y-129439505D01*
X127228197Y-129440856D01*
X127222262Y-129443498D01*
X127222254Y-129443501D01*
X127061207Y-129515205D01*
X127061202Y-129515207D01*
X127055270Y-129517849D01*
X127050016Y-129521665D01*
X127050011Y-129521669D01*
X126907388Y-129625290D01*
X126907381Y-129625295D01*
X126902129Y-129629112D01*
X126897784Y-129633937D01*
X126897779Y-129633942D01*
X126779813Y-129764956D01*
X126779808Y-129764962D01*
X126775467Y-129769784D01*
X126772222Y-129775404D01*
X126772218Y-129775410D01*
X126684069Y-129928089D01*
X126684066Y-129928094D01*
X126680821Y-129933716D01*
X126678815Y-129939888D01*
X126678813Y-129939894D01*
X126624333Y-130107564D01*
X126624331Y-130107573D01*
X126622326Y-130113744D01*
X126621648Y-130120194D01*
X126621646Y-130120204D01*
X126606555Y-130263795D01*
X126602540Y-130302000D01*
X123829895Y-130302000D01*
X123695805Y-130167910D01*
X122426591Y-128898695D01*
X122419147Y-128890514D01*
X122415091Y-128884123D01*
X122366080Y-128838098D01*
X122363283Y-128835387D01*
X122346532Y-128818636D01*
X122346531Y-128818635D01*
X122343776Y-128815880D01*
X122340595Y-128813412D01*
X122331719Y-128805830D01*
X122305574Y-128781278D01*
X122305572Y-128781276D01*
X122299887Y-128775938D01*
X122293054Y-128772182D01*
X122293048Y-128772177D01*
X122282330Y-128766285D01*
X122266071Y-128755606D01*
X122256400Y-128748104D01*
X122256397Y-128748102D01*
X122250241Y-128743327D01*
X122243084Y-128740229D01*
X122243081Y-128740228D01*
X122210154Y-128725978D01*
X122199668Y-128720841D01*
X122168237Y-128703562D01*
X122168228Y-128703558D01*
X122161397Y-128699803D01*
X122153840Y-128697862D01*
X122153836Y-128697861D01*
X122141993Y-128694820D01*
X122123589Y-128688519D01*
X122112359Y-128683659D01*
X122112354Y-128683657D01*
X122105201Y-128680562D01*
X122102410Y-128680120D01*
X122046788Y-128645227D01*
X122022221Y-128617943D01*
X122022220Y-128617942D01*
X122017871Y-128613112D01*
X122012613Y-128609292D01*
X122012611Y-128609290D01*
X121869988Y-128505669D01*
X121869987Y-128505668D01*
X121864730Y-128501849D01*
X121858792Y-128499205D01*
X121697745Y-128427501D01*
X121697740Y-128427499D01*
X121691803Y-128424856D01*
X121685444Y-128423504D01*
X121685440Y-128423503D01*
X121513008Y-128386852D01*
X121513005Y-128386851D01*
X121506646Y-128385500D01*
X121317354Y-128385500D01*
X121310995Y-128386851D01*
X121310991Y-128386852D01*
X121138559Y-128423503D01*
X121138552Y-128423505D01*
X121132197Y-128424856D01*
X121126262Y-128427498D01*
X121126254Y-128427501D01*
X120965207Y-128499205D01*
X120965202Y-128499207D01*
X120959270Y-128501849D01*
X120954016Y-128505665D01*
X120954011Y-128505669D01*
X120811388Y-128609290D01*
X120811381Y-128609295D01*
X120806129Y-128613112D01*
X120801784Y-128617937D01*
X120801779Y-128617942D01*
X120683813Y-128748956D01*
X120683808Y-128748962D01*
X120679467Y-128753784D01*
X120676222Y-128759404D01*
X120676218Y-128759410D01*
X120588069Y-128912089D01*
X120588066Y-128912094D01*
X120584821Y-128917716D01*
X120582815Y-128923888D01*
X120582813Y-128923894D01*
X120528333Y-129091564D01*
X120528331Y-129091573D01*
X120526326Y-129097744D01*
X120525648Y-129104194D01*
X120525646Y-129104204D01*
X120509085Y-129261784D01*
X120506540Y-129286000D01*
X120507219Y-129292460D01*
X120525646Y-129467795D01*
X120525647Y-129467803D01*
X120526326Y-129474256D01*
X120528331Y-129480428D01*
X120528333Y-129480435D01*
X120567041Y-129599564D01*
X120584821Y-129654284D01*
X120588068Y-129659908D01*
X120588069Y-129659910D01*
X120669215Y-129800460D01*
X120679467Y-129818216D01*
X120806129Y-129958888D01*
X120810724Y-129962226D01*
X120846478Y-130018892D01*
X120847359Y-130086203D01*
X120812940Y-130144056D01*
X120753365Y-130175400D01*
X120630559Y-130201503D01*
X120630552Y-130201505D01*
X120624197Y-130202856D01*
X120618262Y-130205498D01*
X120618254Y-130205501D01*
X120457207Y-130277205D01*
X120457202Y-130277207D01*
X120451270Y-130279849D01*
X120446016Y-130283665D01*
X120446011Y-130283669D01*
X120303388Y-130387290D01*
X120303381Y-130387295D01*
X120298129Y-130391112D01*
X120293784Y-130395937D01*
X120293779Y-130395942D01*
X120175813Y-130526956D01*
X120175808Y-130526962D01*
X120171467Y-130531784D01*
X120168222Y-130537404D01*
X120168218Y-130537410D01*
X120080069Y-130690089D01*
X120080066Y-130690094D01*
X120076821Y-130695716D01*
X120074815Y-130701888D01*
X120074813Y-130701894D01*
X120020333Y-130869564D01*
X120020331Y-130869573D01*
X120018326Y-130875744D01*
X120017648Y-130882194D01*
X120017646Y-130882204D01*
X120001085Y-131039784D01*
X119998540Y-131064000D01*
X119999219Y-131070460D01*
X120017646Y-131245795D01*
X120017647Y-131245803D01*
X120018326Y-131252256D01*
X120020331Y-131258428D01*
X120020333Y-131258435D01*
X120074813Y-131426105D01*
X120076821Y-131432284D01*
X120080068Y-131437908D01*
X120080069Y-131437910D01*
X120151308Y-131561300D01*
X120167845Y-131627627D01*
X120146722Y-131692639D01*
X120094357Y-131736579D01*
X119959760Y-131796507D01*
X119943270Y-131803849D01*
X119938016Y-131807665D01*
X119938011Y-131807669D01*
X119795388Y-131911290D01*
X119795381Y-131911295D01*
X119790129Y-131915112D01*
X119785784Y-131919937D01*
X119785779Y-131919942D01*
X119667813Y-132050956D01*
X119667808Y-132050962D01*
X119663467Y-132055784D01*
X119660222Y-132061404D01*
X119660218Y-132061410D01*
X119572069Y-132214089D01*
X119572066Y-132214094D01*
X119568821Y-132219716D01*
X119566815Y-132225888D01*
X119566813Y-132225894D01*
X119512333Y-132393564D01*
X119512331Y-132393573D01*
X119510326Y-132399744D01*
X119509648Y-132406194D01*
X119509646Y-132406204D01*
X119493466Y-132560158D01*
X119490540Y-132588000D01*
X119491219Y-132594460D01*
X119509646Y-132769795D01*
X119509647Y-132769803D01*
X119510326Y-132776256D01*
X119512331Y-132782428D01*
X119512333Y-132782435D01*
X119564341Y-132942496D01*
X119568821Y-132956284D01*
X119572068Y-132961908D01*
X119572069Y-132961910D01*
X119638902Y-133077669D01*
X119663467Y-133120216D01*
X119667811Y-133125041D01*
X119667813Y-133125043D01*
X119726249Y-133189942D01*
X119790129Y-133260888D01*
X119943270Y-133372151D01*
X120116197Y-133449144D01*
X120301354Y-133488500D01*
X120484143Y-133488500D01*
X120490646Y-133488500D01*
X120675803Y-133449144D01*
X120848730Y-133372151D01*
X121001871Y-133260888D01*
X121065851Y-133189831D01*
X121123819Y-133153608D01*
X121192177Y-133153607D01*
X121250148Y-133189831D01*
X121309778Y-133256056D01*
X121314129Y-133260888D01*
X121384794Y-133312229D01*
X121427079Y-133366595D01*
X121433831Y-133435142D01*
X121402963Y-133496716D01*
X121344001Y-133532320D01*
X121245567Y-133558695D01*
X121245560Y-133558697D01*
X121240337Y-133560097D01*
X121235432Y-133562383D01*
X121235427Y-133562386D01*
X121031081Y-133657675D01*
X121031077Y-133657677D01*
X121026171Y-133659965D01*
X121021738Y-133663068D01*
X121021731Y-133663073D01*
X120837034Y-133792399D01*
X120837029Y-133792402D01*
X120832599Y-133795505D01*
X120828775Y-133799328D01*
X120828769Y-133799334D01*
X120669334Y-133958769D01*
X120669328Y-133958775D01*
X120665505Y-133962599D01*
X120662403Y-133967028D01*
X120662403Y-133967029D01*
X120535269Y-134148596D01*
X120490951Y-134187461D01*
X120433694Y-134201472D01*
X120376437Y-134187461D01*
X120332119Y-134148595D01*
X120205215Y-133967357D01*
X120198280Y-133959092D01*
X120038909Y-133799721D01*
X120030643Y-133792784D01*
X119846008Y-133663501D01*
X119836676Y-133658113D01*
X119632397Y-133562856D01*
X119622263Y-133559168D01*
X119427780Y-133507056D01*
X119416551Y-133506688D01*
X119414000Y-133517631D01*
X119414000Y-134960000D01*
X119397387Y-135022000D01*
X119352000Y-135067387D01*
X119290000Y-135084000D01*
X117847631Y-135084000D01*
X117836688Y-135086551D01*
X117837056Y-135097780D01*
X117889168Y-135292263D01*
X117892856Y-135302397D01*
X117988113Y-135506676D01*
X117993501Y-135516008D01*
X118122784Y-135700643D01*
X118129721Y-135708909D01*
X118289090Y-135868278D01*
X118297356Y-135875215D01*
X118478595Y-136002120D01*
X118517460Y-136046438D01*
X118531471Y-136103695D01*
X118517460Y-136160952D01*
X118478594Y-136205270D01*
X118297034Y-136332399D01*
X118297029Y-136332402D01*
X118292599Y-136335505D01*
X118288775Y-136339328D01*
X118288769Y-136339334D01*
X118129334Y-136498769D01*
X118129328Y-136498775D01*
X118125505Y-136502599D01*
X118122402Y-136507029D01*
X118122399Y-136507034D01*
X117993073Y-136691731D01*
X117993068Y-136691738D01*
X117989965Y-136696171D01*
X117987677Y-136701077D01*
X117987675Y-136701081D01*
X117892386Y-136905427D01*
X117892383Y-136905432D01*
X117890097Y-136910337D01*
X117888698Y-136915557D01*
X117888694Y-136915569D01*
X117830337Y-137133365D01*
X117830335Y-137133371D01*
X117828937Y-137138592D01*
X117828465Y-137143977D01*
X117828465Y-137143982D01*
X117808813Y-137368605D01*
X117808341Y-137374000D01*
X94742500Y-137374000D01*
X94742500Y-134581448D01*
X117836688Y-134581448D01*
X117847631Y-134584000D01*
X118897674Y-134584000D01*
X118910549Y-134580549D01*
X118914000Y-134567674D01*
X118914000Y-133517631D01*
X118911448Y-133506688D01*
X118900219Y-133507056D01*
X118705736Y-133559168D01*
X118695602Y-133562856D01*
X118491332Y-133658110D01*
X118481982Y-133663508D01*
X118297357Y-133792784D01*
X118289092Y-133799719D01*
X118129719Y-133959092D01*
X118122784Y-133967357D01*
X117993508Y-134151982D01*
X117988110Y-134161332D01*
X117892856Y-134365602D01*
X117889168Y-134375736D01*
X117837056Y-134570219D01*
X117836688Y-134581448D01*
X94742500Y-134581448D01*
X94742500Y-126825935D01*
X99261669Y-126825935D01*
X99292135Y-126998711D01*
X99361623Y-127159804D01*
X99466390Y-127300530D01*
X99600786Y-127413302D01*
X99757567Y-127492040D01*
X99928279Y-127532500D01*
X100056111Y-127532500D01*
X100059709Y-127532500D01*
X100190255Y-127517241D01*
X100355117Y-127457237D01*
X100501696Y-127360830D01*
X100622092Y-127233218D01*
X100709812Y-127081281D01*
X100760130Y-126913210D01*
X100770331Y-126738065D01*
X100739865Y-126565289D01*
X100670377Y-126404196D01*
X100565610Y-126263470D01*
X100527557Y-126231540D01*
X100436745Y-126155339D01*
X100436744Y-126155338D01*
X100431214Y-126150698D01*
X100338810Y-126104291D01*
X100280883Y-126075199D01*
X100280880Y-126075198D01*
X100274433Y-126071960D01*
X100267407Y-126070294D01*
X100267405Y-126070294D01*
X100110749Y-126033165D01*
X100110743Y-126033164D01*
X100103721Y-126031500D01*
X99972291Y-126031500D01*
X99968725Y-126031916D01*
X99968721Y-126031917D01*
X99848915Y-126045920D01*
X99848907Y-126045921D01*
X99841745Y-126046759D01*
X99834967Y-126049225D01*
X99834958Y-126049228D01*
X99683674Y-126104291D01*
X99683671Y-126104292D01*
X99676883Y-126106763D01*
X99670850Y-126110730D01*
X99670842Y-126110735D01*
X99536340Y-126199199D01*
X99536334Y-126199203D01*
X99530304Y-126203170D01*
X99525351Y-126208419D01*
X99525346Y-126208424D01*
X99414865Y-126325527D01*
X99414861Y-126325531D01*
X99409908Y-126330782D01*
X99406299Y-126337032D01*
X99406296Y-126337037D01*
X99325799Y-126476463D01*
X99325796Y-126476468D01*
X99322188Y-126482719D01*
X99320117Y-126489634D01*
X99320117Y-126489636D01*
X99273941Y-126643869D01*
X99273939Y-126643877D01*
X99271870Y-126650790D01*
X99271450Y-126657996D01*
X99271449Y-126658004D01*
X99262088Y-126818725D01*
X99262088Y-126818733D01*
X99261669Y-126825935D01*
X94742500Y-126825935D01*
X94742500Y-123190000D01*
X117204540Y-123190000D01*
X117205219Y-123196460D01*
X117223646Y-123371795D01*
X117223647Y-123371803D01*
X117224326Y-123378256D01*
X117226331Y-123384428D01*
X117226333Y-123384435D01*
X117280813Y-123552105D01*
X117282821Y-123558284D01*
X117286068Y-123563908D01*
X117286069Y-123563910D01*
X117352902Y-123679669D01*
X117377467Y-123722216D01*
X117381811Y-123727041D01*
X117381813Y-123727043D01*
X117452650Y-123805715D01*
X117476264Y-123844249D01*
X117484500Y-123888687D01*
X117484500Y-125906225D01*
X117483978Y-125917280D01*
X117482327Y-125924667D01*
X117482571Y-125932453D01*
X117482571Y-125932461D01*
X117484439Y-125991873D01*
X117484500Y-125995768D01*
X117484500Y-126011103D01*
X117480405Y-126036937D01*
X117481684Y-126037209D01*
X117480331Y-126043570D01*
X117478326Y-126049744D01*
X117477648Y-126056193D01*
X117477647Y-126056199D01*
X117467228Y-126155339D01*
X117458540Y-126238000D01*
X117459219Y-126244460D01*
X117477646Y-126419795D01*
X117477647Y-126419803D01*
X117478326Y-126426256D01*
X117480331Y-126432428D01*
X117480333Y-126432435D01*
X117525813Y-126572405D01*
X117536821Y-126606284D01*
X117540068Y-126611908D01*
X117540069Y-126611910D01*
X117612904Y-126738065D01*
X117631467Y-126770216D01*
X117635811Y-126775041D01*
X117635813Y-126775043D01*
X117753723Y-126905995D01*
X117758129Y-126910888D01*
X117763387Y-126914708D01*
X117763388Y-126914709D01*
X117834699Y-126966519D01*
X117911270Y-127022151D01*
X118084197Y-127099144D01*
X118269354Y-127138500D01*
X118452143Y-127138500D01*
X118458646Y-127138500D01*
X118643803Y-127099144D01*
X118816730Y-127022151D01*
X118969871Y-126910888D01*
X119096533Y-126770216D01*
X119191179Y-126606284D01*
X119249674Y-126426256D01*
X119269460Y-126238000D01*
X119249674Y-126049744D01*
X119191179Y-125869716D01*
X119096533Y-125705784D01*
X118969871Y-125565112D01*
X118964613Y-125561292D01*
X118964611Y-125561290D01*
X118821988Y-125457669D01*
X118821987Y-125457668D01*
X118816730Y-125453849D01*
X118810800Y-125451208D01*
X118810790Y-125451203D01*
X118809061Y-125450434D01*
X118807202Y-125449132D01*
X118805163Y-125447955D01*
X118805266Y-125447776D01*
X118770300Y-125423292D01*
X118744529Y-125383606D01*
X118735500Y-125337156D01*
X118735500Y-124968000D01*
X148192540Y-124968000D01*
X148193219Y-124974460D01*
X148211646Y-125149795D01*
X148211647Y-125149803D01*
X148212326Y-125156256D01*
X148214331Y-125162428D01*
X148214333Y-125162435D01*
X148266341Y-125322496D01*
X148270821Y-125336284D01*
X148274068Y-125341908D01*
X148274069Y-125341910D01*
X148340902Y-125457669D01*
X148365467Y-125500216D01*
X148492129Y-125640888D01*
X148645270Y-125752151D01*
X148818197Y-125829144D01*
X149003354Y-125868500D01*
X149186143Y-125868500D01*
X149192646Y-125868500D01*
X149377803Y-125829144D01*
X149550730Y-125752151D01*
X149703871Y-125640888D01*
X149830533Y-125500216D01*
X149925179Y-125336284D01*
X149978824Y-125171181D01*
X150004605Y-125126528D01*
X150046320Y-125096220D01*
X150096755Y-125085500D01*
X151188252Y-125085500D01*
X151238685Y-125096219D01*
X151276781Y-125123895D01*
X151276950Y-125123709D01*
X151278728Y-125125310D01*
X151280398Y-125126523D01*
X151286129Y-125132888D01*
X151291387Y-125136708D01*
X151291388Y-125136709D01*
X151318292Y-125156256D01*
X151439270Y-125244151D01*
X151612197Y-125321144D01*
X151797354Y-125360500D01*
X151980143Y-125360500D01*
X151986646Y-125360500D01*
X152171803Y-125321144D01*
X152344730Y-125244151D01*
X152497871Y-125132888D01*
X152624533Y-124992216D01*
X152719179Y-124828284D01*
X152777674Y-124648256D01*
X152797460Y-124460000D01*
X152777674Y-124271744D01*
X152719179Y-124091716D01*
X152624533Y-123927784D01*
X152541651Y-123835735D01*
X152502220Y-123791942D01*
X152502219Y-123791941D01*
X152497871Y-123787112D01*
X152492613Y-123783292D01*
X152492611Y-123783290D01*
X152349988Y-123679669D01*
X152349987Y-123679668D01*
X152344730Y-123675849D01*
X152338792Y-123673205D01*
X152177745Y-123601501D01*
X152177740Y-123601499D01*
X152171803Y-123598856D01*
X152165444Y-123597504D01*
X152165440Y-123597503D01*
X151993008Y-123560852D01*
X151993005Y-123560851D01*
X151986646Y-123559500D01*
X151797354Y-123559500D01*
X151790995Y-123560851D01*
X151790991Y-123560852D01*
X151618559Y-123597503D01*
X151618552Y-123597505D01*
X151612197Y-123598856D01*
X151606262Y-123601498D01*
X151606254Y-123601501D01*
X151445207Y-123673205D01*
X151445202Y-123673207D01*
X151439270Y-123675849D01*
X151434016Y-123679665D01*
X151434011Y-123679669D01*
X151291388Y-123783290D01*
X151291381Y-123783295D01*
X151286129Y-123787112D01*
X151281780Y-123791941D01*
X151281781Y-123791941D01*
X151280399Y-123793476D01*
X151278728Y-123794689D01*
X151276950Y-123796291D01*
X151276781Y-123796104D01*
X151238685Y-123823781D01*
X151188252Y-123834500D01*
X149683771Y-123834500D01*
X149672718Y-123833979D01*
X149665332Y-123832328D01*
X149657534Y-123832573D01*
X149598144Y-123834439D01*
X149594250Y-123834500D01*
X149566650Y-123834500D01*
X149562799Y-123834986D01*
X149562768Y-123834988D01*
X149562640Y-123835005D01*
X149551029Y-123835918D01*
X149515171Y-123837045D01*
X149515164Y-123837046D01*
X149507372Y-123837291D01*
X149499888Y-123839465D01*
X149499877Y-123839467D01*
X149488128Y-123842881D01*
X149469083Y-123846825D01*
X149456947Y-123848358D01*
X149456944Y-123848358D01*
X149449208Y-123849336D01*
X149441960Y-123852205D01*
X149441950Y-123852208D01*
X149408592Y-123865415D01*
X149397550Y-123869196D01*
X149363097Y-123879207D01*
X149363092Y-123879208D01*
X149355610Y-123881383D01*
X149348902Y-123885349D01*
X149348897Y-123885352D01*
X149338364Y-123891581D01*
X149320900Y-123900136D01*
X149309524Y-123904640D01*
X149309517Y-123904643D01*
X149302268Y-123907514D01*
X149295962Y-123912094D01*
X149295957Y-123912098D01*
X149266927Y-123933189D01*
X149257169Y-123939598D01*
X149226298Y-123957856D01*
X149219579Y-123961830D01*
X149214063Y-123967344D01*
X149214056Y-123967351D01*
X149205407Y-123976000D01*
X149190624Y-123988626D01*
X149180727Y-123995817D01*
X149180720Y-123995823D01*
X149174413Y-124000406D01*
X149169448Y-124006407D01*
X149169441Y-124006414D01*
X149156100Y-124022542D01*
X149113353Y-124055699D01*
X149060557Y-124067500D01*
X149003354Y-124067500D01*
X148996995Y-124068851D01*
X148996991Y-124068852D01*
X148824559Y-124105503D01*
X148824552Y-124105505D01*
X148818197Y-124106856D01*
X148812262Y-124109498D01*
X148812254Y-124109501D01*
X148651207Y-124181205D01*
X148651202Y-124181207D01*
X148645270Y-124183849D01*
X148640016Y-124187665D01*
X148640011Y-124187669D01*
X148497388Y-124291290D01*
X148497381Y-124291295D01*
X148492129Y-124295112D01*
X148487784Y-124299937D01*
X148487779Y-124299942D01*
X148369813Y-124430956D01*
X148369808Y-124430962D01*
X148365467Y-124435784D01*
X148362222Y-124441404D01*
X148362218Y-124441410D01*
X148274069Y-124594089D01*
X148274066Y-124594094D01*
X148270821Y-124599716D01*
X148268815Y-124605888D01*
X148268813Y-124605894D01*
X148214333Y-124773564D01*
X148214331Y-124773573D01*
X148212326Y-124779744D01*
X148211648Y-124786194D01*
X148211646Y-124786204D01*
X148193962Y-124954464D01*
X148192540Y-124968000D01*
X118735500Y-124968000D01*
X118735500Y-123888687D01*
X118743736Y-123844249D01*
X118767350Y-123805715D01*
X118784100Y-123787112D01*
X118842533Y-123722216D01*
X118937179Y-123558284D01*
X118995674Y-123378256D01*
X119015460Y-123190000D01*
X118995674Y-123001744D01*
X118937179Y-122821716D01*
X118842533Y-122657784D01*
X118795317Y-122605346D01*
X118720220Y-122521942D01*
X118720219Y-122521941D01*
X118715871Y-122517112D01*
X118710613Y-122513292D01*
X118710611Y-122513290D01*
X118567988Y-122409669D01*
X118567987Y-122409668D01*
X118562730Y-122405849D01*
X118556792Y-122403205D01*
X118395745Y-122331501D01*
X118395740Y-122331499D01*
X118389803Y-122328856D01*
X118383444Y-122327504D01*
X118383440Y-122327503D01*
X118211008Y-122290852D01*
X118211005Y-122290851D01*
X118204646Y-122289500D01*
X118015354Y-122289500D01*
X118008995Y-122290851D01*
X118008991Y-122290852D01*
X117836559Y-122327503D01*
X117836552Y-122327505D01*
X117830197Y-122328856D01*
X117824262Y-122331498D01*
X117824254Y-122331501D01*
X117663207Y-122403205D01*
X117663202Y-122403207D01*
X117657270Y-122405849D01*
X117652016Y-122409665D01*
X117652011Y-122409669D01*
X117509388Y-122513290D01*
X117509381Y-122513295D01*
X117504129Y-122517112D01*
X117499784Y-122521937D01*
X117499779Y-122521942D01*
X117381813Y-122652956D01*
X117381808Y-122652962D01*
X117377467Y-122657784D01*
X117374222Y-122663404D01*
X117374218Y-122663410D01*
X117286069Y-122816089D01*
X117286066Y-122816094D01*
X117282821Y-122821716D01*
X117280815Y-122827888D01*
X117280813Y-122827894D01*
X117226333Y-122995564D01*
X117226331Y-122995573D01*
X117224326Y-123001744D01*
X117223648Y-123008194D01*
X117223646Y-123008204D01*
X117212187Y-123117241D01*
X117204540Y-123190000D01*
X94742500Y-123190000D01*
X94742500Y-122425935D01*
X99261669Y-122425935D01*
X99292135Y-122598711D01*
X99361623Y-122759804D01*
X99466390Y-122900530D01*
X99600786Y-123013302D01*
X99757567Y-123092040D01*
X99928279Y-123132500D01*
X100056111Y-123132500D01*
X100059709Y-123132500D01*
X100190255Y-123117241D01*
X100355117Y-123057237D01*
X100501696Y-122960830D01*
X100622092Y-122833218D01*
X100709812Y-122681281D01*
X100760130Y-122513210D01*
X100770331Y-122338065D01*
X100739865Y-122165289D01*
X100670377Y-122004196D01*
X100565610Y-121863470D01*
X100493747Y-121803170D01*
X100436745Y-121755339D01*
X100436744Y-121755338D01*
X100431214Y-121750698D01*
X100311935Y-121690794D01*
X100280883Y-121675199D01*
X100280880Y-121675198D01*
X100274433Y-121671960D01*
X100267407Y-121670294D01*
X100267405Y-121670294D01*
X100110749Y-121633165D01*
X100110743Y-121633164D01*
X100103721Y-121631500D01*
X99972291Y-121631500D01*
X99968725Y-121631916D01*
X99968721Y-121631917D01*
X99848915Y-121645920D01*
X99848907Y-121645921D01*
X99841745Y-121646759D01*
X99834967Y-121649225D01*
X99834958Y-121649228D01*
X99683674Y-121704291D01*
X99683671Y-121704292D01*
X99676883Y-121706763D01*
X99670850Y-121710730D01*
X99670842Y-121710735D01*
X99536340Y-121799199D01*
X99536334Y-121799203D01*
X99530304Y-121803170D01*
X99525351Y-121808419D01*
X99525346Y-121808424D01*
X99414865Y-121925527D01*
X99414861Y-121925531D01*
X99409908Y-121930782D01*
X99406299Y-121937032D01*
X99406296Y-121937037D01*
X99325799Y-122076463D01*
X99325796Y-122076468D01*
X99322188Y-122082719D01*
X99320117Y-122089634D01*
X99320117Y-122089636D01*
X99273941Y-122243869D01*
X99273939Y-122243877D01*
X99271870Y-122250790D01*
X99271450Y-122257996D01*
X99271449Y-122258004D01*
X99262088Y-122418725D01*
X99262088Y-122418733D01*
X99261669Y-122425935D01*
X94742500Y-122425935D01*
X94742500Y-120650000D01*
X127110540Y-120650000D01*
X127111219Y-120656460D01*
X127129646Y-120831795D01*
X127129647Y-120831803D01*
X127130326Y-120838256D01*
X127132331Y-120844428D01*
X127132333Y-120844435D01*
X127186813Y-121012105D01*
X127188821Y-121018284D01*
X127192068Y-121023908D01*
X127192069Y-121023910D01*
X127231528Y-121092256D01*
X127283467Y-121182216D01*
X127287811Y-121187041D01*
X127287813Y-121187043D01*
X127405779Y-121318057D01*
X127410129Y-121322888D01*
X127563270Y-121434151D01*
X127736197Y-121511144D01*
X127921354Y-121550500D01*
X128104143Y-121550500D01*
X128110646Y-121550500D01*
X128191807Y-121533248D01*
X128236982Y-121532067D01*
X128250196Y-121534160D01*
X128288276Y-121530560D01*
X128293676Y-121530050D01*
X128305345Y-121529500D01*
X130614252Y-121529500D01*
X130664685Y-121540219D01*
X130702781Y-121567895D01*
X130702950Y-121567709D01*
X130704728Y-121569310D01*
X130706398Y-121570523D01*
X130712129Y-121576888D01*
X130865270Y-121688151D01*
X131038197Y-121765144D01*
X131223354Y-121804500D01*
X131406143Y-121804500D01*
X131412646Y-121804500D01*
X131597803Y-121765144D01*
X131770730Y-121688151D01*
X131923871Y-121576888D01*
X132050533Y-121436216D01*
X132145179Y-121272284D01*
X132203674Y-121092256D01*
X132223460Y-120904000D01*
X132203674Y-120715744D01*
X132145179Y-120535716D01*
X132050533Y-120371784D01*
X131966539Y-120278500D01*
X131928220Y-120235942D01*
X131928219Y-120235941D01*
X131923871Y-120231112D01*
X131918613Y-120227292D01*
X131918611Y-120227290D01*
X131775988Y-120123669D01*
X131775987Y-120123668D01*
X131770730Y-120119849D01*
X131764792Y-120117205D01*
X131603745Y-120045501D01*
X131603740Y-120045499D01*
X131597803Y-120042856D01*
X131591444Y-120041504D01*
X131591440Y-120041503D01*
X131419008Y-120004852D01*
X131419005Y-120004851D01*
X131412646Y-120003500D01*
X131223354Y-120003500D01*
X131216995Y-120004851D01*
X131216991Y-120004852D01*
X131044559Y-120041503D01*
X131044552Y-120041505D01*
X131038197Y-120042856D01*
X131032262Y-120045498D01*
X131032254Y-120045501D01*
X130871207Y-120117205D01*
X130871202Y-120117207D01*
X130865270Y-120119849D01*
X130860016Y-120123665D01*
X130860011Y-120123669D01*
X130717388Y-120227290D01*
X130717381Y-120227295D01*
X130712129Y-120231112D01*
X130707780Y-120235941D01*
X130707781Y-120235941D01*
X130706399Y-120237476D01*
X130704728Y-120238689D01*
X130702950Y-120240291D01*
X130702781Y-120240104D01*
X130664685Y-120267781D01*
X130614252Y-120278500D01*
X128912913Y-120278500D01*
X128850913Y-120261887D01*
X128805526Y-120216499D01*
X128751783Y-120123413D01*
X128751781Y-120123410D01*
X128748533Y-120117784D01*
X128621871Y-119977112D01*
X128616613Y-119973292D01*
X128616611Y-119973290D01*
X128473988Y-119869669D01*
X128473987Y-119869668D01*
X128468730Y-119865849D01*
X128462792Y-119863205D01*
X128301745Y-119791501D01*
X128301740Y-119791499D01*
X128295803Y-119788856D01*
X128289444Y-119787504D01*
X128289440Y-119787503D01*
X128117008Y-119750852D01*
X128117005Y-119750851D01*
X128110646Y-119749500D01*
X127921354Y-119749500D01*
X127914995Y-119750851D01*
X127914991Y-119750852D01*
X127742559Y-119787503D01*
X127742552Y-119787505D01*
X127736197Y-119788856D01*
X127730262Y-119791498D01*
X127730254Y-119791501D01*
X127569207Y-119863205D01*
X127569202Y-119863207D01*
X127563270Y-119865849D01*
X127558016Y-119869665D01*
X127558011Y-119869669D01*
X127415388Y-119973290D01*
X127415381Y-119973295D01*
X127410129Y-119977112D01*
X127405784Y-119981937D01*
X127405779Y-119981942D01*
X127287813Y-120112956D01*
X127287808Y-120112962D01*
X127283467Y-120117784D01*
X127280222Y-120123404D01*
X127280218Y-120123410D01*
X127192069Y-120276089D01*
X127192066Y-120276094D01*
X127188821Y-120281716D01*
X127186815Y-120287888D01*
X127186813Y-120287894D01*
X127132333Y-120455564D01*
X127132331Y-120455573D01*
X127130326Y-120461744D01*
X127129648Y-120468194D01*
X127129646Y-120468204D01*
X127122551Y-120535716D01*
X127110540Y-120650000D01*
X94742500Y-120650000D01*
X94742500Y-111760000D01*
X95554696Y-111760000D01*
X95554866Y-111763244D01*
X95562739Y-111913484D01*
X95573898Y-112126404D01*
X95574403Y-112129597D01*
X95574405Y-112129609D01*
X95630785Y-112485576D01*
X95631295Y-112488794D01*
X95632133Y-112491923D01*
X95632136Y-112491935D01*
X95725415Y-112840056D01*
X95725419Y-112840070D01*
X95726258Y-112843199D01*
X95727421Y-112846228D01*
X95727425Y-112846241D01*
X95856584Y-113182712D01*
X95857745Y-113185736D01*
X95859213Y-113188617D01*
X96011893Y-113488268D01*
X96024318Y-113512652D01*
X96224149Y-113820366D01*
X96455051Y-114105506D01*
X96714494Y-114364949D01*
X96999634Y-114595851D01*
X97307348Y-114795682D01*
X97634264Y-114962255D01*
X97976801Y-115093742D01*
X98331206Y-115188705D01*
X98693596Y-115246102D01*
X99060000Y-115265304D01*
X99426404Y-115246102D01*
X99788794Y-115188705D01*
X100143199Y-115093742D01*
X100485736Y-114962255D01*
X100812652Y-114795682D01*
X101120366Y-114595851D01*
X101405506Y-114364949D01*
X101664949Y-114105506D01*
X101895851Y-113820366D01*
X102095682Y-113512652D01*
X102262255Y-113185736D01*
X102322036Y-113030000D01*
X141588540Y-113030000D01*
X141589219Y-113036460D01*
X141607646Y-113211795D01*
X141607647Y-113211803D01*
X141608326Y-113218256D01*
X141610331Y-113224428D01*
X141610333Y-113224435D01*
X141621819Y-113259784D01*
X141666821Y-113398284D01*
X141670068Y-113403908D01*
X141670069Y-113403910D01*
X141736902Y-113519669D01*
X141761467Y-113562216D01*
X141765811Y-113567041D01*
X141765813Y-113567043D01*
X141816458Y-113623290D01*
X141888129Y-113702888D01*
X142041270Y-113814151D01*
X142214197Y-113891144D01*
X142399354Y-113930500D01*
X142458548Y-113930500D01*
X142506001Y-113939939D01*
X142546229Y-113966819D01*
X142594181Y-114014771D01*
X142621061Y-114054999D01*
X142630500Y-114102452D01*
X142630500Y-115633313D01*
X142622264Y-115677751D01*
X142598650Y-115716285D01*
X142527813Y-115794956D01*
X142527808Y-115794962D01*
X142523467Y-115799784D01*
X142520222Y-115805404D01*
X142520218Y-115805410D01*
X142432069Y-115958089D01*
X142432066Y-115958094D01*
X142428821Y-115963716D01*
X142426815Y-115969888D01*
X142426813Y-115969894D01*
X142372333Y-116137564D01*
X142372331Y-116137573D01*
X142370326Y-116143744D01*
X142369648Y-116150194D01*
X142369646Y-116150204D01*
X142359504Y-116246709D01*
X142350540Y-116332000D01*
X142351219Y-116338460D01*
X142369646Y-116513795D01*
X142369647Y-116513803D01*
X142370326Y-116520256D01*
X142372331Y-116526428D01*
X142372333Y-116526435D01*
X142426813Y-116694105D01*
X142428821Y-116700284D01*
X142523467Y-116864216D01*
X142650129Y-117004888D01*
X142803270Y-117116151D01*
X142976197Y-117193144D01*
X143161354Y-117232500D01*
X143344143Y-117232500D01*
X143350646Y-117232500D01*
X143535803Y-117193144D01*
X143708730Y-117116151D01*
X143861871Y-117004888D01*
X143988533Y-116864216D01*
X144083179Y-116700284D01*
X144141674Y-116520256D01*
X144161460Y-116332000D01*
X144160716Y-116324924D01*
X144160781Y-116324433D01*
X144160781Y-116319039D01*
X144161491Y-116319039D01*
X144168270Y-116267525D01*
X144201060Y-116219809D01*
X144251941Y-116192182D01*
X144309814Y-116190666D01*
X144431354Y-116216500D01*
X144614143Y-116216500D01*
X144620646Y-116216500D01*
X144701807Y-116199248D01*
X144746982Y-116198067D01*
X144760196Y-116200160D01*
X144798276Y-116196560D01*
X144803676Y-116196050D01*
X144815345Y-116195500D01*
X148648252Y-116195500D01*
X148698685Y-116206219D01*
X148736781Y-116233895D01*
X148736950Y-116233709D01*
X148738728Y-116235310D01*
X148740398Y-116236523D01*
X148746129Y-116242888D01*
X148899270Y-116354151D01*
X149072197Y-116431144D01*
X149257354Y-116470500D01*
X149440143Y-116470500D01*
X149446646Y-116470500D01*
X149631803Y-116431144D01*
X149804730Y-116354151D01*
X149957871Y-116242888D01*
X150084533Y-116102216D01*
X150179179Y-115938284D01*
X150237674Y-115758256D01*
X150257460Y-115570000D01*
X150237674Y-115381744D01*
X150179179Y-115201716D01*
X150084533Y-115037784D01*
X150015203Y-114960786D01*
X149962220Y-114901942D01*
X149962219Y-114901941D01*
X149957871Y-114897112D01*
X149952613Y-114893292D01*
X149952611Y-114893290D01*
X149809988Y-114789669D01*
X149809987Y-114789668D01*
X149804730Y-114785849D01*
X149798792Y-114783205D01*
X149637738Y-114711498D01*
X149637734Y-114711496D01*
X149631803Y-114708856D01*
X149625452Y-114707506D01*
X149625449Y-114707505D01*
X149565218Y-114694702D01*
X149508028Y-114665561D01*
X149473070Y-114611730D01*
X149419186Y-114445894D01*
X149417179Y-114439716D01*
X149322533Y-114275784D01*
X149195871Y-114135112D01*
X149190613Y-114131292D01*
X149190611Y-114131290D01*
X149047988Y-114027669D01*
X149047987Y-114027668D01*
X149042730Y-114023849D01*
X149022341Y-114014771D01*
X148875745Y-113949501D01*
X148875740Y-113949499D01*
X148869803Y-113946856D01*
X148863444Y-113945504D01*
X148863440Y-113945503D01*
X148691008Y-113908852D01*
X148691005Y-113908851D01*
X148684646Y-113907500D01*
X148495354Y-113907500D01*
X148488995Y-113908851D01*
X148488991Y-113908852D01*
X148316557Y-113945503D01*
X148316546Y-113945506D01*
X148310197Y-113946856D01*
X148304262Y-113949498D01*
X148304254Y-113949501D01*
X148292398Y-113954780D01*
X148241964Y-113965500D01*
X148090941Y-113965500D01*
X148025231Y-113946658D01*
X147979491Y-113895859D01*
X147967620Y-113828540D01*
X147970781Y-113798462D01*
X147970781Y-113798460D01*
X147971460Y-113792000D01*
X147951674Y-113603744D01*
X147893179Y-113423716D01*
X147798533Y-113259784D01*
X147755323Y-113211795D01*
X147676220Y-113123942D01*
X147676219Y-113123941D01*
X147671871Y-113119112D01*
X147666613Y-113115292D01*
X147666611Y-113115290D01*
X147523988Y-113011669D01*
X147523987Y-113011668D01*
X147518730Y-113007849D01*
X147512792Y-113005205D01*
X147351745Y-112933501D01*
X147351740Y-112933499D01*
X147345803Y-112930856D01*
X147339444Y-112929504D01*
X147339440Y-112929503D01*
X147167008Y-112892852D01*
X147167005Y-112892851D01*
X147160646Y-112891500D01*
X147154143Y-112891500D01*
X147101453Y-112891500D01*
X147054000Y-112882061D01*
X147013772Y-112855181D01*
X146659169Y-112500578D01*
X160589500Y-112500578D01*
X160589501Y-112503872D01*
X160589853Y-112507150D01*
X160589854Y-112507161D01*
X160595079Y-112555768D01*
X160595080Y-112555773D01*
X160595909Y-112563483D01*
X160598619Y-112570749D01*
X160598620Y-112570753D01*
X160630449Y-112656089D01*
X160646204Y-112698331D01*
X160732454Y-112813546D01*
X160847669Y-112899796D01*
X160982517Y-112950091D01*
X161042127Y-112956500D01*
X163137872Y-112956499D01*
X163197483Y-112950091D01*
X163332331Y-112899796D01*
X163447546Y-112813546D01*
X163533796Y-112698331D01*
X163584091Y-112563483D01*
X163590500Y-112503873D01*
X163590499Y-110408128D01*
X163584091Y-110348517D01*
X163533796Y-110213669D01*
X163447546Y-110098454D01*
X163332331Y-110012204D01*
X163197483Y-109961909D01*
X163189770Y-109961079D01*
X163189767Y-109961079D01*
X163141180Y-109955855D01*
X163141169Y-109955854D01*
X163137873Y-109955500D01*
X163134550Y-109955500D01*
X161045439Y-109955500D01*
X161045420Y-109955500D01*
X161042128Y-109955501D01*
X161038850Y-109955853D01*
X161038838Y-109955854D01*
X160990231Y-109961079D01*
X160990225Y-109961080D01*
X160982517Y-109961909D01*
X160975252Y-109964618D01*
X160975246Y-109964620D01*
X160855980Y-110009104D01*
X160855978Y-110009104D01*
X160847669Y-110012204D01*
X160840572Y-110017516D01*
X160840568Y-110017519D01*
X160739550Y-110093141D01*
X160739546Y-110093144D01*
X160732454Y-110098454D01*
X160727144Y-110105546D01*
X160727141Y-110105550D01*
X160651519Y-110206568D01*
X160651516Y-110206572D01*
X160646204Y-110213669D01*
X160643104Y-110221978D01*
X160643104Y-110221980D01*
X160598620Y-110341247D01*
X160598619Y-110341250D01*
X160595909Y-110348517D01*
X160595079Y-110356227D01*
X160595079Y-110356232D01*
X160589855Y-110404819D01*
X160589854Y-110404831D01*
X160589500Y-110408127D01*
X160589500Y-110411448D01*
X160589500Y-110411449D01*
X160589500Y-112500560D01*
X160589500Y-112500578D01*
X146659169Y-112500578D01*
X145441819Y-111283228D01*
X145414939Y-111243000D01*
X145405500Y-111195547D01*
X145405500Y-111188687D01*
X145413736Y-111144249D01*
X145437350Y-111105715D01*
X145512533Y-111022216D01*
X145607179Y-110858284D01*
X145665674Y-110678256D01*
X145685460Y-110490000D01*
X145665674Y-110301744D01*
X145607179Y-110121716D01*
X145512533Y-109957784D01*
X145385871Y-109817112D01*
X145380613Y-109813292D01*
X145380611Y-109813290D01*
X145237988Y-109709669D01*
X145237987Y-109709668D01*
X145232730Y-109705849D01*
X145226792Y-109703205D01*
X145065745Y-109631501D01*
X145065740Y-109631499D01*
X145059803Y-109628856D01*
X145053444Y-109627504D01*
X145053440Y-109627503D01*
X144881008Y-109590852D01*
X144881005Y-109590851D01*
X144874646Y-109589500D01*
X144685354Y-109589500D01*
X144678995Y-109590851D01*
X144678991Y-109590852D01*
X144506559Y-109627503D01*
X144506552Y-109627505D01*
X144500197Y-109628856D01*
X144494262Y-109631498D01*
X144494254Y-109631501D01*
X144333207Y-109703205D01*
X144333202Y-109703207D01*
X144327270Y-109705849D01*
X144322016Y-109709665D01*
X144322011Y-109709669D01*
X144179388Y-109813290D01*
X144179381Y-109813295D01*
X144174129Y-109817112D01*
X144169784Y-109821937D01*
X144169779Y-109821942D01*
X144051813Y-109952956D01*
X144051808Y-109952962D01*
X144047467Y-109957784D01*
X144044222Y-109963404D01*
X144044218Y-109963410D01*
X143956069Y-110116089D01*
X143956066Y-110116094D01*
X143952821Y-110121716D01*
X143950815Y-110127888D01*
X143950813Y-110127894D01*
X143896333Y-110295564D01*
X143896331Y-110295573D01*
X143894326Y-110301744D01*
X143893648Y-110308194D01*
X143893646Y-110308204D01*
X143875962Y-110476464D01*
X143874540Y-110490000D01*
X143875219Y-110496460D01*
X143893646Y-110671795D01*
X143893647Y-110671803D01*
X143894326Y-110678256D01*
X143896331Y-110684428D01*
X143896333Y-110684435D01*
X143950813Y-110852105D01*
X143952821Y-110858284D01*
X144047467Y-111022216D01*
X144051811Y-111027041D01*
X144051813Y-111027043D01*
X144122650Y-111105715D01*
X144146264Y-111144249D01*
X144154500Y-111188687D01*
X144154500Y-111428225D01*
X144153978Y-111439280D01*
X144152327Y-111446667D01*
X144152571Y-111454453D01*
X144152571Y-111454461D01*
X144154439Y-111513873D01*
X144154500Y-111517768D01*
X144154500Y-111545350D01*
X144154988Y-111549219D01*
X144154989Y-111549225D01*
X144155004Y-111549343D01*
X144155918Y-111560966D01*
X144157045Y-111596830D01*
X144157046Y-111596837D01*
X144157291Y-111604627D01*
X144159467Y-111612119D01*
X144159468Y-111612121D01*
X144162879Y-111623862D01*
X144166825Y-111642915D01*
X144169336Y-111662792D01*
X144172206Y-111670042D01*
X144172208Y-111670048D01*
X144185414Y-111703404D01*
X144189197Y-111714451D01*
X144201382Y-111756390D01*
X144205353Y-111763105D01*
X144205354Y-111763107D01*
X144211581Y-111773637D01*
X144220136Y-111791099D01*
X144224642Y-111802480D01*
X144224643Y-111802483D01*
X144227514Y-111809732D01*
X144249440Y-111839912D01*
X144253181Y-111845060D01*
X144259593Y-111854822D01*
X144277856Y-111885702D01*
X144277859Y-111885707D01*
X144281830Y-111892420D01*
X144287344Y-111897934D01*
X144287345Y-111897935D01*
X144295990Y-111906580D01*
X144308626Y-111921374D01*
X144315819Y-111931275D01*
X144315823Y-111931279D01*
X144320406Y-111937587D01*
X144326415Y-111942558D01*
X144326416Y-111942559D01*
X144354058Y-111965426D01*
X144362699Y-111973289D01*
X146127038Y-113737629D01*
X146151277Y-113771925D01*
X146162677Y-113812346D01*
X146164379Y-113828536D01*
X146152510Y-113895856D01*
X146106770Y-113946657D01*
X146041059Y-113965500D01*
X145444276Y-113965500D01*
X145382276Y-113948887D01*
X145336889Y-113903500D01*
X145261781Y-113773410D01*
X145258533Y-113767784D01*
X145131871Y-113627112D01*
X145126613Y-113623292D01*
X145126611Y-113623290D01*
X144983988Y-113519669D01*
X144983987Y-113519668D01*
X144978730Y-113515849D01*
X144965050Y-113509758D01*
X144811745Y-113441501D01*
X144811740Y-113441499D01*
X144805803Y-113438856D01*
X144799444Y-113437504D01*
X144799440Y-113437503D01*
X144627008Y-113400852D01*
X144627005Y-113400851D01*
X144620646Y-113399500D01*
X144431354Y-113399500D01*
X144424995Y-113400851D01*
X144424991Y-113400852D01*
X144252559Y-113437503D01*
X144252552Y-113437505D01*
X144246197Y-113438856D01*
X144240262Y-113441498D01*
X144240254Y-113441501D01*
X144079207Y-113513205D01*
X144079202Y-113513207D01*
X144073270Y-113515849D01*
X144068019Y-113519663D01*
X144068012Y-113519668D01*
X144005932Y-113564772D01*
X143942130Y-113588120D01*
X143875602Y-113574343D01*
X143826321Y-113527581D01*
X143824414Y-113524356D01*
X143815863Y-113506901D01*
X143808486Y-113488268D01*
X143782808Y-113452925D01*
X143776401Y-113443171D01*
X143758142Y-113412296D01*
X143758141Y-113412294D01*
X143754170Y-113405580D01*
X143740005Y-113391415D01*
X143727370Y-113376622D01*
X143715594Y-113360413D01*
X143709583Y-113355440D01*
X143709581Y-113355438D01*
X143681941Y-113332573D01*
X143673300Y-113324710D01*
X143432961Y-113084370D01*
X143408721Y-113050072D01*
X143397321Y-113009650D01*
X143391148Y-112950920D01*
X143379674Y-112841744D01*
X143321179Y-112661716D01*
X143226533Y-112497784D01*
X143218438Y-112488794D01*
X143104220Y-112361942D01*
X143104219Y-112361941D01*
X143099871Y-112357112D01*
X143094613Y-112353292D01*
X143094611Y-112353290D01*
X142951988Y-112249669D01*
X142951987Y-112249668D01*
X142946730Y-112245849D01*
X142940792Y-112243205D01*
X142779745Y-112171501D01*
X142779740Y-112171499D01*
X142773803Y-112168856D01*
X142767444Y-112167504D01*
X142767440Y-112167503D01*
X142595008Y-112130852D01*
X142595005Y-112130851D01*
X142588646Y-112129500D01*
X142399354Y-112129500D01*
X142392995Y-112130851D01*
X142392991Y-112130852D01*
X142220559Y-112167503D01*
X142220552Y-112167505D01*
X142214197Y-112168856D01*
X142208262Y-112171498D01*
X142208254Y-112171501D01*
X142047207Y-112243205D01*
X142047202Y-112243207D01*
X142041270Y-112245849D01*
X142036016Y-112249665D01*
X142036011Y-112249669D01*
X141893388Y-112353290D01*
X141893381Y-112353295D01*
X141888129Y-112357112D01*
X141883784Y-112361937D01*
X141883779Y-112361942D01*
X141765813Y-112492956D01*
X141765808Y-112492962D01*
X141761467Y-112497784D01*
X141758222Y-112503404D01*
X141758218Y-112503410D01*
X141670069Y-112656089D01*
X141670066Y-112656094D01*
X141666821Y-112661716D01*
X141664815Y-112667888D01*
X141664813Y-112667894D01*
X141610333Y-112835564D01*
X141610331Y-112835573D01*
X141608326Y-112841744D01*
X141607648Y-112848194D01*
X141607646Y-112848204D01*
X141596851Y-112950920D01*
X141588540Y-113030000D01*
X102322036Y-113030000D01*
X102393742Y-112843199D01*
X102488705Y-112488794D01*
X102546102Y-112126404D01*
X102565304Y-111760000D01*
X102546102Y-111393596D01*
X102488705Y-111031206D01*
X102393742Y-110676801D01*
X102262255Y-110334264D01*
X102095682Y-110007348D01*
X101895851Y-109699634D01*
X101664949Y-109414494D01*
X101405506Y-109155051D01*
X101120366Y-108924149D01*
X100812652Y-108724318D01*
X100809764Y-108722846D01*
X100809758Y-108722843D01*
X100488617Y-108559213D01*
X100485736Y-108557745D01*
X100482715Y-108556585D01*
X100482712Y-108556584D01*
X100146241Y-108427425D01*
X100146228Y-108427421D01*
X100143199Y-108426258D01*
X100140070Y-108425419D01*
X100140056Y-108425415D01*
X99791935Y-108332136D01*
X99791923Y-108332133D01*
X99788794Y-108331295D01*
X99785581Y-108330786D01*
X99785576Y-108330785D01*
X99429609Y-108274405D01*
X99429597Y-108274403D01*
X99426404Y-108273898D01*
X99423171Y-108273728D01*
X99423166Y-108273728D01*
X99063244Y-108254866D01*
X99060000Y-108254696D01*
X99056756Y-108254866D01*
X98696833Y-108273728D01*
X98696826Y-108273728D01*
X98693596Y-108273898D01*
X98690404Y-108274403D01*
X98690390Y-108274405D01*
X98334423Y-108330785D01*
X98334414Y-108330786D01*
X98331206Y-108331295D01*
X98328080Y-108332132D01*
X98328064Y-108332136D01*
X97979943Y-108425415D01*
X97979923Y-108425421D01*
X97976801Y-108426258D01*
X97973776Y-108427418D01*
X97973758Y-108427425D01*
X97637287Y-108556584D01*
X97637277Y-108556588D01*
X97634264Y-108557745D01*
X97631389Y-108559209D01*
X97631382Y-108559213D01*
X97310241Y-108722843D01*
X97310227Y-108722850D01*
X97307348Y-108724318D01*
X97304628Y-108726084D01*
X97304620Y-108726089D01*
X97002362Y-108922377D01*
X97002356Y-108922380D01*
X96999634Y-108924149D01*
X96997114Y-108926189D01*
X96997108Y-108926194D01*
X96717012Y-109153011D01*
X96717001Y-109153020D01*
X96714494Y-109155051D01*
X96712209Y-109157335D01*
X96712199Y-109157345D01*
X96457345Y-109412199D01*
X96457335Y-109412209D01*
X96455051Y-109414494D01*
X96453020Y-109417001D01*
X96453011Y-109417012D01*
X96226194Y-109697108D01*
X96226189Y-109697114D01*
X96224149Y-109699634D01*
X96222380Y-109702356D01*
X96222377Y-109702362D01*
X96026089Y-110004620D01*
X96026084Y-110004628D01*
X96024318Y-110007348D01*
X96022850Y-110010227D01*
X96022843Y-110010241D01*
X95871023Y-110308204D01*
X95857745Y-110334264D01*
X95856588Y-110337277D01*
X95856584Y-110337287D01*
X95727425Y-110673758D01*
X95727418Y-110673776D01*
X95726258Y-110676801D01*
X95725421Y-110679923D01*
X95725415Y-110679943D01*
X95632136Y-111028064D01*
X95632132Y-111028080D01*
X95631295Y-111031206D01*
X95630786Y-111034414D01*
X95630785Y-111034423D01*
X95574405Y-111390390D01*
X95574403Y-111390404D01*
X95573898Y-111393596D01*
X95573728Y-111396826D01*
X95573728Y-111396833D01*
X95561339Y-111633233D01*
X95554696Y-111760000D01*
X94742500Y-111760000D01*
X94742500Y-105079248D01*
X161225749Y-105079248D01*
X161233855Y-105090439D01*
X161262717Y-105112903D01*
X161271279Y-105118496D01*
X161480885Y-105231929D01*
X161490239Y-105236032D01*
X161715656Y-105313417D01*
X161725568Y-105315928D01*
X161960643Y-105355155D01*
X161970839Y-105356000D01*
X162209161Y-105356000D01*
X162219356Y-105355155D01*
X162454431Y-105315928D01*
X162464343Y-105313417D01*
X162689760Y-105236032D01*
X162699114Y-105231929D01*
X162908723Y-105118495D01*
X162917281Y-105112903D01*
X162946146Y-105090437D01*
X162954250Y-105079250D01*
X162947589Y-105067142D01*
X162101542Y-104221095D01*
X162089999Y-104214431D01*
X162078457Y-104221095D01*
X161232408Y-105067143D01*
X161225749Y-105079248D01*
X94742500Y-105079248D01*
X94742500Y-103861117D01*
X160585283Y-103861117D01*
X160604962Y-104098618D01*
X160606646Y-104108712D01*
X160665153Y-104339747D01*
X160668472Y-104349414D01*
X160764208Y-104567673D01*
X160769070Y-104576656D01*
X160858999Y-104714304D01*
X160866963Y-104722024D01*
X160876345Y-104716100D01*
X161724904Y-103867542D01*
X161731568Y-103856000D01*
X162448431Y-103856000D01*
X162455095Y-103867542D01*
X163303653Y-104716100D01*
X163313034Y-104722024D01*
X163321002Y-104714299D01*
X163410924Y-104576664D01*
X163415792Y-104567669D01*
X163511527Y-104349414D01*
X163514846Y-104339747D01*
X163573353Y-104108712D01*
X163575037Y-104098618D01*
X163594717Y-103861117D01*
X163594717Y-103850883D01*
X163575037Y-103613381D01*
X163573353Y-103603287D01*
X163514846Y-103372252D01*
X163511527Y-103362585D01*
X163415792Y-103144330D01*
X163410924Y-103135335D01*
X163321002Y-102997699D01*
X163313034Y-102989974D01*
X163303653Y-102995898D01*
X162455095Y-103844457D01*
X162448431Y-103856000D01*
X161731568Y-103856000D01*
X161724904Y-103844457D01*
X160876345Y-102995898D01*
X160866964Y-102989974D01*
X160858997Y-102997699D01*
X160769072Y-103135338D01*
X160764207Y-103144328D01*
X160668472Y-103362585D01*
X160665153Y-103372252D01*
X160606646Y-103603287D01*
X160604962Y-103613381D01*
X160585283Y-103850883D01*
X160585283Y-103861117D01*
X94742500Y-103861117D01*
X94742500Y-102632749D01*
X161225748Y-102632749D01*
X161232408Y-102644855D01*
X162078457Y-103490904D01*
X162090000Y-103497568D01*
X162101542Y-103490904D01*
X162947590Y-102644855D01*
X162954250Y-102632749D01*
X162946143Y-102621559D01*
X162917286Y-102599099D01*
X162908719Y-102593503D01*
X162699114Y-102480070D01*
X162689760Y-102475967D01*
X162464343Y-102398582D01*
X162454431Y-102396071D01*
X162219356Y-102356844D01*
X162209161Y-102356000D01*
X161970839Y-102356000D01*
X161960643Y-102356844D01*
X161725568Y-102396071D01*
X161715656Y-102398582D01*
X161490239Y-102475967D01*
X161480885Y-102480070D01*
X161271276Y-102593504D01*
X161262717Y-102599096D01*
X161233854Y-102621560D01*
X161225748Y-102632749D01*
X94742500Y-102632749D01*
X94742500Y-100322578D01*
X117151500Y-100322578D01*
X117151501Y-100325872D01*
X117151853Y-100329150D01*
X117151854Y-100329161D01*
X117157079Y-100377768D01*
X117157080Y-100377773D01*
X117157909Y-100385483D01*
X117160619Y-100392749D01*
X117160620Y-100392753D01*
X117187227Y-100464089D01*
X117208204Y-100520331D01*
X117213518Y-100527430D01*
X117213519Y-100527431D01*
X117279149Y-100615102D01*
X117294454Y-100635546D01*
X117409669Y-100721796D01*
X117544517Y-100772091D01*
X117604127Y-100778500D01*
X119199872Y-100778499D01*
X119259483Y-100772091D01*
X119394331Y-100721796D01*
X119509546Y-100635546D01*
X119595796Y-100520331D01*
X119646091Y-100385483D01*
X119652500Y-100325873D01*
X119652499Y-100259861D01*
X119668045Y-100199748D01*
X119710788Y-100154706D01*
X119770008Y-100136033D01*
X119830856Y-100148412D01*
X119878074Y-100188739D01*
X119977296Y-100330442D01*
X119977299Y-100330446D01*
X119980402Y-100334877D01*
X120135123Y-100489598D01*
X120314361Y-100615102D01*
X120319261Y-100617387D01*
X120319263Y-100617388D01*
X120505110Y-100704050D01*
X120512670Y-100707575D01*
X120664702Y-100748312D01*
X120718790Y-100762805D01*
X120718791Y-100762805D01*
X120724023Y-100764207D01*
X120942000Y-100783277D01*
X121159977Y-100764207D01*
X121371330Y-100707575D01*
X121569639Y-100615102D01*
X121748877Y-100489598D01*
X121903598Y-100334877D01*
X122029102Y-100155639D01*
X122099617Y-100004417D01*
X122145375Y-99952241D01*
X122212000Y-99932821D01*
X122278625Y-99952241D01*
X122324382Y-100004417D01*
X122392609Y-100150732D01*
X122392613Y-100150739D01*
X122394898Y-100155639D01*
X122397997Y-100160066D01*
X122397999Y-100160068D01*
X122517296Y-100330442D01*
X122517299Y-100330446D01*
X122520402Y-100334877D01*
X122675123Y-100489598D01*
X122854361Y-100615102D01*
X122859261Y-100617387D01*
X122859263Y-100617388D01*
X123045110Y-100704050D01*
X123052670Y-100707575D01*
X123204702Y-100748312D01*
X123258790Y-100762805D01*
X123258791Y-100762805D01*
X123264023Y-100764207D01*
X123482000Y-100783277D01*
X123699977Y-100764207D01*
X123911330Y-100707575D01*
X124109639Y-100615102D01*
X124288877Y-100489598D01*
X124443598Y-100334877D01*
X124569102Y-100155639D01*
X124639617Y-100004417D01*
X124685375Y-99952241D01*
X124752000Y-99932821D01*
X124818625Y-99952241D01*
X124864382Y-100004417D01*
X124932609Y-100150732D01*
X124932613Y-100150739D01*
X124934898Y-100155639D01*
X124937997Y-100160066D01*
X124937999Y-100160068D01*
X125057296Y-100330442D01*
X125057299Y-100330446D01*
X125060402Y-100334877D01*
X125215123Y-100489598D01*
X125394361Y-100615102D01*
X125399261Y-100617387D01*
X125399263Y-100617388D01*
X125585110Y-100704050D01*
X125592670Y-100707575D01*
X125744702Y-100748312D01*
X125798790Y-100762805D01*
X125798791Y-100762805D01*
X125804023Y-100764207D01*
X126022000Y-100783277D01*
X126239977Y-100764207D01*
X126451330Y-100707575D01*
X126649639Y-100615102D01*
X126828877Y-100489598D01*
X126983598Y-100334877D01*
X127109102Y-100155639D01*
X127179617Y-100004417D01*
X127225375Y-99952241D01*
X127292000Y-99932821D01*
X127358625Y-99952241D01*
X127404382Y-100004417D01*
X127472609Y-100150732D01*
X127472613Y-100150739D01*
X127474898Y-100155639D01*
X127477997Y-100160066D01*
X127477999Y-100160068D01*
X127597296Y-100330442D01*
X127597299Y-100330446D01*
X127600402Y-100334877D01*
X127755123Y-100489598D01*
X127934361Y-100615102D01*
X127939261Y-100617387D01*
X127939263Y-100617388D01*
X128125110Y-100704050D01*
X128132670Y-100707575D01*
X128284702Y-100748312D01*
X128338790Y-100762805D01*
X128338791Y-100762805D01*
X128344023Y-100764207D01*
X128562000Y-100783277D01*
X128779977Y-100764207D01*
X128991330Y-100707575D01*
X129189639Y-100615102D01*
X129368877Y-100489598D01*
X129523598Y-100334877D01*
X129649102Y-100155639D01*
X129719617Y-100004417D01*
X129765375Y-99952241D01*
X129832000Y-99932821D01*
X129898625Y-99952241D01*
X129944382Y-100004417D01*
X130012609Y-100150732D01*
X130012613Y-100150739D01*
X130014898Y-100155639D01*
X130017997Y-100160066D01*
X130017999Y-100160068D01*
X130137296Y-100330442D01*
X130137299Y-100330446D01*
X130140402Y-100334877D01*
X130295123Y-100489598D01*
X130474361Y-100615102D01*
X130479264Y-100617388D01*
X130479267Y-100617390D01*
X130599731Y-100673563D01*
X130640435Y-100704050D01*
X130665478Y-100748312D01*
X130670648Y-100798904D01*
X130667219Y-100831536D01*
X130666540Y-100838000D01*
X130667219Y-100844460D01*
X130685646Y-101019795D01*
X130685647Y-101019803D01*
X130686326Y-101026256D01*
X130688331Y-101032428D01*
X130688333Y-101032435D01*
X130742813Y-101200105D01*
X130744821Y-101206284D01*
X130839467Y-101370216D01*
X130843811Y-101375041D01*
X130843813Y-101375043D01*
X130933112Y-101474219D01*
X130966129Y-101510888D01*
X131119270Y-101622151D01*
X131292197Y-101699144D01*
X131477354Y-101738500D01*
X131660143Y-101738500D01*
X131666646Y-101738500D01*
X131851803Y-101699144D01*
X132024730Y-101622151D01*
X132177871Y-101510888D01*
X132183601Y-101504523D01*
X132185271Y-101503310D01*
X132187050Y-101501709D01*
X132187218Y-101501895D01*
X132225315Y-101474219D01*
X132275748Y-101463500D01*
X136456252Y-101463500D01*
X136506685Y-101474219D01*
X136544781Y-101501895D01*
X136544950Y-101501709D01*
X136546728Y-101503310D01*
X136548398Y-101504523D01*
X136554129Y-101510888D01*
X136707270Y-101622151D01*
X136880197Y-101699144D01*
X137065354Y-101738500D01*
X137248143Y-101738500D01*
X137254646Y-101738500D01*
X137439803Y-101699144D01*
X137612730Y-101622151D01*
X137765871Y-101510888D01*
X137892533Y-101370216D01*
X137987179Y-101206284D01*
X138045674Y-101026256D01*
X138065460Y-100838000D01*
X138045674Y-100649744D01*
X137987179Y-100469716D01*
X137892533Y-100305784D01*
X137808539Y-100212500D01*
X137770220Y-100169942D01*
X137770219Y-100169941D01*
X137765871Y-100165112D01*
X137760613Y-100161292D01*
X137760611Y-100161290D01*
X137617988Y-100057669D01*
X137617987Y-100057668D01*
X137612730Y-100053849D01*
X137606792Y-100051205D01*
X137445745Y-99979501D01*
X137445740Y-99979499D01*
X137439803Y-99976856D01*
X137433444Y-99975504D01*
X137433440Y-99975503D01*
X137261008Y-99938852D01*
X137261005Y-99938851D01*
X137254646Y-99937500D01*
X137065354Y-99937500D01*
X137058995Y-99938851D01*
X137058991Y-99938852D01*
X136886559Y-99975503D01*
X136886552Y-99975505D01*
X136880197Y-99976856D01*
X136874262Y-99979498D01*
X136874254Y-99979501D01*
X136713207Y-100051205D01*
X136713202Y-100051207D01*
X136707270Y-100053849D01*
X136702016Y-100057665D01*
X136702011Y-100057669D01*
X136559388Y-100161290D01*
X136559381Y-100161295D01*
X136554129Y-100165112D01*
X136549780Y-100169941D01*
X136549781Y-100169941D01*
X136548399Y-100171476D01*
X136546728Y-100172689D01*
X136544950Y-100174291D01*
X136544781Y-100174104D01*
X136506685Y-100201781D01*
X136456252Y-100212500D01*
X132357228Y-100212500D01*
X132297585Y-100197214D01*
X132252647Y-100155125D01*
X132233493Y-100096610D01*
X132244846Y-100036095D01*
X132272470Y-99976856D01*
X132281575Y-99957330D01*
X132338207Y-99745977D01*
X132357277Y-99528000D01*
X132338207Y-99310023D01*
X132281575Y-99098670D01*
X132189102Y-98900362D01*
X132063598Y-98721123D01*
X131908877Y-98566402D01*
X131904446Y-98563299D01*
X131904442Y-98563296D01*
X131734068Y-98443999D01*
X131734066Y-98443997D01*
X131729639Y-98440898D01*
X131724742Y-98438614D01*
X131724736Y-98438611D01*
X131536236Y-98350712D01*
X131536229Y-98350709D01*
X131531330Y-98348425D01*
X131526103Y-98347024D01*
X131526102Y-98347024D01*
X131325209Y-98293194D01*
X131325199Y-98293192D01*
X131319977Y-98291793D01*
X131314585Y-98291321D01*
X131314578Y-98291320D01*
X131107395Y-98273195D01*
X131102000Y-98272723D01*
X131096605Y-98273195D01*
X130889421Y-98291320D01*
X130889412Y-98291321D01*
X130884023Y-98291793D01*
X130878802Y-98293191D01*
X130878790Y-98293194D01*
X130677897Y-98347024D01*
X130677892Y-98347025D01*
X130672670Y-98348425D01*
X130667774Y-98350707D01*
X130667763Y-98350712D01*
X130479272Y-98438608D01*
X130479268Y-98438610D01*
X130474362Y-98440898D01*
X130469929Y-98444001D01*
X130469922Y-98444006D01*
X130299558Y-98563296D01*
X130299553Y-98563299D01*
X130295123Y-98566402D01*
X130291299Y-98570225D01*
X130291293Y-98570231D01*
X130144231Y-98717293D01*
X130144225Y-98717299D01*
X130140402Y-98721123D01*
X130137299Y-98725553D01*
X130137296Y-98725558D01*
X130018006Y-98895922D01*
X130018001Y-98895929D01*
X130014898Y-98900362D01*
X130012610Y-98905268D01*
X130012608Y-98905272D01*
X129944382Y-99051583D01*
X129898625Y-99103759D01*
X129832000Y-99123178D01*
X129765375Y-99103759D01*
X129719618Y-99051583D01*
X129652472Y-98907590D01*
X129649102Y-98900362D01*
X129523598Y-98721123D01*
X129368877Y-98566402D01*
X129364446Y-98563299D01*
X129364442Y-98563296D01*
X129194068Y-98443999D01*
X129194066Y-98443997D01*
X129189639Y-98440898D01*
X129184742Y-98438614D01*
X129184736Y-98438611D01*
X128996236Y-98350712D01*
X128996229Y-98350709D01*
X128991330Y-98348425D01*
X128986103Y-98347024D01*
X128986102Y-98347024D01*
X128785209Y-98293194D01*
X128785199Y-98293192D01*
X128779977Y-98291793D01*
X128774585Y-98291321D01*
X128774578Y-98291320D01*
X128567395Y-98273195D01*
X128562000Y-98272723D01*
X128556605Y-98273195D01*
X128349421Y-98291320D01*
X128349412Y-98291321D01*
X128344023Y-98291793D01*
X128338802Y-98293191D01*
X128338790Y-98293194D01*
X128137897Y-98347024D01*
X128137892Y-98347025D01*
X128132670Y-98348425D01*
X128127774Y-98350707D01*
X128127763Y-98350712D01*
X127939272Y-98438608D01*
X127939268Y-98438610D01*
X127934362Y-98440898D01*
X127929929Y-98444001D01*
X127929922Y-98444006D01*
X127759558Y-98563296D01*
X127759553Y-98563299D01*
X127755123Y-98566402D01*
X127751299Y-98570225D01*
X127751293Y-98570231D01*
X127604231Y-98717293D01*
X127604225Y-98717299D01*
X127600402Y-98721123D01*
X127597299Y-98725553D01*
X127597296Y-98725558D01*
X127478006Y-98895922D01*
X127478001Y-98895929D01*
X127474898Y-98900362D01*
X127472610Y-98905268D01*
X127472608Y-98905272D01*
X127404382Y-99051583D01*
X127358625Y-99103759D01*
X127292000Y-99123178D01*
X127225375Y-99103759D01*
X127179618Y-99051583D01*
X127112472Y-98907590D01*
X127109102Y-98900362D01*
X126983598Y-98721123D01*
X126828877Y-98566402D01*
X126824446Y-98563299D01*
X126824442Y-98563296D01*
X126654068Y-98443999D01*
X126654066Y-98443997D01*
X126649639Y-98440898D01*
X126644742Y-98438614D01*
X126644736Y-98438611D01*
X126456236Y-98350712D01*
X126456229Y-98350709D01*
X126451330Y-98348425D01*
X126446103Y-98347024D01*
X126446102Y-98347024D01*
X126245209Y-98293194D01*
X126245199Y-98293192D01*
X126239977Y-98291793D01*
X126234585Y-98291321D01*
X126234578Y-98291320D01*
X126027395Y-98273195D01*
X126022000Y-98272723D01*
X126016605Y-98273195D01*
X125809421Y-98291320D01*
X125809412Y-98291321D01*
X125804023Y-98291793D01*
X125798802Y-98293191D01*
X125798790Y-98293194D01*
X125597897Y-98347024D01*
X125597892Y-98347025D01*
X125592670Y-98348425D01*
X125587774Y-98350707D01*
X125587763Y-98350712D01*
X125399272Y-98438608D01*
X125399268Y-98438610D01*
X125394362Y-98440898D01*
X125389929Y-98444001D01*
X125389922Y-98444006D01*
X125219558Y-98563296D01*
X125219553Y-98563299D01*
X125215123Y-98566402D01*
X125211299Y-98570225D01*
X125211293Y-98570231D01*
X125064231Y-98717293D01*
X125064225Y-98717299D01*
X125060402Y-98721123D01*
X125057299Y-98725553D01*
X125057296Y-98725558D01*
X124938006Y-98895922D01*
X124938001Y-98895929D01*
X124934898Y-98900362D01*
X124932610Y-98905268D01*
X124932608Y-98905272D01*
X124864382Y-99051583D01*
X124818625Y-99103759D01*
X124752000Y-99123178D01*
X124685375Y-99103759D01*
X124639618Y-99051583D01*
X124572472Y-98907590D01*
X124569102Y-98900362D01*
X124443598Y-98721123D01*
X124288877Y-98566402D01*
X124284446Y-98563299D01*
X124284442Y-98563296D01*
X124114068Y-98443999D01*
X124114066Y-98443997D01*
X124109639Y-98440898D01*
X124104742Y-98438614D01*
X124104736Y-98438611D01*
X123916236Y-98350712D01*
X123916229Y-98350709D01*
X123911330Y-98348425D01*
X123906103Y-98347024D01*
X123906102Y-98347024D01*
X123705209Y-98293194D01*
X123705199Y-98293192D01*
X123699977Y-98291793D01*
X123694585Y-98291321D01*
X123694578Y-98291320D01*
X123487395Y-98273195D01*
X123482000Y-98272723D01*
X123476605Y-98273195D01*
X123269421Y-98291320D01*
X123269412Y-98291321D01*
X123264023Y-98291793D01*
X123258802Y-98293191D01*
X123258790Y-98293194D01*
X123057897Y-98347024D01*
X123057892Y-98347025D01*
X123052670Y-98348425D01*
X123047774Y-98350707D01*
X123047763Y-98350712D01*
X122859272Y-98438608D01*
X122859268Y-98438610D01*
X122854362Y-98440898D01*
X122849929Y-98444001D01*
X122849922Y-98444006D01*
X122679558Y-98563296D01*
X122679553Y-98563299D01*
X122675123Y-98566402D01*
X122671299Y-98570225D01*
X122671293Y-98570231D01*
X122524231Y-98717293D01*
X122524225Y-98717299D01*
X122520402Y-98721123D01*
X122517299Y-98725553D01*
X122517296Y-98725558D01*
X122398006Y-98895922D01*
X122398001Y-98895929D01*
X122394898Y-98900362D01*
X122392610Y-98905268D01*
X122392608Y-98905272D01*
X122324382Y-99051583D01*
X122278625Y-99103759D01*
X122212000Y-99123178D01*
X122145375Y-99103759D01*
X122099618Y-99051583D01*
X122032472Y-98907590D01*
X122029102Y-98900362D01*
X121903598Y-98721123D01*
X121748877Y-98566402D01*
X121744446Y-98563299D01*
X121744442Y-98563296D01*
X121574068Y-98443999D01*
X121574066Y-98443997D01*
X121569639Y-98440898D01*
X121564742Y-98438614D01*
X121564736Y-98438611D01*
X121376236Y-98350712D01*
X121376229Y-98350709D01*
X121371330Y-98348425D01*
X121366103Y-98347024D01*
X121366102Y-98347024D01*
X121165209Y-98293194D01*
X121165199Y-98293192D01*
X121159977Y-98291793D01*
X121154585Y-98291321D01*
X121154578Y-98291320D01*
X120947395Y-98273195D01*
X120942000Y-98272723D01*
X120936605Y-98273195D01*
X120729421Y-98291320D01*
X120729412Y-98291321D01*
X120724023Y-98291793D01*
X120718802Y-98293191D01*
X120718790Y-98293194D01*
X120517897Y-98347024D01*
X120517892Y-98347025D01*
X120512670Y-98348425D01*
X120507774Y-98350707D01*
X120507763Y-98350712D01*
X120319272Y-98438608D01*
X120319268Y-98438610D01*
X120314362Y-98440898D01*
X120309929Y-98444001D01*
X120309922Y-98444006D01*
X120139558Y-98563296D01*
X120139553Y-98563299D01*
X120135123Y-98566402D01*
X120131299Y-98570225D01*
X120131293Y-98570231D01*
X119984231Y-98717293D01*
X119984225Y-98717299D01*
X119980402Y-98721123D01*
X119977299Y-98725553D01*
X119977296Y-98725558D01*
X119878074Y-98867263D01*
X119830857Y-98907590D01*
X119770009Y-98919970D01*
X119710789Y-98901298D01*
X119668046Y-98856256D01*
X119652499Y-98796140D01*
X119652499Y-98733439D01*
X119652499Y-98730128D01*
X119646091Y-98670517D01*
X119595796Y-98535669D01*
X119509546Y-98420454D01*
X119394331Y-98334204D01*
X119323965Y-98307959D01*
X119266752Y-98286620D01*
X119266750Y-98286619D01*
X119259483Y-98283909D01*
X119251770Y-98283079D01*
X119251767Y-98283079D01*
X119203180Y-98277855D01*
X119203169Y-98277854D01*
X119199873Y-98277500D01*
X119196550Y-98277500D01*
X117607439Y-98277500D01*
X117607420Y-98277500D01*
X117604128Y-98277501D01*
X117600850Y-98277853D01*
X117600838Y-98277854D01*
X117552231Y-98283079D01*
X117552225Y-98283080D01*
X117544517Y-98283909D01*
X117537252Y-98286618D01*
X117537246Y-98286620D01*
X117417980Y-98331104D01*
X117417978Y-98331104D01*
X117409669Y-98334204D01*
X117402572Y-98339516D01*
X117402568Y-98339519D01*
X117301550Y-98415141D01*
X117301546Y-98415144D01*
X117294454Y-98420454D01*
X117289144Y-98427546D01*
X117289141Y-98427550D01*
X117213519Y-98528568D01*
X117213516Y-98528572D01*
X117208204Y-98535669D01*
X117205104Y-98543978D01*
X117205104Y-98543980D01*
X117160620Y-98663247D01*
X117160619Y-98663250D01*
X117157909Y-98670517D01*
X117157079Y-98678227D01*
X117157079Y-98678232D01*
X117151855Y-98726819D01*
X117151854Y-98726831D01*
X117151500Y-98730127D01*
X117151500Y-98733448D01*
X117151500Y-98733449D01*
X117151500Y-100322560D01*
X117151500Y-100322578D01*
X94742500Y-100322578D01*
X94742500Y-95504000D01*
X126348540Y-95504000D01*
X126349219Y-95510460D01*
X126367646Y-95685795D01*
X126367647Y-95685803D01*
X126368326Y-95692256D01*
X126370331Y-95698428D01*
X126370333Y-95698435D01*
X126424813Y-95866105D01*
X126426821Y-95872284D01*
X126521467Y-96036216D01*
X126525811Y-96041041D01*
X126525813Y-96041043D01*
X126615112Y-96140219D01*
X126648129Y-96176888D01*
X126801270Y-96288151D01*
X126974197Y-96365144D01*
X127159354Y-96404500D01*
X127342143Y-96404500D01*
X127348646Y-96404500D01*
X127533803Y-96365144D01*
X127706730Y-96288151D01*
X127859871Y-96176888D01*
X127865601Y-96170523D01*
X127867271Y-96169310D01*
X127869050Y-96167709D01*
X127869218Y-96167895D01*
X127907315Y-96140219D01*
X127957748Y-96129500D01*
X129090252Y-96129500D01*
X129140685Y-96140219D01*
X129178781Y-96167895D01*
X129178950Y-96167709D01*
X129180728Y-96169310D01*
X129182398Y-96170523D01*
X129188129Y-96176888D01*
X129341270Y-96288151D01*
X129514197Y-96365144D01*
X129699354Y-96404500D01*
X129882143Y-96404500D01*
X129888646Y-96404500D01*
X130073803Y-96365144D01*
X130246730Y-96288151D01*
X130399871Y-96176888D01*
X130526533Y-96036216D01*
X130621179Y-95872284D01*
X130679674Y-95692256D01*
X130699460Y-95504000D01*
X130679674Y-95315744D01*
X130621179Y-95135716D01*
X130526533Y-94971784D01*
X130442539Y-94878500D01*
X130404220Y-94835942D01*
X130404219Y-94835941D01*
X130399871Y-94831112D01*
X130394613Y-94827292D01*
X130394611Y-94827290D01*
X130251988Y-94723669D01*
X130251987Y-94723668D01*
X130246730Y-94719849D01*
X130240792Y-94717205D01*
X130079745Y-94645501D01*
X130079740Y-94645499D01*
X130073803Y-94642856D01*
X130067444Y-94641504D01*
X130067440Y-94641503D01*
X129895008Y-94604852D01*
X129895005Y-94604851D01*
X129888646Y-94603500D01*
X129699354Y-94603500D01*
X129692995Y-94604851D01*
X129692991Y-94604852D01*
X129520559Y-94641503D01*
X129520552Y-94641505D01*
X129514197Y-94642856D01*
X129508262Y-94645498D01*
X129508254Y-94645501D01*
X129347207Y-94717205D01*
X129347202Y-94717207D01*
X129341270Y-94719849D01*
X129336016Y-94723665D01*
X129336011Y-94723669D01*
X129193388Y-94827290D01*
X129193381Y-94827295D01*
X129188129Y-94831112D01*
X129183780Y-94835941D01*
X129183781Y-94835941D01*
X129182399Y-94837476D01*
X129180728Y-94838689D01*
X129178950Y-94840291D01*
X129178781Y-94840104D01*
X129140685Y-94867781D01*
X129090252Y-94878500D01*
X127957748Y-94878500D01*
X127907315Y-94867781D01*
X127869218Y-94840104D01*
X127869050Y-94840291D01*
X127867271Y-94838689D01*
X127865601Y-94837476D01*
X127859871Y-94831112D01*
X127854613Y-94827292D01*
X127854611Y-94827290D01*
X127711988Y-94723669D01*
X127711987Y-94723668D01*
X127706730Y-94719849D01*
X127700792Y-94717205D01*
X127539745Y-94645501D01*
X127539740Y-94645499D01*
X127533803Y-94642856D01*
X127527444Y-94641504D01*
X127527440Y-94641503D01*
X127355008Y-94604852D01*
X127355005Y-94604851D01*
X127348646Y-94603500D01*
X127159354Y-94603500D01*
X127152995Y-94604851D01*
X127152991Y-94604852D01*
X126980559Y-94641503D01*
X126980552Y-94641505D01*
X126974197Y-94642856D01*
X126968262Y-94645498D01*
X126968254Y-94645501D01*
X126807207Y-94717205D01*
X126807202Y-94717207D01*
X126801270Y-94719849D01*
X126796016Y-94723665D01*
X126796011Y-94723669D01*
X126653388Y-94827290D01*
X126653381Y-94827295D01*
X126648129Y-94831112D01*
X126643784Y-94835937D01*
X126643779Y-94835942D01*
X126525813Y-94966956D01*
X126525808Y-94966962D01*
X126521467Y-94971784D01*
X126518222Y-94977404D01*
X126518218Y-94977410D01*
X126430069Y-95130089D01*
X126430066Y-95130094D01*
X126426821Y-95135716D01*
X126424815Y-95141888D01*
X126424813Y-95141894D01*
X126370333Y-95309564D01*
X126370331Y-95309573D01*
X126368326Y-95315744D01*
X126367648Y-95322194D01*
X126367646Y-95322204D01*
X126349962Y-95490464D01*
X126348540Y-95504000D01*
X94742500Y-95504000D01*
X94742500Y-92456000D01*
X121776540Y-92456000D01*
X121777219Y-92462460D01*
X121795646Y-92637795D01*
X121795647Y-92637803D01*
X121796326Y-92644256D01*
X121798331Y-92650428D01*
X121798333Y-92650435D01*
X121852813Y-92818105D01*
X121854821Y-92824284D01*
X121949467Y-92988216D01*
X122076129Y-93128888D01*
X122229270Y-93240151D01*
X122402197Y-93317144D01*
X122587354Y-93356500D01*
X122770143Y-93356500D01*
X122776646Y-93356500D01*
X122961803Y-93317144D01*
X123134730Y-93240151D01*
X123287871Y-93128888D01*
X123414533Y-92988216D01*
X123509179Y-92824284D01*
X123567674Y-92644256D01*
X123585321Y-92476345D01*
X123596721Y-92435926D01*
X123620958Y-92401631D01*
X124935208Y-91087381D01*
X124987670Y-91056170D01*
X125048664Y-91053774D01*
X125127354Y-91070500D01*
X125310143Y-91070500D01*
X125316646Y-91070500D01*
X125501803Y-91031144D01*
X125674730Y-90954151D01*
X125827871Y-90842888D01*
X125954533Y-90702216D01*
X126049179Y-90538284D01*
X126107674Y-90358256D01*
X126127460Y-90170000D01*
X126107674Y-89981744D01*
X126049179Y-89801716D01*
X125954533Y-89637784D01*
X125827871Y-89497112D01*
X125822613Y-89493292D01*
X125822611Y-89493290D01*
X125679988Y-89389669D01*
X125679987Y-89389668D01*
X125674730Y-89385849D01*
X125668792Y-89383205D01*
X125507745Y-89311501D01*
X125507740Y-89311499D01*
X125501803Y-89308856D01*
X125495444Y-89307504D01*
X125495440Y-89307503D01*
X125323008Y-89270852D01*
X125323005Y-89270851D01*
X125316646Y-89269500D01*
X125127354Y-89269500D01*
X125120995Y-89270851D01*
X125120991Y-89270852D01*
X124948559Y-89307503D01*
X124948552Y-89307505D01*
X124942197Y-89308856D01*
X124936262Y-89311498D01*
X124936254Y-89311501D01*
X124775207Y-89383205D01*
X124775202Y-89383207D01*
X124769270Y-89385849D01*
X124764016Y-89389665D01*
X124764011Y-89389669D01*
X124621388Y-89493290D01*
X124621381Y-89493295D01*
X124616129Y-89497112D01*
X124611784Y-89501937D01*
X124611779Y-89501942D01*
X124493813Y-89632956D01*
X124493808Y-89632962D01*
X124489467Y-89637784D01*
X124486222Y-89643404D01*
X124486218Y-89643410D01*
X124398069Y-89796088D01*
X124398064Y-89796097D01*
X124394821Y-89801716D01*
X124392815Y-89807887D01*
X124392811Y-89807898D01*
X124376644Y-89857652D01*
X124346395Y-89907012D01*
X122734228Y-91519181D01*
X122694000Y-91546061D01*
X122646547Y-91555500D01*
X122587354Y-91555500D01*
X122580995Y-91556851D01*
X122580991Y-91556852D01*
X122408559Y-91593503D01*
X122408552Y-91593505D01*
X122402197Y-91594856D01*
X122396262Y-91597498D01*
X122396254Y-91597501D01*
X122235207Y-91669205D01*
X122235202Y-91669207D01*
X122229270Y-91671849D01*
X122224016Y-91675665D01*
X122224011Y-91675669D01*
X122081388Y-91779290D01*
X122081381Y-91779295D01*
X122076129Y-91783112D01*
X122071784Y-91787937D01*
X122071779Y-91787942D01*
X121953813Y-91918956D01*
X121953808Y-91918962D01*
X121949467Y-91923784D01*
X121946222Y-91929404D01*
X121946218Y-91929410D01*
X121858069Y-92082089D01*
X121858066Y-92082094D01*
X121854821Y-92087716D01*
X121852815Y-92093888D01*
X121852813Y-92093894D01*
X121798333Y-92261564D01*
X121798331Y-92261573D01*
X121796326Y-92267744D01*
X121795648Y-92274194D01*
X121795646Y-92274204D01*
X121778650Y-92435926D01*
X121776540Y-92456000D01*
X94742500Y-92456000D01*
X94742500Y-89916000D01*
X119998540Y-89916000D01*
X119999219Y-89922460D01*
X120017646Y-90097795D01*
X120017647Y-90097803D01*
X120018326Y-90104256D01*
X120020331Y-90110428D01*
X120020333Y-90110435D01*
X120074813Y-90278105D01*
X120076821Y-90284284D01*
X120080068Y-90289908D01*
X120080069Y-90289910D01*
X120119528Y-90358256D01*
X120171467Y-90448216D01*
X120175811Y-90453041D01*
X120175813Y-90453043D01*
X120293779Y-90584057D01*
X120298129Y-90588888D01*
X120451270Y-90700151D01*
X120624197Y-90777144D01*
X120809354Y-90816500D01*
X120992143Y-90816500D01*
X120998646Y-90816500D01*
X121183803Y-90777144D01*
X121356730Y-90700151D01*
X121509871Y-90588888D01*
X121636533Y-90448216D01*
X121731179Y-90284284D01*
X121789674Y-90104256D01*
X121807321Y-89936344D01*
X121818721Y-89895925D01*
X121842958Y-89861630D01*
X122629770Y-89074819D01*
X122669999Y-89047939D01*
X122717452Y-89038500D01*
X122770143Y-89038500D01*
X122776646Y-89038500D01*
X122961803Y-88999144D01*
X123134730Y-88922151D01*
X123287871Y-88810888D01*
X123414533Y-88670216D01*
X123509179Y-88506284D01*
X123567674Y-88326256D01*
X123587460Y-88138000D01*
X123567674Y-87949744D01*
X123509179Y-87769716D01*
X123414533Y-87605784D01*
X123287871Y-87465112D01*
X123282613Y-87461292D01*
X123282611Y-87461290D01*
X123139988Y-87357669D01*
X123139987Y-87357668D01*
X123134730Y-87353849D01*
X123070618Y-87325304D01*
X122967745Y-87279501D01*
X122967740Y-87279499D01*
X122961803Y-87276856D01*
X122955444Y-87275504D01*
X122955440Y-87275503D01*
X122783008Y-87238852D01*
X122783005Y-87238851D01*
X122776646Y-87237500D01*
X122587354Y-87237500D01*
X122580995Y-87238851D01*
X122580991Y-87238852D01*
X122408559Y-87275503D01*
X122408552Y-87275505D01*
X122402197Y-87276856D01*
X122396262Y-87279498D01*
X122396254Y-87279501D01*
X122235207Y-87351205D01*
X122235202Y-87351207D01*
X122229270Y-87353849D01*
X122224016Y-87357665D01*
X122224011Y-87357669D01*
X122081388Y-87461290D01*
X122081381Y-87461295D01*
X122076129Y-87465112D01*
X122071784Y-87469937D01*
X122071779Y-87469942D01*
X121953813Y-87600956D01*
X121953808Y-87600962D01*
X121949467Y-87605784D01*
X121946222Y-87611404D01*
X121946218Y-87611410D01*
X121858069Y-87764089D01*
X121858066Y-87764094D01*
X121854821Y-87769716D01*
X121852815Y-87775888D01*
X121852813Y-87775894D01*
X121798333Y-87943564D01*
X121798331Y-87943573D01*
X121796326Y-87949744D01*
X121795647Y-87956203D01*
X121795647Y-87956204D01*
X121778678Y-88117650D01*
X121767278Y-88158071D01*
X121743038Y-88192369D01*
X120956228Y-88979181D01*
X120916000Y-89006061D01*
X120868547Y-89015500D01*
X120809354Y-89015500D01*
X120802995Y-89016851D01*
X120802991Y-89016852D01*
X120630559Y-89053503D01*
X120630552Y-89053505D01*
X120624197Y-89054856D01*
X120618262Y-89057498D01*
X120618254Y-89057501D01*
X120457207Y-89129205D01*
X120457202Y-89129207D01*
X120451270Y-89131849D01*
X120446016Y-89135665D01*
X120446011Y-89135669D01*
X120303388Y-89239290D01*
X120303381Y-89239295D01*
X120298129Y-89243112D01*
X120293784Y-89247937D01*
X120293779Y-89247942D01*
X120175813Y-89378956D01*
X120175808Y-89378962D01*
X120171467Y-89383784D01*
X120168222Y-89389404D01*
X120168218Y-89389410D01*
X120080069Y-89542089D01*
X120080066Y-89542094D01*
X120076821Y-89547716D01*
X120074815Y-89553888D01*
X120074813Y-89553894D01*
X120020333Y-89721564D01*
X120020331Y-89721573D01*
X120018326Y-89727744D01*
X120017648Y-89734194D01*
X120017646Y-89734204D01*
X120001697Y-89885961D01*
X119998540Y-89916000D01*
X94742500Y-89916000D01*
X94742500Y-84288000D01*
X117146723Y-84288000D01*
X117147195Y-84293395D01*
X117165320Y-84500578D01*
X117165321Y-84500585D01*
X117165793Y-84505977D01*
X117167192Y-84511199D01*
X117167194Y-84511209D01*
X117178107Y-84551935D01*
X117222425Y-84717330D01*
X117224709Y-84722229D01*
X117224712Y-84722236D01*
X117312611Y-84910736D01*
X117312614Y-84910742D01*
X117314898Y-84915639D01*
X117317997Y-84920066D01*
X117317999Y-84920068D01*
X117437296Y-85090442D01*
X117437299Y-85090446D01*
X117440402Y-85094877D01*
X117595123Y-85249598D01*
X117774361Y-85375102D01*
X117779261Y-85377387D01*
X117779263Y-85377388D01*
X117904356Y-85435720D01*
X117972670Y-85467575D01*
X118130522Y-85509871D01*
X118178790Y-85522805D01*
X118178791Y-85522805D01*
X118184023Y-85524207D01*
X118402000Y-85543277D01*
X118619977Y-85524207D01*
X118831330Y-85467575D01*
X119029639Y-85375102D01*
X119208877Y-85249598D01*
X119363598Y-85094877D01*
X119489102Y-84915639D01*
X119559617Y-84764417D01*
X119605375Y-84712241D01*
X119672000Y-84692821D01*
X119738625Y-84712241D01*
X119784382Y-84764417D01*
X119852609Y-84910732D01*
X119852613Y-84910739D01*
X119854898Y-84915639D01*
X119857997Y-84920066D01*
X119857999Y-84920068D01*
X119977296Y-85090442D01*
X119977299Y-85090446D01*
X119980402Y-85094877D01*
X120135123Y-85249598D01*
X120314361Y-85375102D01*
X120319261Y-85377387D01*
X120319263Y-85377388D01*
X120444356Y-85435720D01*
X120512670Y-85467575D01*
X120670522Y-85509871D01*
X120718790Y-85522805D01*
X120718791Y-85522805D01*
X120724023Y-85524207D01*
X120942000Y-85543277D01*
X121159977Y-85524207D01*
X121371330Y-85467575D01*
X121569639Y-85375102D01*
X121748877Y-85249598D01*
X121903598Y-85094877D01*
X122029102Y-84915639D01*
X122099617Y-84764417D01*
X122145375Y-84712241D01*
X122212000Y-84692821D01*
X122278625Y-84712241D01*
X122324382Y-84764417D01*
X122392609Y-84910732D01*
X122392613Y-84910739D01*
X122394898Y-84915639D01*
X122397997Y-84920066D01*
X122397999Y-84920068D01*
X122517296Y-85090442D01*
X122517299Y-85090446D01*
X122520402Y-85094877D01*
X122675123Y-85249598D01*
X122854361Y-85375102D01*
X122859261Y-85377387D01*
X122859263Y-85377388D01*
X122984356Y-85435720D01*
X123052670Y-85467575D01*
X123210522Y-85509871D01*
X123258790Y-85522805D01*
X123258791Y-85522805D01*
X123264023Y-85524207D01*
X123482000Y-85543277D01*
X123699977Y-85524207D01*
X123911330Y-85467575D01*
X124109639Y-85375102D01*
X124288877Y-85249598D01*
X124443598Y-85094877D01*
X124569102Y-84915639D01*
X124639617Y-84764417D01*
X124685375Y-84712241D01*
X124752000Y-84692821D01*
X124818625Y-84712241D01*
X124864382Y-84764417D01*
X124932609Y-84910732D01*
X124932613Y-84910739D01*
X124934898Y-84915639D01*
X124937997Y-84920066D01*
X124937999Y-84920068D01*
X125057296Y-85090442D01*
X125057299Y-85090446D01*
X125060402Y-85094877D01*
X125215123Y-85249598D01*
X125394361Y-85375102D01*
X125399261Y-85377387D01*
X125399263Y-85377388D01*
X125524356Y-85435720D01*
X125592670Y-85467575D01*
X125750522Y-85509871D01*
X125798790Y-85522805D01*
X125798791Y-85522805D01*
X125804023Y-85524207D01*
X126003797Y-85541684D01*
X126067181Y-85565856D01*
X126108361Y-85619766D01*
X126115010Y-85687277D01*
X126085138Y-85748184D01*
X126013467Y-85827784D01*
X126010222Y-85833404D01*
X126010218Y-85833410D01*
X125922069Y-85986089D01*
X125922066Y-85986094D01*
X125918821Y-85991716D01*
X125916815Y-85997888D01*
X125916813Y-85997894D01*
X125862333Y-86165564D01*
X125862331Y-86165573D01*
X125860326Y-86171744D01*
X125859648Y-86178194D01*
X125859646Y-86178204D01*
X125842679Y-86339650D01*
X125840540Y-86360000D01*
X125841219Y-86366460D01*
X125859646Y-86541795D01*
X125859647Y-86541803D01*
X125860326Y-86548256D01*
X125862331Y-86554428D01*
X125862333Y-86554435D01*
X125895861Y-86657622D01*
X125918821Y-86728284D01*
X126013467Y-86892216D01*
X126140129Y-87032888D01*
X126293270Y-87144151D01*
X126466197Y-87221144D01*
X126651354Y-87260500D01*
X126710548Y-87260500D01*
X126758001Y-87269939D01*
X126798229Y-87296819D01*
X127902395Y-88400985D01*
X127932644Y-88450346D01*
X127948810Y-88500098D01*
X127948813Y-88500105D01*
X127950821Y-88506284D01*
X128045467Y-88670216D01*
X128172129Y-88810888D01*
X128325270Y-88922151D01*
X128498197Y-88999144D01*
X128683354Y-89038500D01*
X128866143Y-89038500D01*
X128872646Y-89038500D01*
X129057803Y-88999144D01*
X129230730Y-88922151D01*
X129383871Y-88810888D01*
X129510533Y-88670216D01*
X129605179Y-88506284D01*
X129663674Y-88326256D01*
X129683460Y-88138000D01*
X129663674Y-87949744D01*
X129605179Y-87769716D01*
X129510533Y-87605784D01*
X129383871Y-87465112D01*
X129378613Y-87461292D01*
X129378611Y-87461290D01*
X129235988Y-87357669D01*
X129235987Y-87357668D01*
X129230730Y-87353849D01*
X129166618Y-87325304D01*
X129063745Y-87279501D01*
X129063740Y-87279499D01*
X129057803Y-87276856D01*
X129051444Y-87275504D01*
X129051440Y-87275503D01*
X128879008Y-87238852D01*
X128879005Y-87238851D01*
X128872646Y-87237500D01*
X128683354Y-87237500D01*
X128676999Y-87238850D01*
X128676996Y-87238851D01*
X128604666Y-87254225D01*
X128543668Y-87251827D01*
X128491206Y-87220615D01*
X127684961Y-86414370D01*
X127660721Y-86380072D01*
X127649321Y-86339650D01*
X127632353Y-86178204D01*
X127632352Y-86178203D01*
X127631674Y-86171744D01*
X127573179Y-85991716D01*
X127478533Y-85827784D01*
X127351871Y-85687112D01*
X127346613Y-85683292D01*
X127346611Y-85683290D01*
X127203988Y-85579669D01*
X127203987Y-85579668D01*
X127198730Y-85575849D01*
X127176286Y-85565856D01*
X127031745Y-85501501D01*
X127031740Y-85501499D01*
X127025803Y-85498856D01*
X127007565Y-85494979D01*
X126879759Y-85467813D01*
X126819403Y-85435720D01*
X126785224Y-85376520D01*
X126787611Y-85308203D01*
X126825588Y-85251900D01*
X126828877Y-85249598D01*
X126983598Y-85094877D01*
X127109102Y-84915639D01*
X127179617Y-84764417D01*
X127225375Y-84712241D01*
X127292000Y-84692821D01*
X127358625Y-84712241D01*
X127404382Y-84764417D01*
X127472609Y-84910732D01*
X127472613Y-84910739D01*
X127474898Y-84915639D01*
X127477997Y-84920066D01*
X127477999Y-84920068D01*
X127597296Y-85090442D01*
X127597299Y-85090446D01*
X127600402Y-85094877D01*
X127755123Y-85249598D01*
X127934361Y-85375102D01*
X127939261Y-85377387D01*
X127939263Y-85377388D01*
X128064356Y-85435720D01*
X128132670Y-85467575D01*
X128290522Y-85509871D01*
X128338790Y-85522805D01*
X128338791Y-85522805D01*
X128344023Y-85524207D01*
X128562000Y-85543277D01*
X128779977Y-85524207D01*
X128991330Y-85467575D01*
X129189639Y-85375102D01*
X129368877Y-85249598D01*
X129523598Y-85094877D01*
X129649102Y-84915639D01*
X129719617Y-84764417D01*
X129765375Y-84712241D01*
X129832000Y-84692821D01*
X129898625Y-84712241D01*
X129944382Y-84764417D01*
X130012609Y-84910732D01*
X130012613Y-84910739D01*
X130014898Y-84915639D01*
X130017997Y-84920066D01*
X130017999Y-84920068D01*
X130137296Y-85090442D01*
X130137299Y-85090446D01*
X130140402Y-85094877D01*
X130295123Y-85249598D01*
X130474361Y-85375102D01*
X130479261Y-85377387D01*
X130479263Y-85377388D01*
X130604356Y-85435720D01*
X130672670Y-85467575D01*
X130830522Y-85509871D01*
X130878790Y-85522805D01*
X130878791Y-85522805D01*
X130884023Y-85524207D01*
X131102000Y-85543277D01*
X131319977Y-85524207D01*
X131531330Y-85467575D01*
X131729639Y-85375102D01*
X131908877Y-85249598D01*
X132063598Y-85094877D01*
X132189102Y-84915639D01*
X132281575Y-84717330D01*
X132338207Y-84505977D01*
X132357277Y-84288000D01*
X132338207Y-84070023D01*
X132281575Y-83858670D01*
X132263543Y-83820000D01*
X166674696Y-83820000D01*
X166674866Y-83823244D01*
X166687524Y-84064790D01*
X166693898Y-84186404D01*
X166694403Y-84189597D01*
X166694405Y-84189609D01*
X166743658Y-84500578D01*
X166751295Y-84548794D01*
X166752133Y-84551923D01*
X166752136Y-84551935D01*
X166845415Y-84900056D01*
X166845419Y-84900070D01*
X166846258Y-84903199D01*
X166847421Y-84906228D01*
X166847425Y-84906241D01*
X166976584Y-85242712D01*
X166977745Y-85245736D01*
X166979213Y-85248617D01*
X167129350Y-85543277D01*
X167144318Y-85572652D01*
X167344149Y-85880366D01*
X167575051Y-86165506D01*
X167834494Y-86424949D01*
X168119634Y-86655851D01*
X168427348Y-86855682D01*
X168754264Y-87022255D01*
X169096801Y-87153742D01*
X169451206Y-87248705D01*
X169813596Y-87306102D01*
X170180000Y-87325304D01*
X170546404Y-87306102D01*
X170908794Y-87248705D01*
X171263199Y-87153742D01*
X171605736Y-87022255D01*
X171932652Y-86855682D01*
X172240366Y-86655851D01*
X172525506Y-86424949D01*
X172784949Y-86165506D01*
X173015851Y-85880366D01*
X173215682Y-85572652D01*
X173382255Y-85245736D01*
X173513742Y-84903199D01*
X173608705Y-84548794D01*
X173666102Y-84186404D01*
X173685304Y-83820000D01*
X173666102Y-83453596D01*
X173608705Y-83091206D01*
X173513742Y-82736801D01*
X173382255Y-82394264D01*
X173215682Y-82067348D01*
X173015851Y-81759634D01*
X172784949Y-81474494D01*
X172525506Y-81215051D01*
X172240366Y-80984149D01*
X171932652Y-80784318D01*
X171929764Y-80782846D01*
X171929758Y-80782843D01*
X171608617Y-80619213D01*
X171605736Y-80617745D01*
X171602715Y-80616585D01*
X171602712Y-80616584D01*
X171266241Y-80487425D01*
X171266228Y-80487421D01*
X171263199Y-80486258D01*
X171260070Y-80485419D01*
X171260056Y-80485415D01*
X170911935Y-80392136D01*
X170911923Y-80392133D01*
X170908794Y-80391295D01*
X170905581Y-80390786D01*
X170905576Y-80390785D01*
X170549609Y-80334405D01*
X170549597Y-80334403D01*
X170546404Y-80333898D01*
X170543171Y-80333728D01*
X170543166Y-80333728D01*
X170183244Y-80314866D01*
X170180000Y-80314696D01*
X170176756Y-80314866D01*
X169816833Y-80333728D01*
X169816826Y-80333728D01*
X169813596Y-80333898D01*
X169810404Y-80334403D01*
X169810390Y-80334405D01*
X169454423Y-80390785D01*
X169454414Y-80390786D01*
X169451206Y-80391295D01*
X169448080Y-80392132D01*
X169448064Y-80392136D01*
X169099943Y-80485415D01*
X169099923Y-80485421D01*
X169096801Y-80486258D01*
X169093776Y-80487418D01*
X169093758Y-80487425D01*
X168757287Y-80616584D01*
X168757277Y-80616588D01*
X168754264Y-80617745D01*
X168751389Y-80619209D01*
X168751382Y-80619213D01*
X168430241Y-80782843D01*
X168430227Y-80782850D01*
X168427348Y-80784318D01*
X168424628Y-80786084D01*
X168424620Y-80786089D01*
X168122362Y-80982377D01*
X168122356Y-80982380D01*
X168119634Y-80984149D01*
X168117114Y-80986189D01*
X168117108Y-80986194D01*
X167837012Y-81213011D01*
X167837001Y-81213020D01*
X167834494Y-81215051D01*
X167832209Y-81217335D01*
X167832199Y-81217345D01*
X167577345Y-81472199D01*
X167577335Y-81472209D01*
X167575051Y-81474494D01*
X167573020Y-81477001D01*
X167573011Y-81477012D01*
X167346194Y-81757108D01*
X167346189Y-81757114D01*
X167344149Y-81759634D01*
X167342380Y-81762356D01*
X167342377Y-81762362D01*
X167146089Y-82064620D01*
X167146084Y-82064628D01*
X167144318Y-82067348D01*
X167142850Y-82070227D01*
X167142843Y-82070241D01*
X166979213Y-82391382D01*
X166977745Y-82394264D01*
X166976588Y-82397277D01*
X166976584Y-82397287D01*
X166847425Y-82733758D01*
X166847418Y-82733776D01*
X166846258Y-82736801D01*
X166845421Y-82739923D01*
X166845415Y-82739943D01*
X166752136Y-83088064D01*
X166752132Y-83088080D01*
X166751295Y-83091206D01*
X166750786Y-83094414D01*
X166750785Y-83094423D01*
X166694405Y-83450390D01*
X166694403Y-83450404D01*
X166693898Y-83453596D01*
X166674696Y-83820000D01*
X132263543Y-83820000D01*
X132189102Y-83660362D01*
X132063598Y-83481123D01*
X131908877Y-83326402D01*
X131904446Y-83323299D01*
X131904442Y-83323296D01*
X131734068Y-83203999D01*
X131734066Y-83203997D01*
X131729639Y-83200898D01*
X131724742Y-83198614D01*
X131724736Y-83198611D01*
X131536236Y-83110712D01*
X131536229Y-83110709D01*
X131531330Y-83108425D01*
X131526103Y-83107024D01*
X131526102Y-83107024D01*
X131325209Y-83053194D01*
X131325199Y-83053192D01*
X131319977Y-83051793D01*
X131314585Y-83051321D01*
X131314578Y-83051320D01*
X131107395Y-83033195D01*
X131102000Y-83032723D01*
X131096605Y-83033195D01*
X130889421Y-83051320D01*
X130889412Y-83051321D01*
X130884023Y-83051793D01*
X130878802Y-83053191D01*
X130878790Y-83053194D01*
X130677897Y-83107024D01*
X130677892Y-83107025D01*
X130672670Y-83108425D01*
X130667774Y-83110707D01*
X130667763Y-83110712D01*
X130479272Y-83198608D01*
X130479268Y-83198610D01*
X130474362Y-83200898D01*
X130469929Y-83204001D01*
X130469922Y-83204006D01*
X130299558Y-83323296D01*
X130299553Y-83323299D01*
X130295123Y-83326402D01*
X130291299Y-83330225D01*
X130291293Y-83330231D01*
X130144231Y-83477293D01*
X130144225Y-83477299D01*
X130140402Y-83481123D01*
X130137299Y-83485553D01*
X130137296Y-83485558D01*
X130018006Y-83655922D01*
X130018001Y-83655929D01*
X130014898Y-83660362D01*
X130012610Y-83665268D01*
X130012608Y-83665272D01*
X129944382Y-83811583D01*
X129898625Y-83863759D01*
X129832000Y-83883178D01*
X129765375Y-83863759D01*
X129719618Y-83811583D01*
X129706530Y-83783516D01*
X129649102Y-83660362D01*
X129523598Y-83481123D01*
X129368877Y-83326402D01*
X129364446Y-83323299D01*
X129364442Y-83323296D01*
X129194068Y-83203999D01*
X129194066Y-83203997D01*
X129189639Y-83200898D01*
X129184742Y-83198614D01*
X129184736Y-83198611D01*
X128996236Y-83110712D01*
X128996229Y-83110709D01*
X128991330Y-83108425D01*
X128986103Y-83107024D01*
X128986102Y-83107024D01*
X128785209Y-83053194D01*
X128785199Y-83053192D01*
X128779977Y-83051793D01*
X128774585Y-83051321D01*
X128774578Y-83051320D01*
X128567395Y-83033195D01*
X128562000Y-83032723D01*
X128556605Y-83033195D01*
X128349421Y-83051320D01*
X128349412Y-83051321D01*
X128344023Y-83051793D01*
X128338802Y-83053191D01*
X128338790Y-83053194D01*
X128137897Y-83107024D01*
X128137892Y-83107025D01*
X128132670Y-83108425D01*
X128127774Y-83110707D01*
X128127763Y-83110712D01*
X127939272Y-83198608D01*
X127939268Y-83198610D01*
X127934362Y-83200898D01*
X127929929Y-83204001D01*
X127929922Y-83204006D01*
X127759558Y-83323296D01*
X127759553Y-83323299D01*
X127755123Y-83326402D01*
X127751299Y-83330225D01*
X127751293Y-83330231D01*
X127604231Y-83477293D01*
X127604225Y-83477299D01*
X127600402Y-83481123D01*
X127597299Y-83485553D01*
X127597296Y-83485558D01*
X127478006Y-83655922D01*
X127478001Y-83655929D01*
X127474898Y-83660362D01*
X127472610Y-83665268D01*
X127472608Y-83665272D01*
X127404382Y-83811583D01*
X127358625Y-83863759D01*
X127292000Y-83883178D01*
X127225375Y-83863759D01*
X127179618Y-83811583D01*
X127166530Y-83783516D01*
X127109102Y-83660362D01*
X126983598Y-83481123D01*
X126828877Y-83326402D01*
X126824446Y-83323299D01*
X126824442Y-83323296D01*
X126654068Y-83203999D01*
X126654066Y-83203997D01*
X126649639Y-83200898D01*
X126644742Y-83198614D01*
X126644736Y-83198611D01*
X126456236Y-83110712D01*
X126456229Y-83110709D01*
X126451330Y-83108425D01*
X126446103Y-83107024D01*
X126446102Y-83107024D01*
X126245209Y-83053194D01*
X126245199Y-83053192D01*
X126239977Y-83051793D01*
X126234585Y-83051321D01*
X126234578Y-83051320D01*
X126027395Y-83033195D01*
X126022000Y-83032723D01*
X126016605Y-83033195D01*
X125809421Y-83051320D01*
X125809412Y-83051321D01*
X125804023Y-83051793D01*
X125798802Y-83053191D01*
X125798790Y-83053194D01*
X125597897Y-83107024D01*
X125597892Y-83107025D01*
X125592670Y-83108425D01*
X125587774Y-83110707D01*
X125587763Y-83110712D01*
X125399272Y-83198608D01*
X125399268Y-83198610D01*
X125394362Y-83200898D01*
X125389929Y-83204001D01*
X125389922Y-83204006D01*
X125219558Y-83323296D01*
X125219553Y-83323299D01*
X125215123Y-83326402D01*
X125211299Y-83330225D01*
X125211293Y-83330231D01*
X125064231Y-83477293D01*
X125064225Y-83477299D01*
X125060402Y-83481123D01*
X125057299Y-83485553D01*
X125057296Y-83485558D01*
X124938006Y-83655922D01*
X124938001Y-83655929D01*
X124934898Y-83660362D01*
X124932610Y-83665268D01*
X124932608Y-83665272D01*
X124864382Y-83811583D01*
X124818625Y-83863759D01*
X124752000Y-83883178D01*
X124685375Y-83863759D01*
X124639618Y-83811583D01*
X124626530Y-83783516D01*
X124569102Y-83660362D01*
X124443598Y-83481123D01*
X124288877Y-83326402D01*
X124284446Y-83323299D01*
X124284442Y-83323296D01*
X124114068Y-83203999D01*
X124114066Y-83203997D01*
X124109639Y-83200898D01*
X124104742Y-83198614D01*
X124104736Y-83198611D01*
X123916236Y-83110712D01*
X123916229Y-83110709D01*
X123911330Y-83108425D01*
X123906103Y-83107024D01*
X123906102Y-83107024D01*
X123705209Y-83053194D01*
X123705199Y-83053192D01*
X123699977Y-83051793D01*
X123694585Y-83051321D01*
X123694578Y-83051320D01*
X123487395Y-83033195D01*
X123482000Y-83032723D01*
X123476605Y-83033195D01*
X123269421Y-83051320D01*
X123269412Y-83051321D01*
X123264023Y-83051793D01*
X123258802Y-83053191D01*
X123258790Y-83053194D01*
X123057897Y-83107024D01*
X123057892Y-83107025D01*
X123052670Y-83108425D01*
X123047774Y-83110707D01*
X123047763Y-83110712D01*
X122859272Y-83198608D01*
X122859268Y-83198610D01*
X122854362Y-83200898D01*
X122849929Y-83204001D01*
X122849922Y-83204006D01*
X122679558Y-83323296D01*
X122679553Y-83323299D01*
X122675123Y-83326402D01*
X122671299Y-83330225D01*
X122671293Y-83330231D01*
X122524231Y-83477293D01*
X122524225Y-83477299D01*
X122520402Y-83481123D01*
X122517299Y-83485553D01*
X122517296Y-83485558D01*
X122398006Y-83655922D01*
X122398001Y-83655929D01*
X122394898Y-83660362D01*
X122392610Y-83665268D01*
X122392608Y-83665272D01*
X122324382Y-83811583D01*
X122278625Y-83863759D01*
X122212000Y-83883178D01*
X122145375Y-83863759D01*
X122099618Y-83811583D01*
X122086530Y-83783516D01*
X122029102Y-83660362D01*
X121903598Y-83481123D01*
X121748877Y-83326402D01*
X121744446Y-83323299D01*
X121744442Y-83323296D01*
X121574068Y-83203999D01*
X121574066Y-83203997D01*
X121569639Y-83200898D01*
X121564742Y-83198614D01*
X121564736Y-83198611D01*
X121376236Y-83110712D01*
X121376229Y-83110709D01*
X121371330Y-83108425D01*
X121366103Y-83107024D01*
X121366102Y-83107024D01*
X121165209Y-83053194D01*
X121165199Y-83053192D01*
X121159977Y-83051793D01*
X121154585Y-83051321D01*
X121154578Y-83051320D01*
X120947395Y-83033195D01*
X120942000Y-83032723D01*
X120936605Y-83033195D01*
X120729421Y-83051320D01*
X120729412Y-83051321D01*
X120724023Y-83051793D01*
X120718802Y-83053191D01*
X120718790Y-83053194D01*
X120517897Y-83107024D01*
X120517892Y-83107025D01*
X120512670Y-83108425D01*
X120507774Y-83110707D01*
X120507763Y-83110712D01*
X120319272Y-83198608D01*
X120319268Y-83198610D01*
X120314362Y-83200898D01*
X120309929Y-83204001D01*
X120309922Y-83204006D01*
X120139558Y-83323296D01*
X120139553Y-83323299D01*
X120135123Y-83326402D01*
X120131299Y-83330225D01*
X120131293Y-83330231D01*
X119984231Y-83477293D01*
X119984225Y-83477299D01*
X119980402Y-83481123D01*
X119977299Y-83485553D01*
X119977296Y-83485558D01*
X119858006Y-83655922D01*
X119858001Y-83655929D01*
X119854898Y-83660362D01*
X119852610Y-83665268D01*
X119852608Y-83665272D01*
X119784382Y-83811583D01*
X119738625Y-83863759D01*
X119672000Y-83883178D01*
X119605375Y-83863759D01*
X119559618Y-83811583D01*
X119546530Y-83783516D01*
X119489102Y-83660362D01*
X119363598Y-83481123D01*
X119208877Y-83326402D01*
X119204446Y-83323299D01*
X119204442Y-83323296D01*
X119034068Y-83203999D01*
X119034066Y-83203997D01*
X119029639Y-83200898D01*
X119024742Y-83198614D01*
X119024736Y-83198611D01*
X118836236Y-83110712D01*
X118836229Y-83110709D01*
X118831330Y-83108425D01*
X118826103Y-83107024D01*
X118826102Y-83107024D01*
X118625209Y-83053194D01*
X118625199Y-83053192D01*
X118619977Y-83051793D01*
X118614585Y-83051321D01*
X118614578Y-83051320D01*
X118407395Y-83033195D01*
X118402000Y-83032723D01*
X118396605Y-83033195D01*
X118189421Y-83051320D01*
X118189412Y-83051321D01*
X118184023Y-83051793D01*
X118178802Y-83053191D01*
X118178790Y-83053194D01*
X117977897Y-83107024D01*
X117977892Y-83107025D01*
X117972670Y-83108425D01*
X117967774Y-83110707D01*
X117967763Y-83110712D01*
X117779272Y-83198608D01*
X117779268Y-83198610D01*
X117774362Y-83200898D01*
X117769929Y-83204001D01*
X117769922Y-83204006D01*
X117599558Y-83323296D01*
X117599553Y-83323299D01*
X117595123Y-83326402D01*
X117591299Y-83330225D01*
X117591293Y-83330231D01*
X117444231Y-83477293D01*
X117444225Y-83477299D01*
X117440402Y-83481123D01*
X117437299Y-83485553D01*
X117437296Y-83485558D01*
X117318006Y-83655922D01*
X117318001Y-83655929D01*
X117314898Y-83660362D01*
X117312610Y-83665268D01*
X117312608Y-83665272D01*
X117224712Y-83853763D01*
X117224707Y-83853774D01*
X117222425Y-83858670D01*
X117221025Y-83863892D01*
X117221024Y-83863897D01*
X117167194Y-84064790D01*
X117167191Y-84064802D01*
X117165793Y-84070023D01*
X117165321Y-84075412D01*
X117165320Y-84075421D01*
X117155611Y-84186404D01*
X117146723Y-84288000D01*
X94742500Y-84288000D01*
X94742500Y-78864500D01*
X94759113Y-78802500D01*
X94804500Y-78757113D01*
X94866500Y-78740500D01*
X175135500Y-78740500D01*
X175197500Y-78757113D01*
G37*
%TD.AperFunction*%
%TD*%
M02*
